<?xml version="1.0" encoding="utf-8"?>
<!-- Generator: Adobe Illustrator 21.0.0, SVG Export Plug-In . SVG Version: 6.00 Build 0)  -->
<svg version="1.1" id="Capa_1" xmlns="http://www.w3.org/2000/svg" xmlns:xlink="http://www.w3.org/1999/xlink" x="0px" y="0px"
	 viewBox="0 0 322 108" style="enable-background:new 0 0 322 108;" xml:space="preserve">
<style type="text/css">
	.st0{fill:url(#SVGID_1_);}
	.st1{fill:#2366BB;}
</style>
<g>
	
		<linearGradient id="SVGID_1_" gradientUnits="userSpaceOnUse" x1="0.3" y1="-675.89" x2="108.3" y2="-675.89" gradientTransform="matrix(1 0 0 -1 0 -621.89)">
		<stop  offset="0" style="stop-color:#00B2F5"/>
		<stop  offset="1" style="stop-color:#383897"/>
	</linearGradient>
	<path class="st0" d="M54.3,108c-29.8,0-54-24.3-54-54s24.3-54,54-54c29.8,0,54,24.3,54,54S84.1,108,54.3,108z M54.3,3.3
		C26.4,3.3,3.6,26.1,3.6,54s22.8,50.7,50.7,50.7S105,81.9,105,54S82.2,3.3,54.3,3.3z"/>
</g>
<g>
	<path class="st1" d="M70.9,41.5c0,2.8,0,5.6,0,8.4c-0.1,7.5-4.7,13.7-11.9,15.9c-1.5,0.4-1.9,1.1-1.9,2.6c0.1,3.4,0.1,7,0,10.4
		c0,1.1,0.3,1.7,1.4,2.1c1.6,0.5,2.9,1.6,3.8,3.2c0.5,1.1,0.5,1.8-1.1,1.8c-4.6,0-9.3,0-14,0c-1.4,0-1.7-0.6-1.1-1.9
		c0.8-1.5,2-2.5,3.7-3c1.1-0.4,1.4-1,1.4-2.1c-0.1-3.7,0-7.3,0-11c0-1.1-0.3-1.6-1.4-1.9c-7.9-2.6-12.2-8.5-12.3-17
		c0-5.6,0-11.2,0-16.7c0-1.5,0.4-2.1,1.9-2c3.3,0.1,6.5,0,9.9,0c0.9,0,1.4,0.2,1.8,0.9c1.4,1.9,2.8,4,4.2,5.9
		c0.5,0.8,0.4,1.3-0.3,1.7c-1.4,1-3,2-4.5,3.1c-1.5,1.1-1.9,2.7-0.9,4.2c1.7,2.7,3.5,5.3,5.4,7.9c0.5,0.9,1.1,0.9,1.9,0.3
		c3.8-2.6,3.2-1.7,1.1-5c-0.6-1-1.2-1.9-1.9-2.8c-1-1.2-0.6-1.9,0.5-2.6c1.4-0.9,2.8-1.8,4.2-2.8c1.6-1.1,1.9-2.4,0.9-4
		c-1.2-1.8-2.5-3.5-3.8-5.4c-0.2-0.3-0.8-0.6-0.4-1.2c0.2-0.4,0.8-0.2,1.1-0.2c3.7,0,7.4,0,11.1,0c1.1,0,1.4,0.4,1.3,1.4
		C70.9,35,70.9,38.2,70.9,41.5L70.9,41.5z"/>
</g>
<g>
	<path class="st1" d="M129.3,58.2h-6l-1.2,3.5h-2.6l5.6-15.2h2.4l5.6,15.2h-2.6L129.3,58.2z M124.1,56.1h4.5l-2.3-6.5h-0.1
		L124.1,56.1z"/>
	<path class="st1" d="M139.3,60c0.6,0,1.2-0.2,1.6-0.5s0.6-0.9,0.6-1.4h2.3v0.1c0,1.1-0.4,1.9-1.3,2.8c-0.9,0.9-1.9,1.2-3.2,1.2
		c-1.7,0-2.9-0.5-3.9-1.6c-1-1.1-1.3-2.5-1.3-4.1v-0.3c0-1.6,0.4-3,1.3-4.1c0.9-1.1,2.1-1.6,3.9-1.6c1.4,0,2.5,0.4,3.3,1.2
		c0.9,0.8,1.3,1.8,1.2,3v0.1h-2.4c0-0.6-0.2-1.2-0.6-1.6c-0.4-0.4-1-0.6-1.6-0.6c-1,0-1.6,0.3-2,1.1c-0.4,0.6-0.6,1.6-0.6,2.6v0.3
		c0,1.1,0.2,1.9,0.6,2.7C137.6,59.6,138.4,60,139.3,60z"/>
	<path class="st1" d="M150.6,60c0.6,0,1.2-0.2,1.6-0.5s0.6-0.9,0.6-1.4h2.3v0.1c0,1.1-0.4,1.9-1.3,2.8c-0.9,0.8-1.9,1.2-3.2,1.2
		c-1.7,0-2.9-0.5-3.9-1.6s-1.3-2.5-1.3-4.1v-0.3c0-1.6,0.4-3,1.3-4.1s2.1-1.6,3.9-1.6c1.4,0,2.5,0.4,3.3,1.2s1.3,1.8,1.2,3v0.1h-2.4
		c0-0.6-0.2-1.2-0.6-1.6c-0.4-0.4-1-0.6-1.6-0.6c-1,0-1.6,0.3-2,1.1c-0.4,0.6-0.6,1.6-0.6,2.6v0.3c0,1.1,0.2,1.9,0.6,2.7
		C148.9,59.6,149.6,60,150.6,60z"/>
	<path class="st1" d="M159.8,47.7h-2.6v-2.3h2.6V47.7z M159.8,61.8h-2.6V50.5h2.6V61.8z"/>
	<path class="st1" d="M162.2,56.3c0-1.8,0.4-3.2,1.2-4.4c0.8-1.2,1.8-1.6,3.2-1.6c0.6,0,1.2,0.1,1.6,0.3c0.4,0.2,0.9,0.6,1.3,1.1
		v-6.2h2.6v16.3h-2.1l-0.2-1.4c-0.3,0.5-0.8,1-1.3,1.2c-0.5,0.2-1.1,0.4-1.8,0.4c-1.4,0-2.5-0.5-3.2-1.5c-0.8-1-1.2-2.4-1.2-4V56.3z
		 M164.8,56.5c0,1.1,0.2,1.9,0.6,2.5c0.4,0.5,1.1,1,1.9,1c0.5,0,1-0.1,1.4-0.3c0.4-0.2,0.6-0.5,1-1v-4.9c-0.2-0.4-0.5-0.8-1-1
		c-0.4-0.2-0.9-0.3-1.4-0.3c-0.9,0-1.5,0.3-1.9,1.1c-0.4,0.8-0.6,1.7-0.6,2.9V56.5z"/>
	<path class="st1" d="M179.7,62.1c-1.6,0-2.9-0.5-3.9-1.6s-1.4-2.4-1.4-4.1v-0.4c0-1.6,0.4-3,1.4-4.1c1-1.1,2.1-1.6,3.5-1.6
		c1.5,0,2.7,0.4,3.5,1.4c0.9,1,1.2,2.1,1.2,3.8v1.5h-7l0,0c0,0.9,0.3,1.6,0.8,2.3c0.5,0.5,1.2,0.9,2,0.9c0.6,0,1.3-0.1,1.7-0.2
		c0.5-0.2,1-0.4,1.4-0.8l0.9,1.7c-0.4,0.4-1,0.8-1.7,1C181.5,61.8,180.7,62.1,179.7,62.1z M179.5,52.3c-0.6,0-1.2,0.2-1.5,0.8
		c-0.4,0.5-0.6,1.2-0.8,1.9l0,0h4.5v-0.2c0-0.8-0.2-1.3-0.5-1.7C180.9,52.6,180.2,52.3,179.5,52.3z"/>
	<path class="st1" d="M188.5,50.5l0.1,1.6c0.3-0.5,0.9-1.1,1.4-1.4s1.2-0.5,1.9-0.5c1.2,0,2.1,0.3,2.8,1.1c0.6,0.8,1,1.8,1,3.3v7.1
		h-2.5v-7.1c0-0.9-0.2-1.5-0.5-1.8c-0.3-0.3-0.9-0.5-1.6-0.5c-0.5,0-1,0.1-1.3,0.3c-0.4,0.2-0.8,0.5-1,0.9v8.3h-2.6V50.5H188.5z"/>
	<path class="st1" d="M201.6,47.7v2.8h2v1.9h-2v6.2c0,0.4,0.1,0.8,0.3,1c0.2,0.2,0.4,0.3,0.9,0.3c0.1,0,0.3,0,0.4,0
		c0.1,0,0.2-0.1,0.4-0.1l0.3,1.8c-0.2,0.1-0.4,0.2-0.8,0.3s-0.6,0.1-1,0.1c-1,0-1.7-0.3-2.3-0.9c-0.5-0.5-0.8-1.4-0.8-2.6v-6.2h-1.7
		v-1.9h1.7v-2.8H201.6z"/>
	<path class="st1" d="M212.6,61.8c-0.1-0.3-0.2-0.5-0.2-0.9c-0.1-0.3-0.1-0.5-0.1-0.9c-0.3,0.5-0.9,1-1.4,1.3
		c-0.5,0.3-1.2,0.5-1.9,0.5c-1.2,0-2-0.3-2.7-0.9c-0.6-0.6-1-1.4-1-2.5s0.4-1.9,1.3-2.6c0.9-0.6,2-1,3.7-1h1.9v-1
		c0-0.6-0.2-1.1-0.5-1.4c-0.3-0.3-0.9-0.5-1.5-0.5c-0.5,0-1.1,0.1-1.4,0.4c-0.3,0.3-0.5,0.6-0.5,1.1h-2.5v-0.1
		c0-0.9,0.3-1.7,1.2-2.4c0.9-0.6,1.9-1.1,3.3-1.1c1.3,0,2.4,0.3,3.2,1c0.9,0.6,1.2,1.6,1.2,2.9v5c0,0.4,0,1,0.1,1.4s0.2,0.9,0.3,1.3
		h-2.5V61.8z M209.5,60c0.6,0,1.2-0.1,1.7-0.4c0.5-0.3,0.9-0.6,1.1-1.1v-1.7h-2c-0.8,0-1.3,0.2-1.7,0.5c-0.4,0.3-0.6,0.8-0.6,1.3
		c0,0.4,0.1,0.8,0.4,1.1C208.7,60,209,60,209.5,60z"/>
	<path class="st1" d="M220.3,61.8h-2.6V45.4h2.6V61.8z"/>
</g>
</svg>
