<?xml version="1.0" encoding="utf-8"?>
<!-- Generator: Adobe Illustrator 21.0.0, SVG Export Plug-In . SVG Version: 6.00 Build 0)  -->
<svg version="1.1" id="Capa_1" xmlns="http://www.w3.org/2000/svg" xmlns:xlink="http://www.w3.org/1999/xlink" x="0px" y="0px"
	 viewBox="0 0 322 108" style="enable-background:new 0 0 322 108;" xml:space="preserve">
<style type="text/css">
	.st0{fill:url(#SVGID_1_);}
	.st1{fill:#2366BB;}
	.st2{fill:#FFFFFF;}
</style>
<g>
	
		<linearGradient id="SVGID_1_" gradientUnits="userSpaceOnUse" x1="0" y1="-676.1351" x2="107.4032" y2="-676.1351" gradientTransform="matrix(1 0 0 -1 0 -621.89)">
		<stop  offset="0" style="stop-color:#00B2F5"/>
		<stop  offset="1" style="stop-color:#383897"/>
	</linearGradient>
	<path class="st0" d="M53.7,108C24,108,0,83.9,0,54.3S24,0.5,53.7,0.5s53.7,24.1,53.7,53.7S83.3,108,53.7,108z M53.7,3.9
		C25.9,3.9,3.3,26.5,3.3,54.3s22.6,50.3,50.4,50.3s50.4-22.6,50.4-50.4S81.5,3.9,53.7,3.9z"/>
</g>
<g>
	<path class="st1" d="M126.1,58.5h-6l-1.2,3.5h-2.6l5.6-15.2h2.3l5.6,15.2h-2.6L126.1,58.5z M120.9,56.3h4.5l-2.2-6.5H123
		L120.9,56.3z"/>
	<path class="st1" d="M141.1,56.8c0,1.6-0.4,3-1.2,4c-0.7,1-1.8,1.5-3.2,1.5c-0.6,0-1.2-0.1-1.7-0.3c-0.5-0.2-1-0.5-1.3-1v5.4h-2.5
		V50.7h2.1l0.2,1.4c0.3-0.5,0.7-1,1.3-1.2c0.5-0.2,1.1-0.4,1.8-0.4c1.4,0,2.5,0.5,3.2,1.6c0.7,1.1,1.2,2.6,1.2,4.4V56.8z
		 M138.7,56.5c0-1.2-0.2-2.1-0.6-2.8c-0.4-0.6-1.1-1.1-1.9-1.1c-0.5,0-1,0.1-1.4,0.3c-0.3,0.2-0.6,0.5-0.9,1v5.1
		c0.2,0.4,0.5,0.7,0.9,1c0.3,0.2,0.9,0.3,1.4,0.3c0.9,0,1.5-0.3,1.9-1c0.4-0.6,0.6-1.5,0.6-2.5V56.5z"/>
	<path class="st1" d="M153.3,56.8c0,1.6-0.4,3-1.2,4c-0.7,1-1.8,1.5-3.2,1.5c-0.6,0-1.2-0.1-1.7-0.3c-0.5-0.2-1-0.5-1.3-1v5.4h-2.6
		V50.7h2.1l0.2,1.4c0.3-0.5,0.7-1,1.3-1.2c0.5-0.2,1.1-0.4,1.8-0.4c1.4,0,2.5,0.5,3.2,1.6c0.7,1.1,1.2,2.6,1.2,4.4v0.3
		C153.2,56.8,153.3,56.8,153.3,56.8z M150.7,56.5c0-1.2-0.2-2.1-0.6-2.8c-0.4-0.6-1.1-1.1-1.9-1.1c-0.5,0-1,0.1-1.4,0.3
		c-0.3,0.2-0.6,0.5-0.9,1v5.1c0.2,0.4,0.5,0.7,0.9,1c0.3,0.2,0.9,0.3,1.4,0.3c0.9,0,1.5-0.3,1.9-1c0.4-0.6,0.6-1.5,0.6-2.5V56.5z"/>
	<path class="st1" d="M158.2,62h-2.6V45.8h2.6V62z"/>
	<path class="st1" d="M163.7,48h-2.5v-2.2h2.6L163.7,48L163.7,48z M163.7,62h-2.5V50.7h2.6L163.7,62L163.7,62z"/>
	<path class="st1" d="M173.4,62c-0.1-0.3-0.2-0.5-0.2-0.9c0-0.3-0.1-0.5-0.1-0.9c-0.3,0.5-0.9,1-1.4,1.3c-0.5,0.3-1.2,0.5-1.9,0.5
		c-1.2,0-2-0.3-2.7-0.9c-0.6-0.5-1-1.4-1-2.5c0-1.1,0.4-1.9,1.3-2.6c0.9-0.6,2-1,3.6-1h1.9v-0.9c0-0.6-0.2-1.1-0.5-1.4
		c-0.3-0.3-0.9-0.5-1.5-0.5c-0.5,0-1.1,0.1-1.4,0.4c-0.3,0.3-0.5,0.6-0.5,1.1h-2.5v-0.1c0-0.9,0.3-1.7,1.2-2.3
		c0.9-0.6,1.9-1.1,3.3-1.1c1.3,0,2.3,0.3,3.2,1c0.9,0.6,1.2,1.6,1.2,2.9v5c0,0.4,0,1,0.1,1.4s0.2,0.9,0.3,1.3
		C175.8,62,173.4,62,173.4,62z M170.2,60.2c0.6,0,1.2-0.1,1.7-0.4c0.5-0.3,0.9-0.6,1.1-1.1V57h-2c-0.7,0-1.3,0.2-1.7,0.5
		c-0.4,0.3-0.6,0.7-0.6,1.3c0,0.4,0.1,0.7,0.4,1.1C169.3,60.2,169.8,60.2,170.2,60.2z"/>
	<path class="st1" d="M180.4,50.7l0.1,1.6c0.3-0.5,0.9-1.1,1.4-1.4s1.2-0.5,1.9-0.5c1.2,0,2.1,0.3,2.8,1.1c0.6,0.7,1,1.8,1,3.3v7
		H185v-7c0-0.9-0.2-1.5-0.5-1.8c-0.3-0.3-0.9-0.5-1.6-0.5c-0.5,0-1,0.1-1.3,0.3c-0.4,0.2-0.7,0.5-1,0.9v8.2h-2.6V50.7H180.4z"/>
	<path class="st1" d="M194.9,60.2c0.6,0,1.2-0.2,1.6-0.5c0.4-0.3,0.6-0.9,0.6-1.4h2.2v0.1c0,1.1-0.4,1.9-1.3,2.8
		c-0.9,0.9-1.9,1.2-3.2,1.2c-1.7,0-2.9-0.5-3.8-1.6c-1-1.1-1.3-2.5-1.3-4.1v-0.3c0-1.6,0.4-3,1.3-4.1c0.9-1.1,2.1-1.6,3.8-1.6
		c1.4,0,2.5,0.4,3.3,1.2c0.9,0.7,1.3,1.8,1.2,3v0.1h-2.3c0-0.6-0.2-1.2-0.6-1.6s-1-0.6-1.6-0.6c-1,0-1.6,0.3-2,1.1
		c-0.4,0.6-0.6,1.6-0.6,2.6v0.2c0,1.1,0.2,1.9,0.6,2.7C193.3,59.9,194,60.2,194.9,60.2z"/>
	<path class="st1" d="M206.3,62.2c-1.6,0-2.9-0.5-3.8-1.6c-1-1.1-1.4-2.3-1.4-4.1v-0.4c0-1.6,0.4-3,1.4-4.1c1-1.1,2.1-1.6,3.5-1.6
		c1.5,0,2.7,0.4,3.5,1.4c0.9,1,1.2,2.1,1.2,3.7v1.5h-7l0,0c0,0.9,0.3,1.6,0.7,2.2c0.5,0.5,1.2,0.9,2,0.9c0.6,0,1.3-0.1,1.7-0.2
		s1-0.4,1.4-0.7l0.9,1.7c-0.4,0.4-1,0.7-1.7,1C208.1,62.1,207.2,62.2,206.3,62.2z M206.1,52.6c-0.6,0-1.2,0.2-1.5,0.7
		c-0.3,0.5-0.6,1.2-0.7,1.9l0,0h4.5V55c0-0.7-0.2-1.3-0.5-1.7C207.4,52.9,206.8,52.6,206.1,52.6z"/>
	<path class="st1" d="M220.9,60h6.9v2h-9.5V46.8h2.6V60z"/>
	<path class="st1" d="M234.5,62.2c-1.6,0-2.9-0.5-3.8-1.6c-1-1.1-1.4-2.3-1.4-4.1v-0.4c0-1.6,0.4-3,1.4-4.1c1-1.1,2.1-1.6,3.5-1.6
		c1.5,0,2.7,0.4,3.5,1.4c0.9,1,1.2,2.1,1.2,3.7v1.5h-7l0,0c0,0.9,0.3,1.6,0.7,2.2c0.5,0.5,1.2,0.9,2,0.9c0.6,0,1.3-0.1,1.7-0.2
		s1-0.4,1.4-0.7l0.9,1.7c-0.4,0.4-1,0.7-1.7,1C236.3,62.1,235.4,62.2,234.5,62.2z M234.2,52.6c-0.6,0-1.2,0.2-1.5,0.7
		c-0.3,0.5-0.6,1.2-0.7,1.9l0,0h4.5V55c0-0.7-0.2-1.3-0.5-1.7C235.6,52.9,234.9,52.6,234.2,52.6z"/>
	<path class="st1" d="M247.7,62c-0.1-0.3-0.2-0.5-0.2-0.9c0-0.3-0.1-0.5-0.1-0.9c-0.3,0.5-0.9,1-1.4,1.3c-0.5,0.3-1.2,0.5-1.9,0.5
		c-1.2,0-2-0.3-2.7-0.9c-0.6-0.5-1-1.4-1-2.5c0-1.1,0.4-1.9,1.3-2.6c0.9-0.6,2-1,3.6-1h1.9v-0.9c0-0.6-0.2-1.1-0.5-1.4
		c-0.3-0.3-0.9-0.5-1.5-0.5c-0.5,0-1.1,0.1-1.4,0.4c-0.3,0.3-0.5,0.6-0.5,1.1h-2.5v-0.1c0-0.9,0.3-1.7,1.2-2.3
		c0.9-0.6,1.9-1.1,3.3-1.1c1.3,0,2.3,0.3,3.2,1c0.9,0.6,1.2,1.6,1.2,2.9v5c0,0.4,0,1,0.1,1.4s0.2,0.9,0.3,1.3
		C250.1,62,247.7,62,247.7,62z M244.6,60.2c0.6,0,1.2-0.1,1.7-0.4c0.5-0.3,0.9-0.6,1.1-1.1V57h-2c-0.7,0-1.3,0.2-1.7,0.5
		c-0.4,0.3-0.6,0.7-0.6,1.3c0,0.4,0.1,0.7,0.4,1.1C243.7,60.2,244.1,60.2,244.6,60.2z"/>
	<path class="st1" d="M256.2,57.1h-1.2V62h-2.6V45.8h2.6V55h1.1l2.9-4.3h3l-3.7,5.1l4.3,6.2h-3L256.2,57.1z"/>
</g>
<path class="st1" d="M45.9,55.7c0-1.3,0-2.3,0-3.3c0-1,0.4-1.4,1.4-1.4c3.5,0,7.2,0,10.7,0c1,0,1.4,0.4,1.4,1.4c0,1.1,0,2.1,0,3.3
	c0.5,0,1.1,0.1,1.5,0.1c2.9,0,5.9-0.1,8.8,0.1c7.5,0.5,13.1,6.7,12.9,14.2c-0.2,7.4-6.1,13.5-13.7,13.6c-10.8,0.1-21.6,0.1-32.2,0
	c-7-0.1-13-5.7-13.6-12.6c-0.6-7.3,4.1-13.7,11.1-14.9c2.6-0.4,5.2-0.2,7.8-0.3C43.1,55.7,44.4,55.7,45.9,55.7z M52.5,76.7
	c3.4,0,5.9-3.2,4.6-6.4c-1-2.6-2.5-4.9-3.7-7.3c-0.4-0.9-1.4-0.9-1.8,0c-1.3,2.3-2.8,4.7-3.7,7.2C46.5,73.4,49.1,76.7,52.5,76.7z"/>
<path class="st1" d="M43.8,34c-1.9,0-3.7,0-5.6,0c0,6.5,0,13,0,19.4c-2.2,0.3-4.5,0.6-6.7,1c0-3.7,0-7.6,0-11.4c0-4,0-7.9,0-11.7
	c0-2.6,1.3-3.8,3.8-3.8c3.8,0,7.6,0,11.4,0c2.3,0,3.7,1.3,3.7,3.7c0,2.9,0,5.8,0,8.8c0,1.1-0.4,1.5-1.5,1.5c-1.3,0-2.6,0-3.8,0
	c-1.1,0-1.5-0.4-1.4-1.5C43.8,37.9,43.8,35.9,43.8,34z"/>
<path class="st1" d="M73.5,54.3c-2.1-0.3-4.3-0.5-6.5-0.7c0-6.4,0-12.8,0-19.4c-1.9,0-3.6,0-5.7,0c0,1.7,0,3.3,0,5
	c0,2.1,0,2.1-2.1,2.1c-1.1,0-2.1,0-3.2,0c-0.9,0-1.4-0.3-1.4-1.3c0-3.1,0-6.1,0-9.2c0-2,1.4-3.4,3.4-3.4c4.1,0,8.1,0,12.2,0
	c1.9,0,3.3,1.3,3.3,3.2c0,7.9,0,15.7,0,23.6C73.6,54.1,73.5,54.2,73.5,54.3z"/>
<path class="st1" d="M49.4,45.5c-0.6,0.6-1.1,1.3-1.5,1.3c-0.9,0.1-1-0.6-1-1.4c0-0.7,0.1-1.5,1-1.3C48.5,44.2,48.8,44.9,49.4,45.5z
	"/>
<path class="st1" d="M58.5,45.5c-0.6,0.6-1.1,1.3-1.5,1.4c-0.9,0.1-1-0.6-1-1.4c0-0.7,0.1-1.5,1-1.4C57.4,44.2,57.9,44.8,58.5,45.5z
	"/>
<path class="st1" d="M44.5,47.4c-0.6,0.6-1,1.4-1.4,1.4c-0.9,0.1-1-0.6-1-1.3c0-0.6,0-1.5,1-1.4C43.5,46.1,43.9,46.7,44.5,47.4z"/>
<path class="st1" d="M63.3,47.5c-0.6,0.6-1.1,1.3-1.5,1.3C61,48.9,61,48,61,47.4c0-0.7,0.1-1.5,1-1.3C62.3,46.1,62.7,46.8,63.3,47.5
	z"/>
<polygon class="st2" points="75.2,70.4 76,63.8 80.7,62.6 79.1,60.1 73.6,61.3 "/>
<path class="st1" d="M89.5,49.9c-0.2,0-0.5,0-1.1,0.1c1.9,0.6,2.2,1.8,1.6,3.3c-0.5,1.3-1.4,2.3-3,2c0-0.1,0-0.4,0-1
	c-0.6,1.4-1.6,1.7-2.8,1.3c0.5,1,0.3,1.6-0.4,2.2c-0.7,0.6-1.5,1.3-2.2,1.8c-0.6,0.5-1.6,0.1-1.6-0.6c0-0.9,0.1-1.8,0.2-2.7
	c0-0.3,0.3-0.6,0.5-1.1c-0.2-0.5-0.5-1.1-0.9-1.6c-0.6,0-1.4,0.1-2.1,0c-1.2-0.3-1.8-1.3-1.7-2.6c0-1.4,1-2.6,2.1-3.1
	c0.4-0.2,1-0.5,1.2-0.9c1.3-1.8,3.4-2.6,5.2-1.2c0.2,0.2,0.6,0.2,0.9,0.2c2.3-0.5,3.6,0.4,3.7,2.8C89.4,49.4,89.5,49.7,89.5,49.9z"
	/>
</svg>
