<?xml version="1.0" encoding="utf-8"?>
<!-- Generator: Adobe Illustrator 21.0.0, SVG Export Plug-In . SVG Version: 6.00 Build 0)  -->
<svg version="1.1" id="Capa_1" xmlns="http://www.w3.org/2000/svg" xmlns:xlink="http://www.w3.org/1999/xlink" x="0px" y="0px"
	 viewBox="0 0 322 108" style="enable-background:new 0 0 322 108;" xml:space="preserve">
<style type="text/css">
	.st0{fill:url(#SVGID_1_);}
	.st1{fill:#2366BB;}
</style>
<g>
	
		<linearGradient id="SVGID_1_" gradientUnits="userSpaceOnUse" x1="215.3174" y1="245.7047" x2="320.0069" y2="245.7047" gradientTransform="matrix(1 0 0 1 0 -192.11)">
		<stop  offset="0" style="stop-color:#00B2F5"/>
		<stop  offset="1" style="stop-color:#383897"/>
	</linearGradient>
	<path class="st0" d="M267.7,105.9c-28.9,0-52.3-23.5-52.3-52.3s23.5-52.3,52.3-52.3c28.9,0,52.3,23.5,52.3,52.3
		S296.6,105.9,267.7,105.9z M267.7,4.5c-27.1,0-49.1,22.1-49.1,49.1s22.1,49.1,49.1,49.1c27.1,0,49.1-22.1,49.1-49.1
		S294.7,4.5,267.7,4.5z"/>
</g>
<g>
	<path class="st1" d="M66.6,63V47.9h4.2c1.5,0,2.6,0.3,3.3,1c0.8,0.6,1.2,1.7,1.2,3c0,0.7-0.2,1.4-0.5,1.9c-0.3,0.5-0.8,0.9-1.5,1.2
		c0.8,0.1,1.6,0.5,2,1.2c0.5,0.7,0.7,1.5,0.7,2.4c0,1.4-0.4,2.4-1.1,3.1c-0.8,0.7-1.9,1-3.3,1h-5V63z M68.7,54.4h2.4
		c0.6,0,1.2-0.2,1.6-0.6c0.4-0.4,0.6-1,0.6-1.8c0-0.8-0.2-1.5-0.6-1.9c-0.4-0.4-1-0.6-1.9-0.6h-2.1V54.4z M68.7,55.9v5.4h2.9
		c0.7,0,1.4-0.2,1.8-0.7c0.4-0.4,0.6-1.1,0.6-2c0-0.8-0.2-1.5-0.6-2s-0.9-0.7-1.7-0.8h-0.1h-2.9V55.9z"/>
	<path class="st1" d="M84.1,61.3c-0.3,0.6-0.7,1-1.1,1.4c-0.5,0.3-1,0.5-1.7,0.5c-1,0-1.9-0.4-2.4-1.1c-0.6-0.8-0.8-2-0.8-3.6v-6.6
		h2.1v6.6c0,1.2,0.1,2.1,0.4,2.5c0.3,0.5,0.7,0.7,1.2,0.7s0.9-0.1,1.4-0.3c0.3-0.2,0.6-0.6,0.8-1v-8.4h2.1V63h-1.8L84.1,61.3z"/>
	<path class="st1" d="M90.8,48.8h-2.1v-2h2.1V48.8z M90.8,63h-2.1V51.7h2.1V63z"/>
	<path class="st1" d="M95.5,63h-2.1V46.8h2.1V63z"/>
	<path class="st1" d="M97.7,57.4c0-1.8,0.3-3.2,0.9-4.3c0.6-1,1.6-1.7,2.8-1.7c0.5,0,1,0.1,1.5,0.3c0.4,0.2,0.8,0.6,1,1v-6.1h2.1
		v16.1h-1.8l-0.2-1.2c-0.3,0.5-0.7,0.9-1.1,1.1c-0.4,0.2-0.9,0.4-1.6,0.4c-1.1,0-2.1-0.5-2.7-1.5c-0.6-1-0.9-2.3-0.9-4V57.4z
		 M99.8,57.7c0,1.1,0.2,2.1,0.5,2.8c0.3,0.7,0.9,1,1.7,1c0.4,0,0.8-0.1,1.1-0.4c0.3-0.3,0.6-0.6,0.8-1v-5.4
		c-0.2-0.4-0.5-0.8-0.8-1.1c-0.3-0.3-0.7-0.4-1.1-0.4c-0.7,0-1.2,0.4-1.7,1.1c-0.3,0.8-0.5,1.9-0.5,3.1V57.7z"/>
	<path class="st1" d="M110.7,48.8h-2.1v-2h2.1V48.8z M110.7,63h-2.1V51.7h2.1V63z"/>
	<path class="st1" d="M115.2,51.7l0.1,1.7c0.3-0.6,0.7-1,1.2-1.4c0.5-0.3,1-0.5,1.7-0.5c1,0,1.8,0.4,2.3,1.1
		c0.5,0.7,0.8,1.9,0.8,3.4V63h-2.1v-6.9c0-1-0.1-1.8-0.4-2.2c-0.3-0.4-0.7-0.6-1.4-0.6c-0.5,0-0.9,0.1-1.2,0.4
		c-0.3,0.2-0.6,0.6-0.8,1v8.3h-2.1V51.7H115.2z"/>
	<path class="st1" d="M123.4,57.4c0-1.8,0.3-3.2,0.9-4.3c0.6-1,1.6-1.7,2.8-1.7c0.6,0,1,0.1,1.6,0.4c0.4,0.3,0.8,0.7,1.1,1.1
		l0.2-1.5h1.8v11.2c0,1.5-0.4,2.5-1.1,3.3c-0.7,0.8-1.9,1.1-3.2,1.1c-0.5,0-0.9-0.1-1.6-0.2s-1-0.3-1.5-0.6l0.3-1.6
		c0.4,0.2,0.8,0.4,1.2,0.5c0.4,0.1,0.9,0.2,1.4,0.2c0.8,0,1.4-0.2,1.8-0.7c0.4-0.4,0.5-1.1,0.5-2.1v-1.1c-0.3,0.4-0.6,0.7-1,0.9
		c-0.4,0.2-0.9,0.3-1.5,0.3c-1.1,0-2.1-0.5-2.7-1.5c-0.6-1-0.9-2.3-0.9-4v-0.1H123.4z M125.5,57.7c0,1.1,0.2,2.1,0.5,2.8
		c0.3,0.7,0.9,1,1.7,1c0.5,0,0.8-0.1,1.1-0.3c0.3-0.2,0.6-0.6,0.8-1v-5.5c-0.2-0.4-0.4-0.8-0.8-1c-0.3-0.3-0.7-0.4-1.1-0.4
		c-0.7,0-1.2,0.4-1.7,1.1c-0.3,0.8-0.5,1.9-0.5,3.1V57.7z"/>
	<path class="st1" d="M138.4,57.4c0-1.8,0.3-3.2,0.9-4.3c0.6-1,1.6-1.7,2.8-1.7c0.5,0,1,0.1,1.5,0.3c0.4,0.2,0.8,0.6,1,1v-6.1h2.1
		v16.1H145l-0.2-1.4c-0.3,0.5-0.7,0.9-1.1,1.1c-0.4,0.2-0.9,0.4-1.6,0.4c-1.1,0-2.1-0.5-2.7-1.5c-0.6-1-0.9-2.3-0.9-4
		C138.4,57.7,138.4,57.4,138.4,57.4z M140.5,57.7c0,1.1,0.2,2.1,0.5,2.8c0.3,0.7,0.9,1,1.7,1c0.4,0,0.8-0.1,1.1-0.4s0.6-0.6,0.8-1
		v-5.4c-0.2-0.4-0.5-0.8-0.8-1.1s-0.7-0.4-1.1-0.4c-0.7,0-1.2,0.4-1.7,1.1c-0.3,0.8-0.5,1.9-0.5,3.1
		C140.5,57.3,140.5,57.7,140.5,57.7z"/>
	<path class="st1" d="M155.1,63c-0.1-0.3-0.2-0.6-0.2-0.9s-0.1-0.5-0.1-0.8c-0.3,0.5-0.7,1-1.1,1.4c-0.5,0.3-1,0.5-1.7,0.5
		c-1,0-1.8-0.3-2.3-0.9c-0.5-0.6-0.8-1.4-0.8-2.4s0.4-1.9,1.1-2.5c0.7-0.6,1.8-0.9,3.1-0.9h1.7v-1.1c0-0.7-0.1-1.2-0.4-1.6
		c-0.3-0.4-0.7-0.6-1.4-0.6c-0.5,0-0.9,0.2-1.2,0.5s-0.4,0.7-0.4,1.2h-2v-0.1c0-0.8,0.3-1.7,1-2.3c0.7-0.6,1.7-1,2.8-1
		s2,0.3,2.7,0.9c0.7,0.6,1,1.6,1,2.8v5.2c0,0.4,0,0.8,0.1,1.2c0.1,0.4,0.1,0.8,0.2,1.1h-2.2V63z M152.4,61.5c0.5,0,1-0.2,1.6-0.5
		c0.4-0.3,0.7-0.8,0.8-1.2v-2H153c-0.6,0-1.1,0.2-1.6,0.6c-0.4,0.4-0.5,0.9-0.5,1.5c0,0.5,0.1,0.9,0.4,1.2
		C151.6,61.4,151.8,61.5,152.4,61.5z"/>
	<path class="st1" d="M161.1,51.7l0.1,1.6c0.3-0.5,0.7-0.9,1.1-1.2c0.5-0.3,1-0.4,1.7-0.4c0.6,0,1.1,0.2,1.6,0.5
		c0.4,0.3,0.8,0.8,1,1.6c0.3-0.6,0.7-1.1,1.1-1.6c0.5-0.4,1-0.5,1.8-0.5c0.9,0,1.8,0.4,2.3,1.1c0.5,0.8,0.8,2,0.8,3.6V63h-2.1v-6.7
		c0-1.1-0.1-2-0.4-2.4c-0.3-0.4-0.7-0.7-1.2-0.7s-0.9,0.2-1.2,0.5c-0.3,0.3-0.5,0.8-0.7,1.5c0,0.1,0,0.2,0,0.4c0,0.1,0,0.3,0,0.4v7
		h-2.1v-6.7c0-1.1-0.1-2-0.4-2.4c-0.3-0.5-0.7-0.7-1.2-0.7c-0.4,0-0.8,0.1-1.1,0.4c-0.3,0.3-0.5,0.6-0.7,1V63h-2.1V51.7H161.1z"/>
	<path class="st1" d="M181,63c-0.1-0.3-0.2-0.6-0.2-0.9s-0.1-0.5-0.1-0.8c-0.3,0.5-0.7,1-1.1,1.4c-0.4,0.3-1,0.5-1.7,0.5
		c-1,0-1.8-0.3-2.3-0.9c-0.5-0.6-0.8-1.4-0.8-2.4s0.4-1.9,1.1-2.5c0.7-0.6,1.8-0.9,3.1-0.9h1.7v-1.1c0-0.7-0.1-1.2-0.4-1.6
		c-0.3-0.4-0.7-0.6-1.4-0.6c-0.5,0-0.9,0.2-1.2,0.5c-0.3,0.3-0.4,0.7-0.4,1.2h-2v-0.1c0-0.8,0.3-1.7,1-2.3c0.7-0.6,1.7-1,2.8-1
		c1.1,0,2,0.3,2.7,0.9c0.7,0.6,1,1.6,1,2.8v5.2c0,0.4,0,0.8,0.1,1.2c0.1,0.4,0.1,0.8,0.2,1.1H181V63z M178.3,61.5
		c0.5,0,1-0.2,1.6-0.5c0.4-0.3,0.7-0.8,0.8-1.2v-2h-1.8c-0.6,0-1.1,0.2-1.6,0.6c-0.4,0.4-0.5,0.9-0.5,1.5c0,0.5,0.1,0.9,0.4,1.2
		S177.9,61.5,178.3,61.5z"/>
	<path class="st1" d="M184.8,57.4c0-1.8,0.3-3.2,0.9-4.3c0.6-1,1.6-1.7,2.8-1.7c0.6,0,1,0.1,1.6,0.4c0.4,0.3,0.8,0.7,1.1,1.1
		l0.2-1.5h1.8v11.2c0,1.5-0.4,2.5-1.1,3.3c-0.7,0.8-1.9,1.1-3.2,1.1c-0.5,0-0.9-0.1-1.6-0.2c-0.6-0.1-1-0.3-1.5-0.6l0.3-1.6
		c0.4,0.2,0.8,0.4,1.2,0.5c0.4,0.1,0.9,0.2,1.4,0.2c0.8,0,1.4-0.2,1.8-0.7c0.4-0.4,0.5-1.1,0.5-2.1v-1.1c-0.3,0.4-0.6,0.7-1,0.9
		c-0.4,0.2-0.9,0.3-1.5,0.3c-1.1,0-2.1-0.5-2.7-1.5c-0.6-1-0.9-2.3-0.9-4v-0.1H184.8z M186.9,57.7c0,1.1,0.2,2.1,0.5,2.8
		c0.3,0.7,0.9,1,1.7,1c0.5,0,0.8-0.1,1.1-0.3c0.3-0.2,0.6-0.6,0.8-1v-5.5c-0.2-0.4-0.4-0.8-0.8-1c-0.3-0.3-0.7-0.4-1.1-0.4
		c-0.7,0-1.2,0.4-1.7,1.1c-0.3,0.8-0.5,1.9-0.5,3.1V57.7z"/>
	<path class="st1" d="M199.6,63.2c-1.4,0-2.5-0.5-3.2-1.6c-0.8-1-1.1-2.4-1.1-4v-0.5c0-1.7,0.4-3,1.1-4.1c0.7-1,1.8-1.6,3.1-1.6
		c1.2,0,2.3,0.4,2.9,1.4c0.6,0.9,1,2.1,1,3.6v1.1h-6c0,1.1,0.2,2.1,0.6,2.8c0.4,0.7,1,1,1.9,1c0.6,0,1.1-0.1,1.6-0.3
		c0.4-0.2,0.8-0.4,1.2-0.8l0.7,1.4c-0.4,0.4-0.8,0.7-1.5,0.9C201.2,63,200.4,63.2,199.6,63.2z M199.5,53.2c-0.6,0-1,0.3-1.5,0.8
		c-0.3,0.5-0.6,1.4-0.6,2.2h4V56c0-0.8-0.1-1.6-0.4-2.1C200.5,53.4,200.1,53.2,199.5,53.2z"/>
</g>
<g>
	<path class="st1" d="M268.9,73.5c-8.8,0.7-17.7,1.5-26.6,2.2c-0.8-10.8-1.8-21.5-2.6-32.4c8.9-0.7,17.9-1.5,26.8-2.2
		c-0.5,4.4-1,8.7-1.6,13.2c1,0.4,2.2,0.9,3.3,1.4c-1.4,3.3-2.7,6.7-4.1,10.1c0.5,0.3,1,0.6,1.6,0.9c1,0.6,2.1,1.1,3.1,1.8
		c0.2,0.1,0.3,0.4,0.3,0.5C269.3,70.5,269.1,71.9,268.9,73.5z M261.3,48.1c-2.2,0.2-4.4,0.3-6.5,0.5c0.2,2.2,0.3,4.3,0.5,6.5
		c2.2-0.2,4.3-0.3,6.5-0.5C261.6,52.3,261.5,50.3,261.3,48.1z M252.2,55.4c-0.2-2.2-0.3-4.4-0.5-6.5c-2.2,0.2-4.3,0.3-6.5,0.5
		c0.2,2.2,0.3,4.4,0.5,6.5C247.9,55.7,250,55.5,252.2,55.4z M246.7,68.8c2.2-0.2,4.3-0.3,6.5-0.5c-0.2-2.2-0.3-4.3-0.5-6.5
		c-2.2,0.2-4.4,0.3-6.5,0.5C246.3,64.5,246.5,66.6,246.7,68.8z M262.9,67.4c-0.2-2.2-0.3-4.3-0.5-6.5c-2.2,0.2-4.3,0.3-6.5,0.5
		c0.2,2.2,0.3,4.4,0.5,6.5C258.6,67.9,260.7,67.6,262.9,67.4z"/>
	<path class="st1" d="M294.8,75.7c-8.2,0-16.5,0-24.8,0c0.1-0.3,0.2-0.5,0.2-0.7c0.5-1.7,1-3.3,1.7-4.9c0.2-0.5,0.1-0.8-0.4-1.2
		c-1.5-0.9-2.8-1.9-4.3-2.8c1.7-3.2,3.2-6.5,4.9-9.8c-0.9-0.4-1.8-0.9-2.7-1.4c-0.4-0.2-0.5-0.4-0.4-0.8c0.7-3.4,1.4-6.9,2.1-10.2
		c0.1-0.4,0.2-0.5,0.6-0.5c7.5,0,15.1,0,22.6,0c0.5,0,0.6,0.1,0.6,0.6c0,10.4,0,20.9,0,31.3C294.8,75.2,294.8,75.4,294.8,75.7z
		 M273.7,49.7c0,2.2,0,4.3,0,6.3c2.2,0,4.3,0,6.3,0c0-2.2,0-4.3,0-6.3C278,49.7,275.9,49.7,273.7,49.7z M289.9,56.2
		c0-2.2,0-4.3,0-6.5c-2.2,0-4.3,0-6.5,0c0,2.2,0,4.3,0,6.5C285.7,56.2,287.7,56.2,289.9,56.2z M273.7,69.1c2.2,0,4.3,0,6.5,0
		c0-2.2,0-4.3,0-6.3c-2.2,0-4.3,0-6.5,0C273.7,64.8,273.7,66.9,273.7,69.1z M283.5,69.1c2.2,0,4.3,0,6.5,0c0-2.2,0-4.3,0-6.3
		c-2.2,0-4.3,0-6.5,0C283.5,64.8,283.5,66.9,283.5,69.1z"/>
	<path class="st1" d="M266.8,39.4c-9.6,0.7-19,1.6-28.7,2.3c0.1-0.2,0.2-0.4,0.3-0.5c1.8-2.1,3.4-4.1,5.2-6.1
		c0.2-0.2,0.6-0.4,0.9-0.4c4.5-0.4,9.1-0.7,13.5-1.1c2.8-0.2,5.7-0.4,8.5-0.6c0.2,0,0.5,0,0.8,0C267.2,35.2,267,37.3,266.8,39.4z"/>
	<path class="st1" d="M270.8,41.5c0.4-2.2,0.8-4.3,1.2-6.5c0.2,0,0.4,0,0.7,0c5.5,0,11,0,16.7,0c0.3,0,0.6,0.1,0.8,0.2
		c2,2,4,4,5.9,5.9c0.1,0.1,0.1,0.1,0.2,0.2C287.9,41.5,279.3,41.5,270.8,41.5z"/>
</g>
</svg>
