<?xml version="1.0" encoding="utf-8"?>
<!-- Generator: Adobe Illustrator 21.0.0, SVG Export Plug-In . SVG Version: 6.00 Build 0)  -->
<svg version="1.1" id="Capa_1" xmlns="http://www.w3.org/2000/svg" xmlns:xlink="http://www.w3.org/1999/xlink" x="0px" y="0px"
	 viewBox="0 0 322 108" style="enable-background:new 0 0 322 108;" xml:space="preserve">
<style type="text/css">
	.st0{fill:url(#SVGID_1_);}
	.st1{fill:#2366BB;}
</style>
<g>
	
		<linearGradient id="SVGID_1_" gradientUnits="userSpaceOnUse" x1="0" y1="244" x2="107.8928" y2="244" gradientTransform="matrix(1 0 0 1 0 -190)">
		<stop  offset="0" style="stop-color:#00B2F5"/>
		<stop  offset="1" style="stop-color:#383897"/>
	</linearGradient>
	<path class="st0" d="M53.9,108C24.1,108,0,83.8,0,54.1S24.1,0,53.9,0s53.9,24.2,53.9,53.9S83.7,108,53.9,108z M53.9,3.4
		C26.1,3.4,3.3,26.2,3.3,54.1s22.7,50.5,50.6,50.5s50.6-22.7,50.6-50.6S81.8,3.4,53.9,3.4z"/>
</g>
<g>
	<g>
		<g>
			<g>
				<path class="st1" d="M77.3,54.4c-1.7,0-3.1,1.4-3.1,3.1v18.7c0,1.7,1.4,3.1,3.1,3.1s3.1-1.4,3.1-3.1V57.5
					C80.5,55.8,79.1,54.4,77.3,54.4z"/>
			</g>
		</g>
		<g>
			<g>
				<path class="st1" d="M30.5,54.4c-1.7,0-3.1,1.4-3.1,3.1v18.7c0,1.7,1.4,3.1,3.1,3.1c1.7,0,3.1-1.4,3.1-3.1V57.5
					C33.6,55.8,32.2,54.4,30.5,54.4z"/>
			</g>
		</g>
		<g>
			<g>
				<path class="st1" d="M53.9,26.2c-0.9,0-1.6,0.6-1.6,1.6v3.1c0,0.9,0.6,1.6,1.6,1.6c0.9,0,1.6-0.6,1.6-1.6v-3.1
					C55.6,26.8,54.8,26.2,53.9,26.2z"/>
			</g>
		</g>
		<g>
			<g>
				<path class="st1" d="M53.9,35.5c-0.9,0-1.6,0.6-1.6,1.6v3.1c0,0.9,0.6,1.6,1.6,1.6c0.9,0,1.6-0.6,1.6-1.6v-3.1
					C55.6,36.1,54.8,35.5,53.9,35.5z"/>
			</g>
		</g>
		<g>
			<g>
				<path class="st1" d="M53.9,44.8c-0.9,0-1.6,0.6-1.6,1.6v3.1c0,0.9,0.6,1.6,1.6,1.6c0.9,0,1.6-0.6,1.6-1.6v-3.1
					C55.6,45.6,54.8,44.8,53.9,44.8z"/>
			</g>
		</g>
		<g>
			<g>
				<path class="st1" d="M38.2,32.7L36.6,30c-0.4-0.8-1.4-1-2.1-0.5c-0.8,0.4-1,1.4-0.5,2.1l1.6,2.7c0.4,0.8,1.4,1,2.1,0.5
					C38.4,34.4,38.6,33.5,38.2,32.7z"/>
			</g>
		</g>
		<g>
			<g>
				<path class="st1" d="M42.9,40.9l-1.6-2.7c-0.4-0.8-1.4-1-2.1-0.5c-0.8,0.4-1,1.4-0.5,2.1l1.6,2.7c0.4,0.8,1.4,1,2.1,0.5
					C43,42.5,43.2,41.6,42.9,40.9z"/>
			</g>
		</g>
		<g>
			<g>
				<path class="st1" d="M47.5,48.9l-1.6-2.7c-0.4-0.8-1.4-1-2.1-0.5c-0.8,0.4-1,1.4-0.5,2.1l1.6,2.7c0.4,0.8,1.4,1,2.1,0.5
					C47.7,50.6,48,49.7,47.5,48.9z"/>
			</g>
		</g>
		<g>
			<g>
				<path class="st1" d="M73.4,29.5c-0.8-0.4-1.7-0.2-2.1,0.5l-1.4,2.7c-0.4,0.8-0.2,1.7,0.5,2.1c0.8,0.4,1.7,0.2,2.1-0.5l1.6-2.7
					C74.4,30.9,74.1,29.9,73.4,29.5z"/>
			</g>
		</g>
		<g>
			<g>
				<path class="st1" d="M68.7,37.5c-0.8-0.4-1.7-0.2-2.1,0.5L65,40.8c-0.4,0.8-0.2,1.7,0.5,2.1c0.8,0.4,1.7,0.2,2.1-0.5l1.6-2.7
					C69.8,38.9,69.6,38,68.7,37.5z"/>
			</g>
		</g>
		<g>
			<g>
				<path class="st1" d="M64.1,45.7c-0.8-0.4-1.7-0.2-2.1,0.5l-1.6,2.7c-0.4,0.8-0.2,1.7,0.5,2.1c0.8,0.4,1.7,0.2,2.1-0.5l1.6-2.7
					C65,47.1,64.9,46.1,64.1,45.7z"/>
			</g>
		</g>
		<g>
			<g>
				<path class="st1" d="M58.6,57.5l-4.7,4.7l3.1,7.8l-9.3-7.8l4.2-4.2c-0.3-0.3-0.6-0.4-1.1-0.4H36.8v18.7h34.4V57.5H58.6z"/>
			</g>
		</g>
	</g>
</g>
<g>
	<path class="st1" d="M118.1,62V46.8h5c1.7,0,3,0.3,4,1.1c1,0.8,1.4,1.7,1.4,3.1c0,0.6-0.2,1.3-0.6,1.8c-0.4,0.5-1,1-1.6,1.2
		c0.9,0.2,1.6,0.6,2.1,1.3c0.5,0.6,0.8,1.5,0.8,2.4c0,1.4-0.4,2.5-1.4,3.2c-1,0.8-2.3,1.1-3.9,1.1h-5.8V62z M120.5,53.2h2.8
		c0.8,0,1.4-0.2,1.8-0.5s0.6-0.9,0.6-1.6c0-0.8-0.2-1.3-0.8-1.7c-0.5-0.4-1.2-0.5-2.1-0.5h-2.6v4.4H120.5z M120.5,55V60h3.2
		c0.9,0,1.6-0.2,2-0.6s0.8-1,0.8-1.7c0-0.9-0.2-1.4-0.6-1.9c-0.4-0.5-1.1-0.6-1.8-0.6C124.1,55,120.5,55,120.5,55z"/>
	<path class="st1" d="M138.5,60.4c-0.3,0.6-0.9,1.1-1.4,1.4c-0.5,0.3-1.2,0.5-1.9,0.5c-1.2,0-2.1-0.4-2.9-1.2
		c-0.8-0.8-1.1-1.9-1.1-3.6v-6.8h2.6v6.8c0,1,0.1,1.7,0.4,2c0.3,0.3,0.9,0.6,1.5,0.6s1.2-0.1,1.5-0.3s0.8-0.5,1-1v-8.2h2.6v11.4
		h-2.3L138.5,60.4z"/>
	<path class="st1" d="M149.3,53h-1.1c-0.5,0-0.9,0.1-1.3,0.3c-0.4,0.2-0.5,0.5-0.8,0.9V62h-2.6V50.6h2.4l0.2,1.6
		c0.3-0.5,0.6-1.1,1.1-1.4s1-0.5,1.6-0.5c0.1,0,0.3,0,0.4,0s0.2,0.1,0.3,0.1L149.3,53z"/>
	<path class="st1" d="M157.4,58.9c0-0.4-0.2-0.8-0.5-1s-1-0.5-1.8-0.6c-1.4-0.3-2.4-0.6-3.1-1.2c-0.6-0.5-1.1-1.3-1.1-2.1
		c0-1,0.4-1.7,1.2-2.5c0.8-0.8,1.8-1,3.2-1c1.4,0,2.5,0.3,3.3,1.1c0.9,0.8,1.2,1.5,1.2,2.6v0.1h-2.5c0-0.4-0.2-0.9-0.5-1.2
		s-0.9-0.5-1.5-0.5c-0.6,0-1.1,0.1-1.4,0.4c-0.3,0.3-0.4,0.6-0.4,1s0.1,0.8,0.4,1c0.3,0.2,1,0.4,1.8,0.6c1.4,0.3,2.5,0.8,3.2,1.3
		c0.8,0.5,1.1,1.3,1.1,2.1c0,1.1-0.4,1.8-1.3,2.5c-0.9,0.6-1.9,1-3.3,1c-1.5,0-2.7-0.4-3.5-1.2c-0.9-0.8-1.3-1.6-1.2-2.6v-0.1h2.4
		c0,0.6,0.2,1.2,0.8,1.4c0.5,0.2,1,0.4,1.6,0.4c0.6,0,1.2-0.1,1.5-0.4C157.2,59.6,157.4,59.3,157.4,58.9z"/>
	<path class="st1" d="M165.4,47.9v2.8h2v1.9h-2v6.2c0,0.4,0.1,0.8,0.3,1s0.4,0.3,0.9,0.3c0.1,0,0.3,0,0.4,0s0.2-0.1,0.4-0.1l0.3,1.8
		c-0.2,0.1-0.4,0.2-0.8,0.3c-0.3,0.1-0.6,0.1-1,0.1c-1,0-1.7-0.3-2.3-0.9c-0.5-0.5-0.8-1.4-0.8-2.6v-6.2h-1.7v-1.9h1.7v-2.8H165.4z"
		/>
	<path class="st1" d="M177.8,56.2V62h-2.6V46.8h6c1.7,0,3,0.4,4,1.3c1,0.9,1.4,2,1.4,3.4c0,1.4-0.4,2.6-1.4,3.4
		c-1,0.9-2.3,1.3-4,1.3H177.8z M177.8,54.2h3.4c1,0,1.6-0.2,2.1-0.8c0.5-0.5,0.8-1.2,0.8-1.9c0-0.8-0.2-1.4-0.8-1.9
		c-0.5-0.5-1.2-0.8-2.1-0.8h-3.4V54.2z"/>
	<path class="st1" d="M191.5,47.8H189v-2.3h2.6V47.8z M191.5,62H189V50.6h2.6V62z"/>
	<path class="st1" d="M204.3,56.7c0,1.6-0.4,3-1.2,4c-0.8,1-1.8,1.5-3.2,1.5c-0.6,0-1.2-0.1-1.7-0.3c-0.5-0.2-1-0.5-1.3-1v5.5h-2.6
		V50.6h2.1l0.2,1.4c0.3-0.5,0.8-1,1.3-1.2c0.5-0.2,1.1-0.4,1.8-0.4c1.4,0,2.5,0.5,3.2,1.6c0.8,1.1,1.2,2.6,1.2,4.4v0.3H204.3z
		 M201.7,56.5c0-1.2-0.2-2.1-0.6-2.8c-0.4-0.6-1.1-1.1-1.9-1.1c-0.5,0-1,0.1-1.4,0.3c-0.3,0.2-0.6,0.5-0.9,1v5.1
		c0.2,0.4,0.5,0.8,0.9,1s0.9,0.3,1.4,0.3c0.9,0,1.5-0.3,1.9-1c0.4-0.6,0.6-1.5,0.6-2.5V56.5z"/>
	<path class="st1" d="M211.4,62.2c-1.6,0-2.9-0.5-3.9-1.6c-1-1.1-1.4-2.4-1.4-4.1v-0.4c0-1.6,0.4-3,1.4-4.1c1-1.1,2.1-1.6,3.5-1.6
		c1.5,0,2.7,0.4,3.5,1.4s1.2,2.1,1.2,3.8v1.5h-7.1l0,0c0,0.9,0.3,1.6,0.8,2.3c0.4,0.6,1.2,0.9,2,0.9c0.6,0,1.3-0.1,1.7-0.2
		c0.4-0.1,1-0.4,1.4-0.8l0.9,1.7c-0.4,0.4-1,0.8-1.7,1C213,62.1,212.4,62.2,211.4,62.2z M211.1,52.4c-0.6,0-1.2,0.2-1.5,0.8
		c-0.3,0.5-0.6,1.2-0.8,1.9l0,0h4.5v-0.2c0-0.8-0.2-1.3-0.5-1.7C212.5,52.8,211.8,52.4,211.1,52.4z"/>
</g>
</svg>
