<?xml version="1.0" encoding="utf-8"?>
<!-- Generator: Adobe Illustrator 21.0.0, SVG Export Plug-In . SVG Version: 6.00 Build 0)  -->
<svg version="1.1" id="Capa_1" xmlns="http://www.w3.org/2000/svg" xmlns:xlink="http://www.w3.org/1999/xlink" x="0px" y="0px"
	 viewBox="0 0 322 108" style="enable-background:new 0 0 322 108;" xml:space="preserve">
<style type="text/css">
	.st0{fill:url(#SVGID_1_);}
	.st1{fill:#2366BB;}
</style>
<g>
	
		<linearGradient id="SVGID_1_" gradientUnits="userSpaceOnUse" x1="2.102" y1="243.3447" x2="107.187" y2="243.3447" gradientTransform="matrix(1 0 0 1 0 -190)">
		<stop  offset="0" style="stop-color:#00B2F5"/>
		<stop  offset="1" style="stop-color:#383897"/>
	</linearGradient>
	<path class="st0" d="M54.6,105.9c-29,0-52.5-23.6-52.5-52.5S25.6,0.8,54.6,0.8s52.5,23.6,52.5,52.5S83.6,105.9,54.6,105.9z
		 M54.6,4.1C27.5,4.1,5.3,26.2,5.3,53.4s22.1,49.2,49.3,49.2s49.3-22.1,49.3-49.3S81.8,4.1,54.6,4.1z"/>
</g>
<g>
	<path class="st1" d="M84.2,76.2c0,1.7-1.4,2.9-2.9,2.9H35c-1.7,0-2.9-1.4-2.9-2.9V30c0-1.7,1.4-2.9,2.9-2.9c1.6,0,2.9,1.4,2.9,2.9
		v43.2H45c-0.1-0.3-0.2-0.6-0.2-0.9V43.8c0-1.7,1.4-2.9,2.9-2.9c1.6,0,2.9,1.4,2.9,2.9v28.5c0,0.3-0.1,0.6-0.2,0.9h5.7
		c-0.1-0.3-0.2-0.6-0.2-0.9V53.6c0-1.7,1.4-2.9,2.9-2.9c1.6,0,2.9,1.4,2.9,2.9v18.7c0,0.3-0.1,0.6-0.2,0.9h5.7
		c-0.1-0.3-0.2-0.6-0.2-0.9v-9.4c0-1.7,1.4-2.9,2.9-2.9c1.6,0,2.9,1.4,2.9,2.9v9.4c0,0.3-0.1,0.6-0.2,0.9h8
		C82.8,73.2,84.2,74.6,84.2,76.2z M74.6,51.8h-6c-1.3,0-2.2,0.9-2.2,2.2c0,1.3,0.9,2.2,2.2,2.2h11.8c1.3,0,2.2-0.9,2.2-2.2V42.2
		c0-1.3-0.9-2.2-2.2-2.2s-2.2,0.9-2.2,2.2v7L54,24.9c-0.8-0.8-2.3-0.8-3.1,0s-0.8,2.3,0,3.1L74.6,51.8z"/>
</g>
<g>
	<path class="st1" d="M116.8,61.9V47.8h4.7c1.6,0,2.8,0.3,3.7,0.9c0.8,0.6,1.4,1.6,1.4,2.9c0,0.6-0.2,1.3-0.5,1.7
		c-0.3,0.4-0.8,0.8-1.6,1.1c0.8,0.2,1.5,0.6,2,1.3c0.4,0.6,0.6,1.4,0.6,2.2c0,1.4-0.4,2.3-1.3,3c-0.8,0.7-2.1,1-3.6,1h-5.4V61.9z
		 M119.2,53.7h2.6c0.7,0,1.4-0.2,1.8-0.5c0.4-0.3,0.6-0.8,0.6-1.5c0-0.7-0.2-1.3-0.6-1.6c-0.4-0.3-1.1-0.5-2-0.5h-2.3v4.1H119.2z
		 M119.2,55.5V60h2.9c0.8,0,1.5-0.2,1.9-0.5c0.4-0.4,0.6-0.9,0.6-1.6c0-0.7-0.2-1.4-0.5-1.8c-0.4-0.4-0.9-0.6-1.8-0.6H119.2z"/>
	<path class="st1" d="M135.7,60.3c-0.3,0.5-0.7,0.9-1.3,1.3s-1,0.4-1.8,0.4c-1.1,0-2-0.3-2.6-1c-0.6-0.7-0.9-1.9-0.9-3.3v-6.3h2.3
		v6.3c0,0.9,0.1,1.6,0.4,1.9c0.3,0.4,0.7,0.5,1.4,0.5c0.5,0,1-0.1,1.5-0.3c0.4-0.2,0.7-0.5,0.9-0.8v-7.4h2.4v10.4h-2.1L135.7,60.3z"
		/>
	<path class="st1" d="M146.4,59c0-0.3-0.1-0.6-0.4-0.9c-0.3-0.2-0.9-0.4-1.8-0.6c-1.3-0.3-2.2-0.6-2.8-1.1c-0.6-0.5-0.9-1.1-0.9-2
		s0.4-1.7,1.1-2.3c0.7-0.6,1.7-0.9,2.9-0.9s2.3,0.3,3,0.9c0.7,0.6,1.1,1.5,1,2.3v0.1h-2.3c0-0.4-0.2-0.8-0.5-1.1
		c-0.3-0.3-0.7-0.4-1.4-0.4c-0.5,0-1,0.1-1.3,0.4c-0.3,0.2-0.4,0.5-0.4,0.9s0.1,0.6,0.4,0.8c0.3,0.2,0.8,0.4,1.7,0.6
		c1.4,0.3,2.3,0.6,2.9,1.1c0.6,0.5,0.9,1.1,0.9,2c0,0.9-0.4,1.7-1.1,2.3c-0.7,0.6-1.8,0.8-3,0.8c-1.4,0-2.4-0.3-3.2-1
		c-0.8-0.7-1.1-1.5-1.1-2.4v-0.1h2.2c0,0.6,0.2,1,0.6,1.4s0.9,0.4,1.5,0.4c0.6,0,1-0.1,1.4-0.3C146,59.7,146.4,59.4,146.4,59z"/>
	<path class="st1" d="M153.3,48.8h-2.4v-2.1h2.4V48.8z M153.3,61.9h-2.4V51.4h2.4V61.9z"/>
	<path class="st1" d="M158.1,51.4l0.1,1.5c0.3-0.5,0.7-0.9,1.3-1.3s1.1-0.4,1.8-0.4c1,0,2,0.3,2.5,1c0.6,0.6,0.9,1.7,0.9,3.1v6.5
		h-2.4v-6.6c0-0.8-0.2-1.4-0.5-1.7c-0.3-0.3-0.8-0.5-1.5-0.5c-0.4,0-0.8,0.1-1.3,0.3c-0.3,0.2-0.6,0.5-0.9,0.8v7.6h-2.4V51.4H158.1z
		"/>
	<path class="st1" d="M171.6,62.1c-1.5,0-2.7-0.5-3.6-1.5c-0.8-0.9-1.4-2.2-1.4-3.8v-0.4c0-1.6,0.4-2.8,1.4-3.8
		c0.9-0.9,2-1.5,3.3-1.5c1.5,0,2.5,0.4,3.2,1.3c0.7,0.8,1.1,2,1.1,3.4v1.4h-6.6l0,0c0,0.8,0.3,1.5,0.7,2.1c0.4,0.5,1,0.8,1.9,0.8
		c0.6,0,1.1-0.1,1.7-0.2c0.5-0.1,0.8-0.4,1.4-0.6l0.6,1.5c-0.4,0.3-0.9,0.6-1.6,0.8C173.3,62,172.6,62.1,171.6,62.1z M171.4,53.1
		c-0.6,0-1,0.2-1.5,0.7c-0.4,0.4-0.6,1-0.7,1.8l0,0h4.2v-0.2c0-0.6-0.2-1.3-0.5-1.7C172.6,53.3,172.1,53.1,171.4,53.1z"/>
	<path class="st1" d="M183.5,59c0-0.3-0.1-0.6-0.4-0.9c-0.3-0.2-0.9-0.4-1.8-0.6c-1.3-0.3-2.2-0.6-2.8-1.1c-0.6-0.5-0.9-1.1-0.9-2
		s0.4-1.7,1.1-2.3c0.7-0.6,1.7-0.9,2.9-0.9s2.3,0.3,3,0.9c0.7,0.6,1.1,1.5,1,2.3v0.1h-2.3c0-0.4-0.2-0.8-0.5-1.1
		c-0.3-0.3-0.7-0.4-1.4-0.4c-0.5,0-1,0.1-1.3,0.4c-0.3,0.2-0.4,0.5-0.4,0.9s0.1,0.6,0.4,0.8c0.3,0.2,0.8,0.4,1.7,0.6
		c1.4,0.3,2.3,0.6,2.9,1.1c0.6,0.5,0.9,1.1,0.9,2c0,0.9-0.4,1.7-1.1,2.3c-0.7,0.6-1.8,0.8-3,0.8c-1.4,0-2.4-0.3-3.2-1
		c-0.8-0.7-1.1-1.5-1.1-2.4v-0.1h2.2c0,0.6,0.2,1,0.6,1.4c0.4,0.3,0.9,0.4,1.5,0.4c0.6,0,1-0.1,1.4-0.3
		C183.4,59.7,183.5,59.4,183.5,59z"/>
	<path class="st1" d="M193.9,59c0-0.3-0.1-0.6-0.4-0.9c-0.3-0.2-0.9-0.4-1.8-0.6c-1.3-0.3-2.2-0.6-2.8-1.1c-0.6-0.5-0.9-1.1-0.9-2
		s0.4-1.7,1.1-2.3c0.7-0.6,1.7-0.9,2.9-0.9s2.3,0.3,3,0.9c0.7,0.6,1.1,1.5,1,2.3v0.1h-2.3c0-0.4-0.2-0.8-0.5-1.1
		c-0.3-0.3-0.7-0.4-1.4-0.4c-0.5,0-1,0.1-1.3,0.4c-0.3,0.2-0.4,0.5-0.4,0.9s0.1,0.6,0.4,0.8c0.3,0.2,0.8,0.4,1.7,0.6
		c1.4,0.3,2.3,0.6,2.9,1.1c0.6,0.5,0.9,1.1,0.9,2c0,0.9-0.4,1.7-1.1,2.3c-0.7,0.6-1.8,0.8-3,0.8c-1.4,0-2.4-0.3-3.2-1
		c-0.8-0.7-1.1-1.5-1.1-2.4v-0.1h2.2c0,0.6,0.2,1,0.6,1.4s0.9,0.4,1.5,0.4c0.6,0,1-0.1,1.4-0.3C193.7,59.7,193.9,59.4,193.9,59z"/>
	<path class="st1" d="M206,61.9h-2.3V47.8h2.4v14.1H206z"/>
	<path class="st1" d="M211.1,51.4l0.1,1.5c0.3-0.5,0.7-0.9,1.3-1.3s1.1-0.4,1.8-0.4c1,0,2,0.3,2.5,1c0.6,0.6,0.9,1.7,0.9,3.1v6.5
		h-2.4v-6.6c0-0.8-0.2-1.4-0.5-1.7c-0.3-0.3-0.8-0.5-1.5-0.5c-0.4,0-0.8,0.1-1.3,0.3c-0.3,0.2-0.6,0.5-0.9,0.8v7.6h-2.2V51.4H211.1z
		"/>
	<path class="st1" d="M223.1,48.8v2.6h1.9v1.8h-1.9v5.7c0,0.4,0.1,0.7,0.3,0.9c0.2,0.2,0.4,0.3,0.7,0.3c0.1,0,0.2,0,0.4,0
		c0.1,0,0.2-0.1,0.3-0.1l0.2,1.8c-0.2,0.1-0.4,0.2-0.7,0.2c-0.3,0.1-0.5,0.1-0.8,0.1c-0.8,0-1.6-0.2-2-0.7c-0.4-0.5-0.7-1.3-0.7-2.4
		v-5.7h-1.6v-1.9h1.6v-2.5h2.3V48.8z"/>
	<path class="st1" d="M231.6,62.1c-1.5,0-2.7-0.5-3.6-1.5c-0.8-0.9-1.4-2.2-1.4-3.8v-0.4c0-1.6,0.4-2.8,1.4-3.8c0.8-1,2-1.5,3.2-1.5
		c1.5,0,2.5,0.4,3.2,1.3c0.7,0.8,1.1,2,1.1,3.4v1.4h-6.6l0,0c0,0.8,0.3,1.5,0.7,2.1c0.4,0.5,1,0.8,1.9,0.8c0.6,0,1.1-0.1,1.7-0.2
		c0.4-0.1,0.9-0.4,1.4-0.6l0.7,1.6c-0.4,0.3-0.9,0.6-1.6,0.8C233.3,62,232.4,62.1,231.6,62.1z M231.3,53.1c-0.6,0-1,0.2-1.5,0.7
		c-0.4,0.5-0.6,1-0.7,1.8l0,0h4.2v-0.2c0-0.6-0.2-1.3-0.5-1.7C232.5,53.3,232,53.1,231.3,53.1z"/>
	<path class="st1" d="M242.9,53.5h-1c-0.4,0-0.8,0.1-1.1,0.3s-0.5,0.4-0.7,0.8V62h-2.4V51.4h2.2l0.1,1.6c0.3-0.5,0.6-0.9,1-1.3
		c0.4-0.3,0.9-0.4,1.5-0.4c0.1,0,0.3,0,0.4,0c0.1,0,0.2,0,0.3,0.1L242.9,53.5z"/>
	<path class="st1" d="M249.7,53.5h-1c-0.4,0-0.8,0.1-1.1,0.3c-0.3,0.2-0.5,0.4-0.7,0.8V62h-2.3V51.4h2.2l0.1,1.6
		c0.3-0.5,0.6-0.9,1-1.3s0.9-0.4,1.5-0.4c0.1,0,0.3,0,0.4,0c0.1,0,0.2,0,0.3,0.1L249.7,53.5z"/>
	<path class="st1" d="M257.9,60.3c-0.3,0.5-0.7,0.9-1.3,1.3c-0.5,0.3-1,0.4-1.8,0.4c-1.1,0-2-0.3-2.6-1s-0.9-1.9-0.9-3.3v-6.3h2.3
		v6.3c0,0.9,0.1,1.6,0.4,1.9c0.3,0.4,0.7,0.5,1.4,0.5c0.5,0,1-0.1,1.5-0.3c0.4-0.2,0.7-0.5,0.9-0.8v-7.4h2.4v10.4h-2.1L257.9,60.3z"
		/>
	<path class="st1" d="M271.8,56.9c0,1.6-0.3,2.7-1,3.7c-0.7,0.9-1.7,1.4-3,1.4c-0.6,0-1.1-0.1-1.6-0.3c-0.4-0.2-0.8-0.5-1.1-0.9v5.1
		h-2.4V51.4h2l0.2,1.4c0.3-0.5,0.7-0.8,1.3-1.1c0.5-0.2,1-0.4,1.7-0.4c1.3,0,2.3,0.5,3,1.6c0.7,1,1,2.4,1,4.1L271.8,56.9L271.8,56.9
		z M269.4,56.7c0-1-0.2-2-0.6-2.6c-0.4-0.7-1-1-1.8-1c-0.5,0-0.9,0.1-1.3,0.3c-0.3,0.2-0.6,0.5-0.8,0.8v4.7c0.2,0.4,0.5,0.6,0.8,0.8
		c0.3,0.2,0.7,0.3,1.3,0.3c0.8,0,1.4-0.3,1.8-0.8c0.4-0.6,0.6-1.4,0.6-2.3V56.7z"/>
	<path class="st1" d="M276.7,48.8v2.6h1.9v1.8h-1.9v5.7c0,0.4,0.1,0.7,0.3,0.9c0.2,0.2,0.4,0.3,0.7,0.3c0.1,0,0.2,0,0.4,0
		c0.1,0,0.2-0.1,0.3-0.1l0.2,1.8c-0.2,0.1-0.4,0.2-0.7,0.2c-0.3,0.1-0.5,0.1-0.8,0.1c-0.8,0-1.6-0.2-2-0.7c-0.4-0.5-0.7-1.3-0.7-2.4
		v-5.7h-1.6v-1.9h1.6v-2.5h2.3V48.8z"/>
	<path class="st1" d="M283.2,48.8h-2.4v-2.1h2.4V48.8z M283.2,61.9h-2.4V51.4h2.4V61.9z"/>
	<path class="st1" d="M285.5,56.5c0-1.6,0.4-2.8,1.3-3.9c0.8-1,2.1-1.5,3.6-1.5c1.5,0,2.7,0.5,3.6,1.5c0.8,1,1.3,2.3,1.3,3.9v0.2
		c0,1.6-0.4,2.8-1.3,3.9c-0.8,0.9-2,1.5-3.6,1.5c-1.5,0-2.7-0.5-3.6-1.5c-0.8-1-1.3-2.3-1.3-3.9V56.5z M287.8,56.7
		c0,1,0.2,1.9,0.6,2.5s1,0.9,1.9,0.9c0.8,0,1.5-0.3,1.9-0.9c0.4-0.6,0.6-1.5,0.6-2.5v-0.2c0-1-0.2-1.8-0.6-2.5
		c-0.4-0.6-1-0.9-1.9-0.9c-0.8,0-1.5,0.3-1.9,0.9s-0.6,1.5-0.6,2.5V56.7z"/>
	<path class="st1" d="M299.3,51.4l0.1,1.5c0.3-0.5,0.7-0.9,1.3-1.3c0.5-0.3,1.1-0.4,1.8-0.4c1,0,2,0.3,2.5,1
		c0.6,0.6,0.9,1.7,0.9,3.1v6.5h-2.4v-6.6c0-0.8-0.2-1.4-0.5-1.7s-0.8-0.5-1.5-0.5c-0.4,0-0.8,0.1-1.3,0.3c-0.3,0.2-0.6,0.5-0.9,0.8
		v7.6h-2.4V51.4H299.3z"/>
</g>
</svg>
