<?xml version="1.0" encoding="utf-8"?>
<!-- Generator: Adobe Illustrator 21.0.0, SVG Export Plug-In . SVG Version: 6.00 Build 0)  -->
<svg version="1.1" id="Capa_1" xmlns="http://www.w3.org/2000/svg" xmlns:xlink="http://www.w3.org/1999/xlink" x="0px" y="0px"
	 viewBox="0 0 322 108" style="enable-background:new 0 0 322 108;" xml:space="preserve">
<style type="text/css">
	.st0{fill:url(#SVGID_1_);}
	.st1{fill:#2366BB;}
</style>
<g>
	
		<linearGradient id="SVGID_1_" gradientUnits="userSpaceOnUse" x1="214.1393" y1="-675.9597" x2="322" y2="-675.9597" gradientTransform="matrix(1 0 0 -1 0 -621.89)">
		<stop  offset="0" style="stop-color:#00B2F5"/>
		<stop  offset="1" style="stop-color:#383897"/>
	</linearGradient>
	<path class="st0" d="M268.1,108c-29.8,0-53.9-24.2-53.9-53.9s24.2-53.9,53.9-53.9c29.8,0,53.9,24.2,53.9,53.9S297.9,108,268.1,108z
		 M268.1,3.5c-27.9,0-50.6,22.7-50.6,50.6s22.7,50.6,50.6,50.6c27.9,0,50.6-22.7,50.6-50.6S295.9,3.5,268.1,3.5z"/>
</g>
<g>
	<g>
		<path class="st1" d="M292.9,60.6c-0.8-10-5.4-16.2-9.5-21.8c-3.8-5.1-7.1-9.5-7.1-16c0-0.5-0.3-1-0.8-1.3
			c-0.4-0.2-1.1-0.2-1.4,0.1c-6.1,4.4-11.3,11.8-13.1,18.9c-1.3,4.9-1.4,10.5-1.4,14.2c-5.7-1.2-7-9.6-7-9.8
			c-0.1-0.4-0.3-0.9-0.8-1.1s-0.9-0.2-1.3,0c-0.3,0.1-7.3,3.8-7.7,17.9c0,0.4,0,1,0,1.4c0,13.8,11.3,25.1,25.1,25.1c0,0,0,0,0.1,0
			l0,0c13.8,0,25-11.3,25-25.1C293.2,62.5,292.9,60.6,292.9,60.6z M268.1,85.5c-4.6,0-8.4-4-8.4-8.9c0-0.2,0-0.3,0-0.5
			c0.1-2,0.4-3.4,0.9-4.4c0.9,1.7,2.3,3.3,4.6,3.3c0.8,0,1.4-0.6,1.4-1.4c0-1.9,0-4.3,0.5-6.3c0.4-1.8,1.5-3.8,2.8-5.4
			c0.6,2,1.7,3.6,2.9,5.3c1.6,2.3,3.3,4.6,3.5,8.7c0,0.2,0,0.4,0,0.8C276.4,81.5,272.7,85.5,268.1,85.5z"/>
	</g>
</g>
<g>
	<path class="st1" d="M86,54.3h-6.6v6.5h-2.6V45.6h10.3v2h-7.7v4.6H86V54.3z"/>
	<path class="st1" d="M91.6,46.7H89v-2.3h2.6V46.7z M91.6,60.8H89V49.5h2.6V60.8z"/>
	<path class="st1" d="M100.1,51.8H99c-0.5,0-0.9,0.1-1.3,0.3S97.2,52.7,97,53v7.8h-2.6V49.5h2.4l0.2,1.6c0.3-0.5,0.6-1.1,1.1-1.4
		s1-0.5,1.6-0.5c0.1,0,0.3,0,0.4,0s0.2,0.1,0.3,0.1L100.1,51.8z"/>
	<path class="st1" d="M106.7,61c-1.6,0-2.9-0.5-3.9-1.6s-1.4-2.4-1.4-4.1v-0.4c0-1.6,0.4-3,1.4-4.1s2.1-1.6,3.5-1.6
		c1.5,0,2.7,0.4,3.5,1.4c0.9,1,1.2,2.1,1.2,3.8v1.5H104l0,0c0,0.9,0.3,1.6,0.8,2.3c0.5,0.5,1.2,0.9,2,0.9c0.6,0,1.3-0.1,1.7-0.2
		s1-0.4,1.4-0.8l0.9,1.7c-0.4,0.4-1,0.8-1.7,1C108.3,60.9,107.7,61,106.7,61z M106.4,51.3c-0.6,0-1.2,0.2-1.5,0.8s-0.6,1.2-0.8,1.9
		l0,0h4.5v-0.2c0-0.8-0.2-1.3-0.5-1.7S107.1,51.3,106.4,51.3z"/>
	<path class="st1" d="M118.8,60.8V45.6h4.9c1.9,0,3.5,0.6,4.7,1.8c1.2,1.2,1.8,2.8,1.8,4.6v2.4c0,1.9-0.6,3.4-1.8,4.6
		c-1.2,1.2-2.8,1.8-4.7,1.8C123.8,60.8,118.8,60.8,118.8,60.8z M121.4,47.6v11.2h2.4c1.3,0,2.3-0.4,3-1.3s1.1-1.9,1.1-3.2v-2.4
		c0-1.3-0.3-2.4-1.1-3.2s-1.7-1.3-3-1.3h-2.4V47.6z"/>
	<path class="st1" d="M139.4,60.8c-0.1-0.3-0.2-0.5-0.2-0.9s-0.1-0.5-0.1-0.9c-0.3,0.5-0.9,1-1.4,1.3s-1.2,0.5-1.9,0.5
		c-1.2,0-2-0.3-2.7-0.9s-1-1.4-1-2.5s0.4-1.9,1.3-2.6c0.9-0.6,2-1,3.6-1h1.9v-1c0-0.6-0.2-1.1-0.5-1.4s-0.9-0.5-1.5-0.5
		c-0.5,0-1.1,0.1-1.4,0.4s-0.5,0.6-0.5,1.1h-2.5v-0.1c0-0.9,0.3-1.7,1.2-2.4s1.9-1.1,3.3-1.1c1.3,0,2.4,0.3,3.2,1s1.2,1.6,1.2,2.9v5
		c0,0.4,0,1,0.1,1.4s0.2,0.9,0.3,1.3h-2.5V60.8z M136.3,59c0.6,0,1.2-0.2,1.7-0.4c0.5-0.3,0.9-0.6,1.1-1.1v-1.7h-2
		c-0.8,0-1.3,0.2-1.7,0.5c-0.4,0.3-0.6,0.8-0.6,1.3c0,0.4,0.1,0.8,0.4,1.1C135.4,58.9,135.8,59,136.3,59z"/>
	<path class="st1" d="M146.6,49.5l0.1,1.5c0.3-0.5,0.9-1,1.4-1.3s1.2-0.4,1.9-0.4c0.8,0,1.4,0.2,1.9,0.5s1,0.9,1.2,1.5
		c0.3-0.6,0.9-1.1,1.4-1.5c0.5-0.3,1.3-0.5,2-0.5c1.2,0,2,0.4,2.7,1.2s1,1.9,1,3.5v6.9h-2.6V54c0-1-0.2-1.6-0.5-2s-0.9-0.5-1.5-0.5
		c-0.5,0-1,0.1-1.4,0.4s-0.6,0.6-0.9,1.2c0,0.1,0,0.2,0,0.3s0,0.1,0,0.2v7.3h-2.6V54c0-1-0.2-1.6-0.5-2s-0.9-0.6-1.5-0.6
		c-0.5,0-1,0.1-1.3,0.3s-0.6,0.4-0.9,0.9v8.4H144V49.5H146.6z"/>
	<path class="st1" d="M169.8,60.8c-0.1-0.3-0.2-0.5-0.2-0.9c-0.1-0.3-0.1-0.5-0.1-0.9c-0.3,0.5-0.9,1-1.4,1.3s-1.2,0.5-1.9,0.5
		c-1.2,0-2-0.3-2.7-0.9c-0.6-0.6-1-1.4-1-2.5s0.4-1.9,1.3-2.6c0.9-0.6,2-1,3.6-1h1.9v-1c0-0.6-0.2-1.1-0.5-1.4s-0.9-0.5-1.5-0.5
		c-0.5,0-1.1,0.1-1.4,0.4c-0.3,0.3-0.5,0.6-0.5,1.1h-2.5v-0.1c0-0.9,0.3-1.7,1.2-2.4s1.9-1.1,3.3-1.1c1.3,0,2.4,0.3,3.2,1
		c0.9,0.6,1.2,1.6,1.2,2.9v5c0,0.4,0,1,0.1,1.4s0.2,0.9,0.3,1.3h-2.5V60.8z M166.6,59c0.6,0,1.2-0.2,1.7-0.4
		c0.5-0.3,0.9-0.6,1.1-1.1v-1.7h-2c-0.8,0-1.3,0.2-1.7,0.5c-0.4,0.3-0.6,0.8-0.6,1.3c0,0.4,0.1,0.8,0.4,1.1
		C165.7,58.9,166.1,59,166.6,59z"/>
	<path class="st1" d="M174.1,55.4c0-1.8,0.4-3.2,1.2-4.4c0.8-1.1,1.9-1.7,3.3-1.7c0.6,0,1.3,0.1,1.8,0.4s1,0.8,1.3,1.3l0.2-1.5h2.1
		v11.4c0,1.5-0.4,2.6-1.4,3.4s-2.1,1.2-3.9,1.2c-0.5,0-1.2-0.1-1.8-0.2s-1.2-0.3-1.7-0.6l0.5-2c0.4,0.2,0.9,0.4,1.4,0.5
		c0.5,0.1,1.1,0.2,1.6,0.2c1,0,1.6-0.2,2-0.6c0.4-0.4,0.6-1,0.6-1.8v-1.2c-0.3,0.4-0.8,0.8-1.3,1.1c-0.5,0.2-1.1,0.3-1.7,0.3
		c-1.4,0-2.5-0.5-3.2-1.5s-1.2-2.4-1.2-4L174.1,55.4L174.1,55.4z M176.7,55.6c0,1.1,0.2,1.8,0.6,2.5c0.4,0.6,1.1,1,1.9,1
		c0.5,0,1-0.1,1.4-0.3c0.3-0.2,0.6-0.5,0.9-1v-5c-0.2-0.4-0.5-0.8-1-1c-0.3-0.2-0.9-0.3-1.4-0.3c-0.9,0-1.5,0.3-1.9,1.1
		c-0.4,0.8-0.6,1.7-0.6,2.9v0.2H176.7z"/>
	<path class="st1" d="M191.6,61c-1.6,0-2.9-0.5-3.9-1.6c-1-1.1-1.4-2.4-1.4-4.1v-0.4c0-1.6,0.4-3,1.4-4.1c1-1.1,2.1-1.6,3.5-1.6
		c1.5,0,2.7,0.4,3.5,1.4c0.9,1,1.2,2.1,1.2,3.8v1.5h-7.1l0,0c0,0.9,0.3,1.6,0.8,2.3c0.5,0.5,1.2,0.9,2,0.9c0.6,0,1.3-0.1,1.7-0.2
		c0.5-0.2,1-0.4,1.4-0.8l0.9,1.7c-0.4,0.4-1,0.8-1.7,1C193.3,60.9,192.5,61,191.6,61z M191.3,51.3c-0.6,0-1.2,0.2-1.5,0.8
		c-0.4,0.5-0.6,1.2-0.8,1.9l0,0h4.5v-0.2c0-0.8-0.2-1.3-0.5-1.7S192.1,51.3,191.3,51.3z"/>
</g>
</svg>
