<?xml version="1.0" encoding="utf-8"?>
<!-- Generator: Adobe Illustrator 21.0.0, SVG Export Plug-In . SVG Version: 6.00 Build 0)  -->
<svg version="1.1" id="Capa_1" xmlns="http://www.w3.org/2000/svg" xmlns:xlink="http://www.w3.org/1999/xlink" x="0px" y="0px"
	 viewBox="0 0 322 108" style="enable-background:new 0 0 322 108;" xml:space="preserve">
<style type="text/css">
	.st0{fill:url(#SVGID_1_);}
	.st1{fill:#2366BB;}
</style>
<g>
	
		<linearGradient id="SVGID_1_" gradientUnits="userSpaceOnUse" x1="0" y1="56" x2="107.8928" y2="56" gradientTransform="matrix(1 0 0 -1 0 110)">
		<stop  offset="0" style="stop-color:#00B2F5"/>
		<stop  offset="1" style="stop-color:#383897"/>
	</linearGradient>
	<path class="st0" d="M53.9,108C24.1,108,0,83.8,0,54.1S24.1,0,53.9,0s53.9,24.2,53.9,53.9S83.7,108,53.9,108z M53.9,3.4
		C26.1,3.4,3.3,26.2,3.3,54.1s22.7,50.5,50.6,50.5s50.6-22.7,50.6-50.6S81.8,3.4,53.9,3.4z"/>
</g>
<g>
	<path class="st1" d="M127.6,55.2H121v6.5h-2.6V46.5h10.3v2H121v4.6h6.6V55.2z"/>
	<path class="st1" d="M133.2,61.8h-2.6V45.5h2.6V61.8z"/>
	<path class="st1" d="M135.6,56c0-1.7,0.4-3.1,1.4-4.2c1-1.1,2.3-1.6,3.8-1.6c1.6,0,2.9,0.5,3.9,1.6c1,1.1,1.4,2.5,1.4,4.2v0.2
		c0,1.7-0.4,3.1-1.4,4.2c-1,1.1-2.1,1.6-3.8,1.6c-1.6,0-2.9-0.5-3.9-1.6c-1-1.1-1.4-2.5-1.4-4.2V56z M138.1,56.2
		c0,1.1,0.2,2,0.6,2.7c0.4,0.6,1.1,1.1,2,1.1c0.9,0,1.5-0.3,2-1.1c0.4-0.8,0.6-1.6,0.6-2.7V56c0-1.1-0.2-1.9-0.6-2.7
		c-0.4-0.8-1.1-1.1-2-1.1c-0.9,0-1.5,0.3-2,1.1c-0.4,0.8-0.6,1.6-0.6,2.7V56.2z"/>
	<path class="st1" d="M147.8,56c0-1.7,0.4-3.1,1.4-4.2c1-1.1,2.3-1.6,3.8-1.6c1.6,0,2.9,0.5,3.9,1.6c1,1.1,1.4,2.5,1.4,4.2v0.2
		c0,1.7-0.4,3.1-1.4,4.2c-1,1.1-2.1,1.6-3.8,1.6c-1.6,0-2.9-0.5-3.9-1.6c-1-1.1-1.4-2.5-1.4-4.2V56z M150.3,56.2
		c0,1.1,0.2,2,0.6,2.7c0.4,0.6,1.1,1.1,2,1.1c0.9,0,1.5-0.3,2-1.1c0.4-0.8,0.6-1.6,0.6-2.7V56c0-1.1-0.2-1.9-0.6-2.7
		c-0.4-0.8-1.1-1.1-2-1.1c-0.9,0-1.5,0.3-2,1.1c-0.4,0.8-0.6,1.6-0.6,2.7V56.2z"/>
	<path class="st1" d="M166,52.8h-1.1c-0.5,0-0.9,0.1-1.3,0.3c-0.4,0.2-0.5,0.5-0.8,0.9v7.8h-2.6V50.4h2.4l0.2,1.6
		c0.3-0.5,0.6-1.1,1.1-1.4c0.4-0.3,1-0.5,1.6-0.5c0.1,0,0.3,0,0.4,0s0.2,0.1,0.3,0.1L166,52.8z"/>
	<path class="st1" d="M170.5,47.7H168v-2.3h2.6V47.7z M170.5,61.8H168V50.4h2.6V61.8z"/>
	<path class="st1" d="M175.7,50.4l0.1,1.6c0.3-0.5,0.9-1.1,1.4-1.4c0.5-0.3,1.2-0.5,1.9-0.5c1.2,0,2.1,0.3,2.8,1.1
		c0.6,0.8,1,1.8,1,3.3v7.1h-2.6v-7.1c0-0.9-0.2-1.5-0.5-1.8c-0.3-0.3-0.9-0.5-1.6-0.5c-0.5,0-1,0.1-1.3,0.3c-0.3,0.2-0.8,0.5-1,0.9
		v8.3h-2.6V50.4H175.7z"/>
	<path class="st1" d="M185,56.3c0-1.8,0.4-3.2,1.2-4.4c0.8-1.2,1.9-1.7,3.3-1.7c0.6,0,1.3,0.1,1.8,0.4s1,0.8,1.3,1.3l0.2-1.5h2.1
		v11.4c0,1.5-0.4,2.6-1.4,3.4c-1,0.9-2.1,1.2-3.9,1.2c-0.5,0-1.2-0.1-1.8-0.2c-0.6-0.1-1.2-0.3-1.7-0.6l0.5-2
		c0.4,0.2,0.9,0.4,1.4,0.5c0.5,0.1,1.1,0.2,1.6,0.2c1,0,1.6-0.2,2-0.6c0.4-0.4,0.6-1,0.6-1.8v-1.2c-0.3,0.4-0.8,0.8-1.3,1.1
		c-0.5,0.3-1.1,0.3-1.7,0.3c-1.4,0-2.5-0.5-3.2-1.5c-0.8-1-1.2-2.4-1.2-4L185,56.3L185,56.3z M187.6,56.5c0,1.1,0.2,1.8,0.6,2.5
		c0.4,0.6,1.1,1,1.9,1c0.5,0,1-0.1,1.4-0.3c0.4-0.2,0.6-0.5,0.9-1v-4.9c-0.2-0.4-0.5-0.8-1-1s-0.9-0.3-1.4-0.3
		c-0.9,0-1.5,0.3-1.9,1.1c-0.4,0.8-0.6,1.7-0.6,2.9v0.1H187.6z"/>
	<path class="st1" d="M203.3,61.8V46.5h4.9c1.9,0,3.5,0.6,4.7,1.8s1.8,2.8,1.8,4.6v2.4c0,1.9-0.6,3.4-1.8,4.6
		c-1.2,1.2-2.8,1.8-4.7,1.8C208.3,61.8,203.3,61.8,203.3,61.8z M205.8,48.6v11.2h2.4c1.3,0,2.3-0.4,3-1.3c0.8-0.9,1.1-1.9,1.1-3.2
		v-2.4c0-1.3-0.3-2.4-1.1-3.2s-1.7-1.3-3-1.3h-2.4V48.6z"/>
	<path class="st1" d="M223.9,61.8c-0.1-0.3-0.2-0.5-0.2-0.9s-0.1-0.5-0.1-0.9c-0.3,0.5-0.9,1-1.4,1.3c-0.5,0.3-1.2,0.5-1.9,0.5
		c-1.2,0-2-0.3-2.7-0.9c-0.6-0.5-1-1.4-1-2.5c0-1.1,0.4-1.9,1.3-2.6c0.9-0.6,2-1,3.6-1h1.9v-0.9c0-0.6-0.2-1.1-0.5-1.4
		c-0.3-0.3-0.9-0.5-1.5-0.5c-0.5,0-1.1,0.1-1.4,0.4c-0.3,0.3-0.5,0.6-0.5,1.1h-2.5v-0.1c0-0.9,0.3-1.7,1.2-2.4s1.9-1.1,3.3-1.1
		c1.3,0,2.4,0.3,3.2,1c0.9,0.6,1.2,1.6,1.2,2.9v5c0,0.4,0,1,0.1,1.4c0.1,0.4,0.2,0.9,0.3,1.3C226.4,61.8,223.9,61.8,223.9,61.8z
		 M220.8,60c0.6,0,1.2-0.1,1.7-0.4c0.5-0.3,0.9-0.6,1.1-1.1v-1.7h-2c-0.8,0-1.3,0.2-1.7,0.5c-0.4,0.3-0.6,0.8-0.6,1.3
		c0,0.4,0.1,0.8,0.4,1.1S220.3,60,220.8,60z"/>
	<path class="st1" d="M231.1,50.4l0.1,1.5c0.3-0.5,0.9-1,1.4-1.3c0.5-0.3,1.2-0.4,1.9-0.4c0.8,0,1.4,0.2,1.9,0.5
		c0.5,0.3,1,0.9,1.2,1.5c0.3-0.6,0.9-1.1,1.4-1.5c0.5-0.4,1.3-0.5,2-0.5c1.2,0,2,0.4,2.7,1.2c0.6,0.8,1,1.9,1,3.5v6.9h-2.6v-6.9
		c0-1-0.2-1.6-0.5-2c-0.3-0.4-0.9-0.5-1.5-0.5c-0.5,0-1,0.1-1.4,0.4c-0.4,0.3-0.6,0.6-0.9,1.2c0,0.1,0,0.2,0,0.3c0,0.1,0,0.1,0,0.2
		v7.3h-2.6v-6.9c0-1-0.2-1.6-0.5-2c-0.3-0.4-0.9-0.6-1.5-0.6c-0.5,0-1,0.1-1.3,0.3s-0.6,0.4-0.9,0.9v8.4h-2.6V50.4H231.1z"/>
	<path class="st1" d="M254.2,61.8c-0.1-0.3-0.2-0.5-0.2-0.9s-0.1-0.5-0.1-0.9c-0.3,0.5-0.9,1-1.4,1.3c-0.5,0.3-1.2,0.5-1.9,0.5
		c-1.2,0-2-0.3-2.7-0.9c-0.6-0.5-1-1.4-1-2.5c0-1.1,0.4-1.9,1.3-2.6c0.9-0.6,2-1,3.6-1h1.9v-0.9c0-0.6-0.2-1.1-0.5-1.4
		c-0.3-0.3-0.9-0.5-1.5-0.5c-0.5,0-1.1,0.1-1.4,0.4s-0.5,0.6-0.5,1.1h-2.5v-0.1c0-0.9,0.3-1.7,1.2-2.4c0.9-0.6,1.9-1.1,3.3-1.1
		c1.3,0,2.4,0.3,3.2,1s1.2,1.6,1.2,2.9v5c0,0.4,0,1,0.1,1.4c0.1,0.4,0.2,0.9,0.3,1.3C256.6,61.8,254.2,61.8,254.2,61.8z M251.1,60
		c0.6,0,1.2-0.1,1.7-0.4c0.5-0.3,0.9-0.6,1.1-1.1v-1.7h-2c-0.8,0-1.3,0.2-1.7,0.5c-0.4,0.3-0.6,0.8-0.6,1.3c0,0.4,0.1,0.8,0.4,1.1
		C250.2,60,250.5,60,251.1,60z"/>
	<path class="st1" d="M258.6,56.3c0-1.8,0.4-3.2,1.2-4.4s1.9-1.7,3.3-1.7c0.6,0,1.3,0.1,1.8,0.4c0.5,0.3,1,0.8,1.3,1.3l0.2-1.5h2.1
		v11.4c0,1.5-0.4,2.6-1.4,3.4c-1,0.9-2.1,1.2-3.9,1.2c-0.5,0-1.2-0.1-1.8-0.2s-1.2-0.3-1.7-0.6l0.5-2c0.4,0.2,0.9,0.4,1.4,0.5
		c0.5,0.1,1.1,0.2,1.6,0.2c1,0,1.6-0.2,2-0.6s0.6-1,0.6-1.8v-1.2c-0.3,0.4-0.8,0.8-1.3,1.1c-0.5,0.3-1.1,0.3-1.7,0.3
		c-1.4,0-2.5-0.5-3.2-1.5c-0.8-1-1.2-2.4-1.2-4L258.6,56.3L258.6,56.3z M261.2,56.5c0,1.1,0.2,1.8,0.6,2.5s1.1,1,1.9,1
		c0.5,0,1-0.1,1.4-0.3c0.4-0.2,0.6-0.5,0.9-1v-4.9c-0.2-0.4-0.5-0.8-1-1s-0.9-0.3-1.4-0.3c-0.9,0-1.5,0.3-1.9,1.1
		c-0.4,0.8-0.6,1.7-0.6,2.9v0.1H261.2z"/>
	<path class="st1" d="M276.1,62c-1.6,0-2.9-0.5-3.9-1.6c-1-1.1-1.4-2.4-1.4-4.1v-0.4c0-1.6,0.4-3,1.4-4.1c1-1.1,2.1-1.6,3.5-1.6
		c1.5,0,2.7,0.4,3.5,1.4c0.9,1,1.2,2.1,1.2,3.8v1.5h-7l0,0c0,0.9,0.3,1.6,0.8,2.3c0.5,0.5,1.2,0.9,2,0.9c0.6,0,1.3-0.1,1.7-0.2
		c0.4-0.1,1-0.4,1.4-0.8l0.9,1.7c-0.4,0.4-1,0.8-1.7,1C277.9,61.9,277,62,276.1,62z M275.8,52.3c-0.6,0-1.2,0.2-1.5,0.8
		c-0.3,0.5-0.6,1.2-0.8,1.9l0,0h4.5v-0.2c0-0.8-0.2-1.3-0.5-1.7C277.2,52.7,276.5,52.3,275.8,52.3z"/>
</g>
<g>
	<path class="st1" d="M36.3,78.1c0.3-0.5,0.9-1.9,1.2-3.1s-0.1-2.8-1-3.8l-3.2-3.6c-0.8-0.9-2.4-1.7-3.5-1.9l-4-0.5
		c-1.2-0.1-2.1,0.6-2.1,1.9v9.8c0,1.2,1,2.1,2.1,2.1h7.7C34.5,79.1,35.8,78.6,36.3,78.1z"/>
	<path class="st1" d="M25.6,63.8l1.2,0.1c1.2,0.1,2.6-0.6,3.1-1.7l0.2-0.4c0.5-1.1,0.5-2.6,0-3.4c-0.5-0.8-1.8-1.4-2.8-1.3
		c-1,0.1-2.3,0.6-2.9,1.2c-0.5,0.5-1.1,1.9-1.1,3.1S24.5,63.7,25.6,63.8z"/>
	<path class="st1" d="M32.2,64.7c0.9,0.3,2,1.3,2.7,2.3l2.7,3.8c0.6,1,2.3,1.6,3.4,1.4l2.6-0.4c1.2-0.2,2.3-1.3,2.5-2.5l0.6-4.7
		c0.2-1.2-0.5-2.6-1.6-3.2l-4.4-2.5c-1.1-0.5-2.8-0.6-3.9-0.2l-1.4,0.6c-1.1,0.4-2.6,1.7-3.2,2.7L32,62.2
		C31.2,63.3,31.3,64.3,32.2,64.7z"/>
	<path class="st1" d="M39.4,79h10.5c1.2,0,1.5-0.8,0.6-1.6l-3.3-3.5c-0.9-0.9-2.5-1.4-3.6-1.2L41.6,73c-1.2,0.2-2.6,1.3-3,2.4
		L38,76.9C37.5,78.2,38.2,79,39.4,79z"/>
	<path class="st1" d="M35,48.6l-3.3-0.2c-1.2-0.1-2.5,0.6-2.9,1.6c-0.4,1-0.2,2.6,0.5,3.5l0.1,0.2c0.8,1,1.7,2.5,2.1,3.3
		c0.5,0.9,1.8,1.2,2.9,0.8l1.4-0.5c1.1-0.4,2.6-1.5,3.3-2.4s0.8-2.4,0-3.3l-0.6-1C37.8,49.5,36.1,48.7,35,48.6z"/>
	<path class="st1" d="M24.6,56.8c0.5-0.5,1.7-1.1,2.7-1.3c1-0.1,1.2-1.1,0.5-2.1l-0.4-0.8c-0.6-1.1-1.7-1.9-2.5-2
		c-0.8-0.1-1.4,0.8-1.4,1.9v3C23.5,56.8,23.9,57.4,24.6,56.8z"/>
	<path class="st1" d="M24.9,48.9c0.8,0.1,1.8-0.3,2.5-1.1c0.6-0.8,2-1.3,3.2-1.2l3.5,0.3c1.2,0.1,2.6-0.8,3-1.8l1.4-3.2
		c0.4-1.1-0.1-2.4-1.2-2.9l-3.9-1.7c-1.1-0.5-2.8-0.3-3.9,0.3l-1.5,1c-1,0.6-2.5,0.8-3.2,0.3c-0.8-0.5-1.4,0.1-1.4,1.3v6.4
		C23.5,47.6,24.1,48.7,24.9,48.9z"/>
	<path class="st1" d="M44.1,53.5c-1.2-0.1-2.8,0.5-3.4,1.4c-0.8,0.9-0.4,2,0.6,2.6l5.9,3.1c1.1,0.5,2.1,1.6,2.6,2.5
		c0.3,0.8,1.5,1.2,2.7,0.9l4.4-1.3c1.2-0.3,1.5-1.4,0.8-2.4l-3-4.1c-0.8-1-2.3-1.8-3.4-1.9L44.1,53.5z"/>
	<path class="st1" d="M55.8,79.1h3.3c1.2,0,2.9-0.6,3.8-1.5l2.8-2.7c0.9-0.9,1-2.3,0.1-3.2l-5.6-6.6c-0.8-1-2.4-1.4-3.5-1.1
		l-6.8,1.7c-1.2,0.3-2.3,1.5-2.5,2.7l-0.2,1.2c-0.2,1.2,0.3,2.9,1.1,3.8l3.8,4.2C53,78.4,54.6,79.1,55.8,79.1z"/>
	<path class="st1" d="M71.2,74.1L70.7,74c-1.2-0.2-2.8,0.3-3.6,1.2l-2.3,2.4c-0.9,0.9-0.5,1.6,0.6,1.6H72c1.2,0,2.1-0.3,2.1-0.6
		c0-0.3-0.2-1.4-0.3-2.4C73.7,75.2,72.4,74.2,71.2,74.1z"/>
	<path class="st1" d="M60.9,64.2c0.5,0.8,1.7,0.9,2.7,0.1l2.6-2c1-0.8,1-1.9,0-2.7l-1.6-1.3c-1-0.8-2.6-1-3.6-0.4L60.7,58
		c-1.1,0.5-1.6,1.6-1.1,2.4c0.4,0.8,0.8,1.6,0.6,1.9C60.1,62.5,60.4,63.4,60.9,64.2z"/>
	<path class="st1" d="M70.2,72.4l0.9,0.2c1.2,0.2,2.9,0.2,3.8-0.1s1.5-1.5,1.5-2.7l-0.1-2c-0.1-1.2-1-2.6-2-3.1L70.7,63
		c-1.1-0.5-2.7-0.3-3.6,0.4L65,65c-1,0.8-1.1,2.1-0.3,3l2,2.4C67.6,71.3,69.2,72.2,70.2,72.4z"/>
	<path class="st1" d="M82.2,63.6l-2.7,1.1c-1.1,0.4-1.9,1.8-1.8,3l0.3,3.6c0.1,1.2-0.8,2.4-1.8,2.6s-1.7,1.3-1.3,2.5l0.2,0.6
		c0.4,1.2,1.7,2,2.9,2H82c1.2,0,2.4-1,2.4-2.3V65C84.3,63.8,83.2,63.2,82.2,63.6z"/>
	<path class="st1" d="M82,54.6l-4.2-1.1c-1.2-0.3-2.9,0-3.9,0.8l-2.3,1.6c-1,0.8-1.9,2.1-2.1,3.3c-0.2,1.2,0.5,2.5,1.7,2.9l3.2,1.3
		c1.1,0.4,2.9,0.4,4.1,0l3.6-1.4c1.1-0.4,2.1-1.8,2.1-3v-1.6C84.3,56.2,83.2,54.9,82,54.6z"/>
	<path class="st1" d="M71.7,53.4c1-0.6,0.9-1.4-0.3-1.7l-4.9-1.2c-1.2-0.3-2.9,0.1-3.9,0.8l-4.7,3.5c-1,0.8-1.6,1.7-1.4,2.3
		c0.2,0.5,1.3,0.5,2.4,0.1l2.4-1.1c1.1-0.5,2.3-0.8,2.6-0.4c0.3,0.2,1.4,1,2.3,1.6c1,0.6,1.9,0.5,2.1-0.3c0.2-0.9,1.3-2,2.3-2.7
		L71.7,53.4z"/>
	<path class="st1" d="M82,44.9l-8.2-1.7c-1.2-0.2-2.7,0.4-3.2,1.5L69,47.9c-0.5,1.1-0.1,2.1,1.1,2.5l3.4,0.9c1.2,0.3,3,0.8,4.2,1.2
		l4.4,1.3c1.2,0.3,2.3-0.3,2.3-1.5v-4.4C84.3,46.4,83.2,45.2,82,44.9z"/>
	<path class="st1" d="M66,47.1l-0.4-1.6c-0.3-1.2-1.5-2.5-2.6-3l-3-1.4c-1.1-0.5-2.9-0.4-4,0l-1.3,0.6c-1.1,0.5-1.9,1.9-1.8,3.1
		l0.1,1.4c0.1,1.2,1.1,1.9,2.3,1.6l1.1-0.3c1.2-0.3,3-0.3,4.2,0l4,1.1C65.6,48.9,66.3,48.2,66,47.1z"/>
	<path class="st1" d="M56.5,48.8l-1.4,0.4c-1.2,0.4-2,1.4-2,2.3s0.4,1.9,1,2.5s1.7,0.3,2.7-0.4l3.6-3c1-0.8,0.9-1.6-0.1-1.9
		C59.4,48.4,57.7,48.5,56.5,48.8z"/>
	<path class="st1" d="M50,47l-8.6,2.3c-1.2,0.3-1.6,1.1-1,1.6c0.6,0.5,2.1,1.2,3.3,1.4l5.4,0.6c1.2,0.1,2.3-0.8,2.4-1.9l0.2-2.3
		C51.9,47.4,51.1,46.7,50,47z"/>
	<path class="st1" d="M50.5,40.2C50.2,39,49,38,47.8,37.8L44,37.2c-1.2-0.2-2.5,0.5-2.9,1.7l-2.5,6.3c-0.4,1.1-0.5,2.3-0.3,2.6
		c0.2,0.3,1.4,0.3,2.6,0l8.6-2.5c1.2-0.3,1.8-1.6,1.6-2.7L50.5,40.2z"/>
	<path class="st1" d="M24.7,37.4c0.6,0.3,1.9,0.1,2.9-0.5L29,36c1-0.6,2.4-1,3.1-0.9c0.6,0.2,1.5-0.4,1.8-1.3
		c0.3-0.9-0.3-1.6-1.5-1.6h-6.6c-1.2,0-2.1,1-2.1,2.1v0.1C23.6,35.8,24.1,37.1,24.7,37.4z"/>
	<path class="st1" d="M36.3,37.1l0.5,0.2c1.1,0.4,2.5,0.1,3.1-0.6c0.5-0.8,2-1.3,3.2-1l1.3,0.2c1.2,0.2,1.9-0.4,1.7-1.5
		c-0.2-1.1-1.4-1.9-2.6-1.9h-5.3c-1.2,0-2.6,0.9-3.1,1.9l0,0C34.6,35.4,35.2,36.7,36.3,37.1z"/>
	<path class="st1" d="M49.1,32.4c-1.2,0-1.9,1-1.6,2v0.2c0.3,1.2,1.3,2,2.1,2s1.7,1,1.9,2c0.2,1.2,1.3,1.6,2.4,1.2l2-1
		c1.1-0.5,2.8-0.4,3.9,0.2l1.5,1c1,0.6,2,0.2,2.4-1l1.2-4.7c0.3-1.2-0.4-2.1-1.6-2.1L49.1,32.4L49.1,32.4z"/>
	<path class="st1" d="M69,41.9l-0.6,0.2c-1.2,0.3-1.9,1.5-1.6,2.7c0.2,1.2,1,1.3,1.7,0.3l1.4-2C70.5,42,70,41.5,69,41.9z"/>
	<path class="st1" d="M70.2,40c1.2-0.3,2.3-0.1,2.5,0.4c0.2,0.5,1,1.2,1.8,1.4c0.9,0.3,1.5-0.4,1.6-1.6l0.3-5.7
		c0.1-1.2-0.9-2.1-2-2.1h-5.1c-1.2,0-2.4,1-2.7,2.1c0,0-1.6,6.4-1.6,6.8L70.2,40z"/>
	<path class="st1" d="M81.8,32.4h-1.1c-1.2,0-2.3,1-2.4,2.1l-0.5,6c-0.1,1.2,0.8,2.4,1.9,2.5l2.1,0.3c1.2,0.2,2.4-0.6,2.4-1.8v-7
		C84.3,33.4,83,32.4,81.8,32.4z"/>
</g>
</svg>
