<?xml version="1.0" encoding="utf-8"?>
<!-- Generator: Adobe Illustrator 21.0.0, SVG Export Plug-In . SVG Version: 6.00 Build 0)  -->
<svg version="1.1" id="Capa_1" xmlns="http://www.w3.org/2000/svg" xmlns:xlink="http://www.w3.org/1999/xlink" x="0px" y="0px"
	 viewBox="0 0 322 108" style="enable-background:new 0 0 322 108;" xml:space="preserve">
<style type="text/css">
	.st0{fill:url(#SVGID_1_);}
	.st1{fill:#2366BB;}
</style>
<g>
	
		<linearGradient id="SVGID_1_" gradientUnits="userSpaceOnUse" x1="0" y1="56" x2="107.8928" y2="56" gradientTransform="matrix(1 0 0 -1 0 110)">
		<stop  offset="0" style="stop-color:#00B2F5"/>
		<stop  offset="1" style="stop-color:#383897"/>
	</linearGradient>
	<path class="st0" d="M53.9,108C24.1,108,0,83.8,0,54.1S24.1,0,53.9,0s53.9,24.2,53.9,53.9S83.7,108,53.9,108z M53.9,3.4
		C26.1,3.4,3.3,26.2,3.3,54.1s22.7,50.5,50.6,50.5s50.6-22.7,50.6-50.6S81.8,3.4,53.9,3.4z"/>
</g>
<g>
	<path class="st1" d="M127.6,55.2H121v6.5h-2.6V46.5h10.3v2H121v4.6h6.6V55.2z"/>
	<path class="st1" d="M133.2,61.8h-2.6V45.5h2.6V61.8z"/>
	<path class="st1" d="M135.6,56c0-1.7,0.4-3.1,1.4-4.2c1-1.1,2.3-1.6,3.8-1.6c1.6,0,2.9,0.5,3.9,1.6c1,1.1,1.4,2.5,1.4,4.2v0.2
		c0,1.7-0.4,3.1-1.4,4.2c-1,1.1-2.1,1.6-3.8,1.6c-1.6,0-2.9-0.5-3.9-1.6c-1-1.1-1.4-2.5-1.4-4.2V56z M138.1,56.2
		c0,1.1,0.2,2,0.6,2.7c0.4,0.6,1.1,1.1,2,1.1c0.9,0,1.5-0.3,2-1.1c0.4-0.8,0.6-1.6,0.6-2.7V56c0-1.1-0.2-1.9-0.6-2.7
		c-0.4-0.8-1.1-1.1-2-1.1c-0.9,0-1.5,0.3-2,1.1c-0.4,0.8-0.6,1.6-0.6,2.7V56.2z"/>
	<path class="st1" d="M147.8,56c0-1.7,0.4-3.1,1.4-4.2c1-1.1,2.3-1.6,3.8-1.6c1.6,0,2.9,0.5,3.9,1.6c1,1.1,1.4,2.5,1.4,4.2v0.2
		c0,1.7-0.4,3.1-1.4,4.2c-1,1.1-2.1,1.6-3.8,1.6c-1.6,0-2.9-0.5-3.9-1.6c-1-1.1-1.4-2.5-1.4-4.2V56z M150.3,56.2
		c0,1.1,0.2,2,0.6,2.7c0.4,0.6,1.1,1.1,2,1.1c0.9,0,1.5-0.3,2-1.1c0.4-0.8,0.6-1.6,0.6-2.7V56c0-1.1-0.2-1.9-0.6-2.7
		c-0.4-0.8-1.1-1.1-2-1.1c-0.9,0-1.5,0.3-2,1.1c-0.4,0.8-0.6,1.6-0.6,2.7V56.2z"/>
	<path class="st1" d="M159.9,56.3c0-1.8,0.4-3.2,1.2-4.4c0.8-1.2,1.8-1.6,3.2-1.6c0.6,0,1.2,0.1,1.6,0.3c0.4,0.2,0.9,0.6,1.3,1.1
		v-6.2h2.6v16.3h-2.1l-0.2-1.4c-0.3,0.5-0.8,1-1.3,1.2c-0.5,0.2-1.1,0.4-1.8,0.4c-1.4,0-2.5-0.5-3.2-1.5c-0.8-1-1.2-2.4-1.2-4V56.3z
		 M162.5,56.5c0,1.1,0.2,1.9,0.6,2.5c0.4,0.5,1.1,1,1.9,1c0.5,0,1-0.1,1.4-0.3c0.4-0.2,0.6-0.5,1-1v-4.9c-0.2-0.4-0.5-0.8-1-1
		c-0.4-0.2-0.9-0.3-1.4-0.3c-0.9,0-1.5,0.3-1.9,1.1c-0.4,0.8-0.6,1.7-0.6,2.9V56.5z"/>
</g>
<g>
	<g>
		<g>
			<path class="st1" d="M36.4,32.1v7.7l11.5-9.4h-9.8C37.1,30.4,36.4,31.1,36.4,32.1z"/>
			<path class="st1" d="M72.4,32.1c0-1-0.8-1.7-1.7-1.7h-9.8l11.5,9.4V32.1z"/>
			<path class="st1" d="M64.9,52.7l3.9,2.3c0.1,0,0.2,0,0.3,0c0.2,0,0.3,0,0.3,0l2.9-1.6v-6.8c-0.6-0.1-1.2-0.3-1.7-0.6L54.4,32.5
				L38.1,45.9c-0.4,0.4-1.1,0.6-1.7,0.8v6.4l1.2-0.5c1.2-0.6,2.7-1,4.1-1c1.8,0,3.5,0.4,4.9,1.3l2.6,1.6v-10c0-0.4,0.4-0.9,0.9-0.9
				h10.1c0.4,0,0.9,0.4,0.9,0.9v7.1C62.3,51.7,63.7,52,64.9,52.7z"/>
			<path class="st1" d="M77,61.6l-6.8,3.8c-0.5,0.3-1.7,0.3-2.3,0l-4-2.3c-2.1-1.2-5.1-1.3-7.4-0.2l-5.1,2.5
				c-0.5,0.3-1.8,0.2-2.4-0.1l-3.5-2.1c-2-1.3-5.1-1.4-7.4-0.3l-7.6,3.9c-1.3,0.6-1.8,2.3-1.2,3.5c0.4,1,1.4,1.4,2.4,1.4
				c0.4,0,0.8-0.1,1.2-0.3l7.6-3.9c0.5-0.3,1.8-0.2,2.3,0.1l3.5,2.1c2,1.3,5.1,1.4,7.4,0.3l5.3-2.6c0.5-0.3,1.8-0.2,2.5,0.1l4,2.3
				c2.1,1.3,5.3,1.3,7.4,0.1l6.8-3.8c1.3-0.8,1.7-2.3,1.1-3.5C79.8,61.2,78.2,60.8,77,61.6z"/>
			<path class="st1" d="M77,70.2L70.2,74c-0.5,0.3-1.7,0.3-2.3,0l-4-2.3c-2.1-1.2-5.1-1.3-7.4-0.2L51.5,74c-0.5,0.3-1.8,0.2-2.4-0.1
				l-3.5-2.1c-2-1.3-5.1-1.4-7.4-0.3l-7.6,3.9c-1.3,0.6-1.8,2.3-1.2,3.5c0.4,1,1.4,1.4,2.4,1.4c0.4,0,0.8-0.1,1.2-0.3l7.6-3.9
				c0.5-0.3,1.8-0.2,2.3,0.1l3.5,2.1c2,1.3,5.1,1.4,7.4,0.3L59,76c0.5-0.3,1.8-0.2,2.5,0.1l4,2.3c2.1,1.3,5.3,1.3,7.4,0.1l6.8-3.8
				c1.3-0.8,1.7-2.3,1.1-3.5C79.8,70,78.2,69.5,77,70.2z"/>
			<path class="st1" d="M35.4,42.1l-0.8,0.6l-0.1,0.1c-0.5,0.5-0.5,1.4,0,1.9l0.1,0.1c0.2,0.2,0.5,0.3,0.8,0.3
				c0.2,0,0.3,0.1,0.5,0.1c0.1,0,0.2,0,0.4,0c0.3-0.1,0.6-0.2,0.9-0.4l17.2-14l17.2,14c0.2,0.2,0.5,0.3,0.9,0.4c0.1,0,0.3,0,0.4,0
				s0.3,0,0.4,0c0.3-0.1,0.6-0.2,0.9-0.4l0,0c0.6-0.5,0.6-1.4,0-2l0,0l-0.9-0.6l-0.9-0.8L58.9,30.4l-1.1-0.9l-1.1-0.9l-1.1-0.9
				c-0.3-0.3-0.9-0.4-1.3-0.4c-0.4,0-1,0.1-1.3,0.4L52,28.6l-1.1,0.9l-1.1,0.9l-13.5,11L35.4,42.1z"/>
			<path class="st1" d="M55.9,52.4c1-0.4,2-0.8,3.2-0.9v-6.2h-8.3V55L55.9,52.4z"/>
			<path class="st1" d="M29.5,61.3c0.4,1,1.4,1.5,2.4,1.5c0.4,0,0.8-0.1,1.2-0.3l7.6-3.9c0.2-0.1,0.6-0.2,1.1-0.2
				c0.5,0,1.1,0.1,1.3,0.3l3.5,2.1c1.2,0.8,2.6,1.1,4,1.1c1.2,0,2.4-0.2,3.3-0.8l5.3-2.6c0.3-0.1,0.6-0.2,1.2-0.2
				c0.5,0,1.1,0.1,1.4,0.3l4,2.3c1.1,0.6,2.5,1,3.8,1s2.6-0.3,3.6-0.9l6.8-3.8c1.3-0.6,1.7-2.3,1.1-3.5c-0.4-0.9-1.4-1.4-2.3-1.4
				c-0.4,0-0.9,0.1-1.3,0.3l-2.9,1.6l-1,0.5l-2.9,1.6c-0.3,0.1-0.6,0.2-1.2,0.2c-0.4,0-0.9-0.1-1.2-0.2L67.4,56L64,54.2
				c-0.9-0.5-2-0.9-3.1-1c-0.2,0-0.5,0-0.8,0h-0.1c-0.3,0-0.5,0-0.9,0c-0.9,0.1-1.7,0.3-2.5,0.6l-2,1.1L53,55.8l-0.2,0.1l-1.3,0.6
				c-0.2,0.1-0.6,0.2-1,0.2h-0.1h-0.1c-0.2,0-0.4,0-0.6-0.1c-0.2,0-0.4-0.1-0.5-0.2L48.3,56l-2.7-1.7c-1.2-0.6-2.6-1.1-4-1.1
				c-1.2,0-2.4,0.2-3.3,0.8l-1.8,1l-0.8,0.3L35,55.7l-4.3,2.1C29.4,58.5,28.9,60.1,29.5,61.3z"/>
		</g>
	</g>
</g>
</svg>
