<?xml version="1.0" encoding="utf-8"?>
<!-- Generator: Adobe Illustrator 21.0.0, SVG Export Plug-In . SVG Version: 6.00 Build 0)  -->
<svg version="1.1" id="Capa_1" xmlns="http://www.w3.org/2000/svg" xmlns:xlink="http://www.w3.org/1999/xlink" x="0px" y="0px"
	 viewBox="0 0 285 108" style="enable-background:new 0 0 285 108;" xml:space="preserve">
<style type="text/css">
	.st0{fill:url(#SVGID_1_);}
	.st1{fill:#2366BB;}
</style>
<g>
	
		<linearGradient id="SVGID_1_" gradientUnits="userSpaceOnUse" x1="2.9194" y1="-870.51" x2="99.0527" y2="-870.51" gradientTransform="matrix(1 0 0 -1 0 -816.11)">
		<stop  offset="0" style="stop-color:#00B2F5"/>
		<stop  offset="1" style="stop-color:#383897"/>
	</linearGradient>
	<path class="st0" d="M51,102.5c-26.6,0-48.1-21.6-48.1-48.1S24.5,6.3,51,6.3c26.6,0,48.1,21.6,48.1,48.1S77.6,102.5,51,102.5z
		 M51,9.3C26.2,9.3,5.9,29.6,5.9,54.4S26.2,99.5,51,99.5s45.1-20.3,45.1-45.1S75.8,9.3,51,9.3z"/>
</g>
<g>
	<path class="st1" d="M110.8,43v5h-1.7V35.6h4.7c1.4,0,2.3,0.4,3,1c0.7,0.6,1,1.6,1,2.7c0,1.1-0.4,2-1,2.7c-0.7,0.6-1.8,1-3,1H110.8
		L110.8,43z M110.8,41.7h3c0.8,0,1.5-0.2,1.9-0.6c0.4-0.5,0.6-1,0.6-1.8c0-0.6-0.2-1.2-0.6-1.8c-0.4-0.5-1-0.6-1.9-0.6h-3
		L110.8,41.7C110.7,41.7,110.8,41.7,110.8,41.7z"/>
	<path class="st1" d="M125.4,47.9c-0.1-0.3-0.1-0.5-0.1-0.7c0-0.2-0.1-0.4-0.1-0.6c-0.3,0.5-0.6,0.7-1.2,1.1c-0.5,0.3-1,0.5-1.7,0.5
		c-0.9,0-1.8-0.3-2.2-0.7c-0.5-0.5-0.7-1.1-0.7-2c0-0.8,0.4-1.6,1-2.1c0.6-0.5,1.7-0.7,2.9-0.7h1.8v-0.8c0-0.6-0.2-0.9-0.5-1.2
		S124,40,123.2,40c-0.6,0-0.9,0.1-1.4,0.4c-0.4,0.3-0.5,0.6-0.5,0.9H120v-0.1c0-0.6,0.3-1.2,0.9-1.8s1.6-0.8,2.6-0.8
		c1,0,1.9,0.3,2.5,0.7c0.6,0.6,0.9,1.2,0.9,2.3V46c0,0.3,0,0.6,0.1,0.9c0,0.3,0.1,0.6,0.2,0.8h-1.8L125.4,47.9L125.4,47.9z
		 M122.7,46.7c0.6,0,1.1-0.2,1.7-0.5c0.5-0.3,0.7-0.6,0.9-1v-1.6h-1.9c-0.6,0-1.2,0.2-1.7,0.5c-0.4,0.4-0.6,0.7-0.6,1.1
		c0,0.4,0.1,0.7,0.4,0.9C121.8,46.6,122.2,46.7,122.7,46.7z"/>
	<path class="st1" d="M132,44.5l0.3,1.1h0.1l2.3-6.9h1.8l-3.8,10.6c-0.2,0.6-0.6,1.1-0.9,1.7c-0.4,0.5-1,0.6-1.8,0.6
		c-0.1,0-0.3,0-0.5,0c-0.2,0-0.4-0.1-0.5-0.1l0.2-1.4c0,0,0.1,0,0.3,0c0.2,0,0.4,0,0.5,0c0.4,0,0.6-0.2,0.8-0.5s0.4-0.6,0.6-1
		l0.4-0.9l-3.4-8.9h1.9L132,44.5z"/>
	<path class="st1" d="M139.5,38.8l0.1,1.2c0.3-0.5,0.6-0.7,1.1-1c0.5-0.3,0.9-0.4,1.7-0.4c0.6,0,1.1,0.1,1.6,0.4
		c0.4,0.3,0.7,0.6,0.9,1.2c0.3-0.5,0.6-0.9,1.1-1.2c0.5-0.3,1-0.5,1.7-0.5c0.9,0,1.7,0.3,2.2,0.9c0.6,0.6,0.8,1.7,0.8,2.9v5.4H149
		v-5.5c0-0.8-0.2-1.6-0.5-1.9c-0.3-0.4-0.7-0.6-1.5-0.6c-0.6,0-1,0.2-1.4,0.6c-0.3,0.4-0.6,0.8-0.6,1.6v0.1v5.8h-1.8v-5.5
		c0-0.8-0.2-1.6-0.5-1.9c-0.3-0.4-0.7-0.6-1.4-0.6c-0.5,0-0.9,0.1-1.2,0.3s-0.6,0.5-0.7,0.8v6.8h-1.7v-9.1h1.6L139.5,38.8
		L139.5,38.8z"/>
	<path class="st1" d="M157,48.1c-1.2,0-2.3-0.4-3-1.2c-0.7-0.8-1.1-1.9-1.1-3.3v-0.4c0-1.4,0.4-2.4,1.1-3.2c0.7-0.8,1.8-1.4,2.8-1.4
		c1.2,0,2.2,0.4,2.8,1.1c0.6,0.7,0.9,1.8,0.9,3v1h-5.9l0,0c0,0.8,0.3,1.7,0.6,2.2c0.4,0.6,1,0.8,1.8,0.8c0.6,0,1-0.1,1.6-0.3
		c0.4-0.2,0.7-0.4,1.1-0.6l0.6,1c-0.3,0.3-0.7,0.6-1.4,0.7C158.3,48,157.7,48.1,157,48.1z M156.7,39.9c-0.6,0-1,0.2-1.5,0.6
		c-0.4,0.5-0.6,1-0.7,1.8l0,0h4.2v-0.2c0-0.6-0.2-1.2-0.5-1.7C157.9,40.1,157.4,39.9,156.7,39.9z"/>
	<path class="st1" d="M163.8,38.8l0.1,1.4c0.3-0.5,0.6-0.8,1.1-1.1s0.9-0.4,1.6-0.4c0.9,0,1.8,0.3,2.3,0.8c0.6,0.6,0.8,1.5,0.8,2.7
		V48h-1.7v-5.7c0-0.7-0.2-1.4-0.5-1.8c-0.3-0.4-0.7-0.5-1.5-0.5c-0.5,0-0.8,0.1-1.2,0.4c-0.4,0.2-0.6,0.6-0.8,0.9v6.7h-1.7V39h1.4
		L163.8,38.8L163.8,38.8z"/>
	<path class="st1" d="M174.3,36.6v2.2h1.8V40h-1.8v5.5c0,0.4,0.1,0.7,0.3,0.8c0.2,0.2,0.4,0.3,0.6,0.3c0.1,0,0.2,0,0.3,0
		c0.1,0,0.2-0.1,0.3-0.1l0.2,1.1c-0.1,0.1-0.3,0.2-0.6,0.3c-0.3,0.1-0.5,0.1-0.7,0.1c-0.6,0-1.2-0.2-1.7-0.6c-0.4-0.4-0.6-1-0.6-1.9
		V40H171v-1.2h1.5v-2.2L174.3,36.6L174.3,36.6L174.3,36.6z"/>
	<path class="st1" d="M183.6,45.5c0-0.4-0.1-0.6-0.4-0.8c-0.3-0.2-0.7-0.5-1.7-0.6c-1.1-0.3-1.9-0.6-2.5-0.9
		c-0.6-0.4-0.8-0.9-0.8-1.8c0-0.7,0.3-1.4,0.9-1.9c0.6-0.6,1.5-0.7,2.5-0.7c1,0,1.9,0.3,2.6,0.8c0.6,0.6,0.9,1.2,0.8,2v0.1h-1.7
		c0-0.4-0.2-0.7-0.5-1s-0.7-0.5-1.4-0.5c-0.6,0-1,0.1-1.4,0.4c-0.3,0.3-0.5,0.6-0.5,0.9c0,0.4,0.1,0.6,0.4,0.8
		c0.3,0.2,0.7,0.4,1.6,0.6c1.1,0.3,2,0.6,2.6,1c0.6,0.4,0.8,0.9,0.8,1.8c0,0.8-0.3,1.5-0.9,2c-0.6,0.5-1.6,0.7-2.6,0.7
		c-1.1,0-2.1-0.3-2.8-0.8c-0.6-0.6-0.9-1.2-0.9-2.1v-0.1h1.7c0,0.6,0.3,1,0.6,1.4c0.4,0.3,0.8,0.4,1.5,0.4c0.6,0,1-0.1,1.5-0.4
		C183.4,46.2,183.6,45.9,183.6,45.5z"/>
	<path class="st1" d="M192.2,47.9V40h-1.5v-1.2h1.5v-1.1c0-0.9,0.3-1.8,0.7-2.3c0.5-0.6,1.2-0.7,2.1-0.7c0.2,0,0.4,0,0.6,0
		c0.2,0,0.4,0.1,0.6,0.1l-0.2,1.2c-0.1,0-0.2,0-0.4-0.1c-0.2,0-0.3,0-0.5,0c-0.5,0-0.8,0.2-1,0.5s-0.4,0.6-0.4,1.2v1.1h1.9v1.2h-2v8
		L192.2,47.9L192.2,47.9L192.2,47.9z"/>
	<path class="st1" d="M197.2,43.2c0-1.4,0.4-2.5,1.1-3.3c0.7-0.8,1.8-1.4,3-1.4c1.2,0,2.3,0.5,3,1.4c0.7,0.8,1.1,2,1.1,3.3v0.2
		c0,1.4-0.4,2.5-1.1,3.3s-1.8,1.4-3,1.4c-1.2,0-2.3-0.5-3-1.4c-0.7-0.8-1.1-2-1.1-3.3L197.2,43.2L197.2,43.2z M198.8,43.4
		c0,0.9,0.2,1.8,0.6,2.4c0.4,0.6,1,0.9,1.8,0.9c0.7,0,1.5-0.3,1.8-0.9c0.4-0.6,0.6-1.5,0.6-2.4v-0.2c0-0.9-0.2-1.8-0.6-2.4
		c-0.4-0.6-1-0.9-1.8-0.9c-0.7,0-1.5,0.3-1.8,0.9c-0.4,0.6-0.6,1.5-0.6,2.4L198.8,43.4L198.8,43.4z"/>
	<path class="st1" d="M211.7,40.2l-0.8-0.1c-0.5,0-0.7,0.1-1.1,0.3c-0.4,0.2-0.6,0.5-0.6,0.8v6.6h-1.7v-9.1h1.6l0.2,1.4
		c0.3-0.5,0.6-0.8,0.9-1.1c0.4-0.3,0.8-0.4,1.4-0.4c0.1,0,0.3,0,0.4,0c0.1,0,0.2,0,0.3,0.1L211.7,40.2z"/>
	<path class="st1" d="M223,45.5c0-0.4-0.1-0.6-0.4-0.8c-0.3-0.2-0.7-0.5-1.7-0.6c-1.1-0.3-1.9-0.6-2.5-0.9c-0.6-0.4-0.8-0.9-0.8-1.8
		c0-0.7,0.3-1.4,0.9-1.9c0.6-0.6,1.5-0.7,2.5-0.7s1.9,0.3,2.6,0.8c0.6,0.6,0.9,1.2,0.8,2v0.1h-1.7c0-0.4-0.2-0.7-0.5-1
		s-0.7-0.5-1.4-0.5c-0.6,0-1,0.1-1.4,0.4c-0.3,0.3-0.5,0.6-0.5,0.9c0,0.4,0.1,0.6,0.4,0.8c0.3,0.2,0.7,0.4,1.6,0.6
		c1.1,0.3,2,0.6,2.6,1c0.6,0.4,0.8,0.9,0.8,1.8c0,0.8-0.3,1.5-0.9,2c-0.6,0.5-1.6,0.7-2.6,0.7c-1.1,0-2.1-0.3-2.8-0.8
		c-0.6-0.6-0.9-1.2-0.9-2.1v-0.1h1.7c0,0.6,0.3,1,0.6,1.4c0.4,0.3,0.8,0.4,1.5,0.4c0.6,0,1-0.1,1.5-0.4
		C222.8,46.2,223,45.9,223,45.5z"/>
	<path class="st1" d="M229,36.6v2.2h1.8V40H229v5.5c0,0.4,0.1,0.7,0.3,0.8c0.2,0.2,0.4,0.3,0.6,0.3c0.1,0,0.2,0,0.3,0
		c0.1,0,0.2-0.1,0.3-0.1l0.2,1.1c-0.1,0.1-0.3,0.2-0.6,0.3c-0.3,0.1-0.5,0.1-0.7,0.1c-0.6,0-1.2-0.2-1.7-0.6c-0.5-0.4-0.6-1-0.6-1.9
		V40h-1.5v-1.2h1.5v-2.2L229,36.6L229,36.6L229,36.6z"/>
	<path class="st1" d="M238.4,47.9c-0.1-0.3-0.1-0.5-0.1-0.7c0-0.3-0.1-0.4-0.1-0.6c-0.3,0.5-0.6,0.7-1.2,1.1c-0.5,0.3-1,0.5-1.7,0.5
		c-0.9,0-1.8-0.3-2.2-0.7c-0.5-0.5-0.7-1.1-0.7-2c0-0.8,0.4-1.6,1-2.1c0.6-0.5,1.7-0.7,2.9-0.7h1.8v-0.8c0-0.6-0.2-0.9-0.5-1.2
		s-0.7-0.5-1.5-0.5c-0.6,0-0.9,0.1-1.4,0.4c-0.5,0.3-0.5,0.6-0.5,0.9h-1.7v-0.1c0-0.6,0.3-1.2,0.9-1.8c0.6-0.6,1.6-0.8,2.6-0.8
		c1,0,1.9,0.3,2.5,0.7c0.6,0.5,0.9,1.2,0.9,2.3V46c0,0.3,0,0.6,0.1,0.9c0,0.3,0.1,0.6,0.2,0.8h-1.7v0.2H238.4z M235.6,46.7
		c0.6,0,1.1-0.2,1.7-0.5c0.5-0.3,0.7-0.6,0.9-1v-1.6h-1.9c-0.6,0-1.2,0.2-1.7,0.5c-0.5,0.3-0.6,0.7-0.6,1.1c0,0.4,0.1,0.7,0.4,0.9
		C234.8,46.6,235.1,46.7,235.6,46.7z"/>
	<path class="st1" d="M243,47.9V40h-1.5v-1.2h1.5v-1.1c0-0.9,0.3-1.8,0.7-2.3c0.5-0.6,1.2-0.7,2.1-0.7c0.2,0,0.4,0,0.6,0
		c0.2,0,0.4,0.1,0.6,0.1l-0.2,1.2c-0.1,0-0.2,0-0.4-0.1c-0.2,0-0.3,0-0.5,0c-0.5,0-0.8,0.2-1,0.5c-0.2,0.3-0.4,0.6-0.4,1.2v1.1h1.9
		v1.2h-1.9v8L243,47.9L243,47.9z"/>
	<path class="st1" d="M249,47.9V40h-1.5v-1.2h1.5v-1.1c0-0.9,0.3-1.8,0.7-2.3c0.5-0.6,1.2-0.7,2.1-0.7c0.2,0,0.4,0,0.6,0
		c0.2,0,0.4,0.1,0.6,0.1l-0.2,1.2c-0.1,0-0.2,0-0.4-0.1c-0.2,0-0.3,0-0.5,0c-0.5,0-0.8,0.2-1,0.5s-0.4,0.6-0.4,1.2v1.1h1.9v1.2h-1.9
		v8L249,47.9L249,47.9z"/>
	<path class="st1" d="M169.7,55.1l-0.8-0.1c-0.5,0-0.8,0.1-1.1,0.3s-0.6,0.5-0.6,0.8v6.6h-1.7v-9.1h1.6l0.2,1.4
		c0.3-0.5,0.6-0.8,0.9-1.1s0.8-0.4,1.4-0.4c0.1,0,0.3,0,0.4,0s0.2,0,0.3,0.1L169.7,55.1z"/>
	<path class="st1" d="M174.9,63.1c-1.2,0-2.3-0.4-3-1.2c-0.7-0.8-1.1-1.9-1.1-3.3v-0.4c0-1.4,0.4-2.4,1.1-3.2
		c0.7-0.8,1.8-1.4,2.8-1.4c1.2,0,2.2,0.4,2.8,1.1s0.9,1.8,0.9,3v1h-5.9l0,0c0,0.8,0.3,1.7,0.6,2.2c0.4,0.6,1,0.8,1.8,0.8
		c0.6,0,1-0.1,1.6-0.3c0.4-0.2,0.7-0.4,1.1-0.6l0.6,1c-0.3,0.3-0.7,0.6-1.4,0.7C176.4,63,175.8,63.1,174.9,63.1z M174.7,54.9
		c-0.6,0-1,0.2-1.5,0.6c-0.4,0.5-0.6,1-0.7,1.8l0,0h4.2v-0.2c0-0.6-0.2-1.2-0.5-1.7C175.9,55,175.4,54.9,174.7,54.9z"/>
	<path class="st1" d="M181.8,53.8l0.1,1.4c0.3-0.5,0.6-0.8,1.1-1.1c0.5-0.3,0.9-0.4,1.6-0.4c0.9,0,1.8,0.3,2.3,0.8
		c0.6,0.6,0.8,1.5,0.8,2.7V63h-1.7v-5.7c0-0.7-0.2-1.4-0.5-1.8c-0.3-0.4-0.7-0.6-1.5-0.6c-0.5,0-0.8,0.1-1.2,0.4
		c-0.4,0.3-0.6,0.6-0.8,0.9V63h-1.8v-9.1C180.4,53.8,181.8,53.8,181.8,53.8z"/>
	<path class="st1" d="M192.5,51.5v2.2h1.8V55h-1.8v5.5c0,0.4,0.1,0.7,0.3,0.8c0.2,0.2,0.4,0.3,0.6,0.3c0.1,0,0.2,0,0.3,0
		s0.2-0.1,0.3-0.1l0.2,1.1c-0.1,0.1-0.3,0.2-0.6,0.3c-0.3,0.1-0.5,0.1-0.7,0.1c-0.6,0-1.2-0.2-1.7-0.6c-0.5-0.4-0.6-1-0.6-1.9V55
		h-1.5v-1.2h1.5v-2.2L192.5,51.5L192.5,51.5L192.5,51.5z"/>
	<path class="st1" d="M206.2,62.9c-0.1-0.3-0.1-0.5-0.1-0.7s-0.1-0.4-0.1-0.6c-0.3,0.5-0.6,0.7-1.2,1.1c-0.5,0.3-1,0.5-1.7,0.5
		c-0.9,0-1.8-0.3-2.2-0.7c-0.5-0.5-0.7-1.1-0.7-2c0-0.8,0.4-1.6,1-2.1c0.6-0.5,1.7-0.7,2.9-0.7h1.8v-0.8c0-0.6-0.2-0.9-0.5-1.2
		c-0.3-0.3-0.7-0.5-1.5-0.5c-0.6,0-0.9,0.1-1.4,0.4c-0.4,0.3-0.5,0.6-0.5,0.9h-1.6v-0.1c0-0.6,0.3-1.2,0.9-1.8
		c0.6-0.6,1.6-0.8,2.6-0.8s1.9,0.3,2.5,0.7c0.6,0.5,0.9,1.2,0.9,2.3V61c0,0.3,0,0.6,0.1,0.9c0,0.3,0.1,0.6,0.2,0.8h-1.7L206.2,62.9
		L206.2,62.9z M203.4,61.7c0.6,0,1.1-0.2,1.7-0.5c0.5-0.3,0.7-0.6,0.9-1v-1.6h-1.9c-0.6,0-1.2,0.2-1.7,0.5c-0.4,0.3-0.6,0.7-0.6,1.1
		c0,0.4,0.1,0.7,0.4,0.9C202.6,61.6,202.9,61.7,203.4,61.7z"/>
	<path class="st1" d="M211.6,53.8l0.1,1.4c0.3-0.5,0.6-0.8,1.1-1.1c0.5-0.3,0.9-0.4,1.6-0.4c0.9,0,1.8,0.3,2.3,0.8
		c0.6,0.6,0.8,1.5,0.8,2.7V63h-1.7v-5.7c0-0.7-0.2-1.4-0.5-1.8c-0.3-0.4-0.7-0.5-1.5-0.5c-0.5,0-0.8,0.1-1.2,0.4
		c-0.4,0.2-0.6,0.6-0.8,0.9v6.7h-1.7v-9.1h1.4L211.6,53.8L211.6,53.8z"/>
	<path class="st1" d="M219.6,58.6c0-1.5,0.3-2.7,0.9-3.5c0.6-0.8,1.6-1.4,2.7-1.4c0.6,0,1,0.1,1.5,0.3c0.4,0.2,0.7,0.5,1,0.8v-5.1
		h1.7v13.2h-1.4l-0.2-1.1c-0.3,0.5-0.6,0.7-1.1,0.9c-0.5,0.2-0.9,0.3-1.6,0.3c-1.1,0-2-0.4-2.6-1.2C219.9,61,219.6,59.8,219.6,58.6
		L219.6,58.6L219.6,58.6z M221.2,58.7c0,0.9,0.2,1.7,0.6,2.2c0.4,0.6,0.9,0.8,1.8,0.8c0.5,0,0.9-0.1,1.2-0.4s0.6-0.6,0.8-0.9v-4.3
		c-0.2-0.4-0.5-0.6-0.8-0.8c-0.4-0.2-0.7-0.3-1.2-0.3c-0.7,0-1.5,0.3-1.8,0.9c-0.4,0.6-0.6,1.6-0.6,2.6L221.2,58.7
		C221.1,58.7,221.2,58.7,221.2,58.7z"/>
	<path class="st1" d="M112.2,78.6c-1.2,0-2.3-0.4-3-1.2c-0.7-0.8-1.1-1.9-1.1-3.3v-0.4c0-1.4,0.4-2.4,1.1-3.2s1.8-1.4,2.8-1.4
		c1.2,0,2.2,0.4,2.8,1.1c0.6,0.7,0.9,1.8,0.9,3v1h-5.9l0,0c0,0.8,0.3,1.7,0.6,2.2c0.4,0.6,1,0.8,1.8,0.8c0.6,0,1-0.1,1.6-0.3
		c0.4-0.2,0.7-0.4,1.1-0.6l0.6,1c-0.3,0.3-0.7,0.6-1.4,0.7C113.6,78.5,112.9,78.6,112.2,78.6z M111.9,70.4c-0.6,0-1,0.2-1.5,0.6
		c-0.4,0.5-0.6,1-0.7,1.8l0,0h4.2v-0.2c0-0.6-0.2-1.2-0.5-1.7C113.1,70.5,112.6,70.4,111.9,70.4z"/>
	<path class="st1" d="M120.7,72.6l1.9-3.3h1.9l-3,4.5l3,4.6h-1.9l-2-3.4l-2,3.4h-1.9l3-4.6l-3-4.5h1.9L120.7,72.6z"/>
	<path class="st1" d="M134.1,74.2c0,1.4-0.3,2.4-0.9,3.1c-0.6,0.7-1.6,1.2-2.6,1.2c-0.6,0-1-0.1-1.6-0.3c-0.4-0.2-0.7-0.5-1-0.8V82
		h-1.7V69.3h1.2l0.3,1.1c0.3-0.5,0.6-0.7,1.1-1c0.5-0.3,0.9-0.4,1.6-0.4c1.1,0,2,0.5,2.7,1.4c0.6,0.8,0.9,2.1,0.9,3.5L134.1,74.2
		L134.1,74.2z M132.4,74.1c0-1-0.2-1.9-0.6-2.6c-0.4-0.6-1-0.9-1.8-0.9c-0.5,0-0.8,0.1-1.2,0.3c-0.4,0.2-0.6,0.5-0.8,0.8v4.4
		c0.2,0.4,0.5,0.6,0.8,0.8c0.4,0.2,0.7,0.3,1.2,0.3c0.7,0,1.5-0.3,1.8-0.8S132.4,75,132.4,74.1L132.4,74.1z"/>
	<path class="st1" d="M139.9,78.6c-1.2,0-2.3-0.4-3-1.2c-0.7-0.8-1.1-1.9-1.1-3.3v-0.4c0-1.4,0.4-2.4,1.1-3.2s1.8-1.4,2.8-1.4
		c1.2,0,2.2,0.4,2.8,1.1c0.6,0.7,0.9,1.8,0.9,3v1h-5.9l0,0c0,0.8,0.3,1.7,0.6,2.2c0.4,0.6,1,0.8,1.8,0.8c0.6,0,1-0.1,1.6-0.3
		c0.4-0.2,0.7-0.4,1.1-0.6l0.6,1c-0.3,0.3-0.7,0.6-1.4,0.7C141.3,78.5,140.6,78.6,139.9,78.6z M139.7,70.4c-0.6,0-1,0.2-1.5,0.6
		c-0.4,0.5-0.6,1-0.7,1.8l0,0h4.2v-0.2c0-0.6-0.2-1.2-0.5-1.7C140.9,70.5,140.3,70.4,139.7,70.4z"/>
	<path class="st1" d="M146.8,69.3l0.1,1.4c0.3-0.5,0.6-0.8,1.1-1.1c0.5-0.3,0.9-0.4,1.6-0.4c0.9,0,1.8,0.3,2.3,0.8s0.8,1.5,0.8,2.7
		v5.8H151v-5.7c0-0.7-0.2-1.4-0.5-1.8s-0.7-0.5-1.5-0.5c-0.5,0-0.8,0.1-1.2,0.4c-0.4,0.2-0.6,0.6-0.8,0.9v6.7h-1.7v-9.1h1.4V69.3
		L146.8,69.3z"/>
	<path class="st1" d="M160.5,75.9c0-0.4-0.1-0.6-0.4-0.8c-0.3-0.2-0.7-0.5-1.7-0.6c-1.1-0.3-1.9-0.6-2.5-0.9
		c-0.6-0.4-0.8-0.9-0.8-1.8c0-0.8,0.3-1.4,0.9-1.9c0.6-0.6,1.5-0.7,2.5-0.7s1.9,0.3,2.6,0.8c0.6,0.6,0.9,1.2,0.8,2v0.1h-1.7
		c0-0.4-0.2-0.7-0.5-1s-0.7-0.5-1.4-0.5c-0.6,0-1,0.1-1.4,0.4c-0.3,0.3-0.5,0.6-0.5,0.9s0.1,0.6,0.4,0.8c0.3,0.2,0.7,0.4,1.6,0.6
		c1.1,0.3,2,0.6,2.6,1c0.6,0.4,0.8,0.9,0.8,1.8c0,0.8-0.3,1.5-0.9,2c-0.6,0.5-1.6,0.7-2.6,0.7c-1.1,0-2.1-0.3-2.8-0.8
		c-0.6-0.6-0.9-1.2-0.9-2.1v-0.1h1.7c0,0.6,0.3,1,0.6,1.4c0.4,0.3,0.8,0.4,1.5,0.4c0.6,0,1-0.1,1.5-0.4
		C160.3,76.7,160.5,76.3,160.5,75.9z"/>
	<path class="st1" d="M168.1,78.6c-1.2,0-2.3-0.4-3-1.2c-0.7-0.8-1.1-1.9-1.1-3.3v-0.4c0-1.4,0.4-2.4,1.1-3.2
		c0.7-0.8,1.8-1.4,2.8-1.4c1.2,0,2.2,0.4,2.8,1.1c0.6,0.7,0.9,1.8,0.9,3v1h-5.9l0,0c0,0.8,0.3,1.7,0.6,2.2c0.4,0.6,1,0.8,1.8,0.8
		c0.6,0,1-0.1,1.6-0.3c0.4-0.2,0.7-0.4,1.1-0.6l0.6,1c-0.3,0.3-0.7,0.6-1.4,0.7C169.4,78.5,168.8,78.6,168.1,78.6z M167.8,70.4
		c-0.6,0-1,0.2-1.5,0.6c-0.4,0.5-0.6,1-0.7,1.8l0,0h4.2v-0.2c0-0.6-0.2-1.2-0.5-1.7C169,70.5,168.5,70.4,167.8,70.4z"/>
	<path class="st1" d="M178.8,75.9c0-0.4-0.1-0.6-0.4-0.8c-0.3-0.2-0.7-0.5-1.7-0.6c-1.1-0.3-1.9-0.6-2.5-0.9s-0.8-0.9-0.8-1.8
		c0-0.8,0.3-1.4,0.9-1.9c0.6-0.6,1.5-0.7,2.5-0.7s1.9,0.3,2.6,0.8c0.6,0.6,0.9,1.2,0.8,2v0.1h-1.7c0-0.4-0.2-0.7-0.5-1
		s-0.7-0.5-1.4-0.5c-0.6,0-1,0.1-1.4,0.4c-0.3,0.3-0.5,0.6-0.5,0.9s0.1,0.6,0.4,0.8c0.3,0.2,0.7,0.4,1.6,0.6c1.1,0.3,2,0.6,2.6,1
		c0.6,0.4,0.8,0.9,0.8,1.8c0,0.8-0.3,1.5-0.9,2c-0.6,0.5-1.6,0.7-2.6,0.7c-1.1,0-2.1-0.3-2.8-0.8c-0.6-0.6-0.9-1.2-0.9-2.1v-0.1h1.7
		c0,0.6,0.3,1,0.6,1.4c0.4,0.3,0.8,0.4,1.5,0.4c0.6,0,1-0.1,1.5-0.4C178.6,76.7,178.8,76.3,178.8,75.9z"/>
	<g>
		<path class="st1" d="M111.5,59.4l0.2,1.1h0.1l0.2-1.1l1.8-5.8h1.4l1.8,5.8l0.3,1.2h0.1l0.3-1.2l1.5-5.8h1.7l-2.7,9.1h-1.4
			l-1.8-5.5l-0.4-1.6h-0.1l-0.4,1.6l-1.8,5.5H111l-2.7-9.1h1.7L111.5,59.4z"/>
		<path class="st1" d="M127.9,62.7c-0.1-0.3-0.1-0.5-0.1-0.7s-0.1-0.4-0.1-0.6c-0.3,0.5-0.6,0.7-1.2,1.1c-0.5,0.3-1,0.5-1.7,0.5
			c-0.9,0-1.8-0.3-2.2-0.7c-0.5-0.5-0.7-1.1-0.7-2c0-0.8,0.4-1.6,1-2.1c0.6-0.5,1.7-0.7,2.9-0.7h1.8v-0.8c0-0.6-0.2-0.9-0.5-1.2
			c-0.3-0.3-0.7-0.5-1.5-0.5c-0.6,0-0.9,0.1-1.4,0.4c-0.5,0.3-0.5,0.6-0.5,0.9h-1.7V56c0-0.6,0.3-1.2,0.9-1.8
			c0.6-0.6,1.6-0.8,2.6-0.8c1,0,1.9,0.3,2.5,0.7c0.6,0.5,0.9,1.2,0.9,2.3v4.4c0,0.3,0,0.6,0.1,0.9c0,0.3,0.1,0.6,0.2,0.8h-1.7v0.2
			H127.9z M125.2,61.5c0.6,0,1.1-0.2,1.7-0.5c0.5-0.3,0.7-0.6,0.9-1v-1.6h-1.9c-0.6,0-1.2,0.2-1.7,0.5c-0.5,0.3-0.6,0.7-0.6,1.1
			s0.1,0.7,0.4,0.9C124.2,61.3,124.6,61.5,125.2,61.5z"/>
		<path class="st1" d="M131.4,58.3c0-1.5,0.3-2.7,0.9-3.5c0.6-0.8,1.6-1.4,2.7-1.4c0.6,0,1,0.1,1.6,0.4c0.5,0.3,0.7,0.6,1.1,1
			l0.2-1.2h1.4v9.1c0,1.1-0.4,2.1-1,2.7c-0.6,0.6-1.7,0.9-3,0.9c-0.5,0-0.9-0.1-1.5-0.2c-0.5-0.1-0.9-0.3-1.4-0.5l0.5-1.2
			c0.3,0.2,0.6,0.3,1,0.4c0.4,0.1,0.8,0.2,1.2,0.2c0.8,0,1.5-0.2,1.8-0.6c0.4-0.4,0.6-0.9,0.6-1.8v-1c-0.3,0.4-0.6,0.6-1,0.8
			c-0.4,0.2-0.8,0.3-1.5,0.3c-1.1,0-2-0.4-2.7-1.2c-0.6-0.8-0.9-1.9-0.9-3.1V58.3z M133.1,58.5c0,0.9,0.2,1.7,0.6,2.2
			c0.4,0.6,0.9,0.8,1.8,0.8c0.5,0,0.9-0.1,1.2-0.4c0.3-0.3,0.6-0.6,0.8-0.9V56c-0.2-0.4-0.5-0.6-0.8-0.9s-0.7-0.4-1.2-0.4
			c-0.7,0-1.5,0.3-1.8,0.9c-0.4,0.6-0.6,1.6-0.6,2.6V58.5z"/>
		<path class="st1" d="M145.5,62.9c-1.2,0-2.3-0.4-3-1.2c-0.7-0.8-1.1-1.9-1.1-3.3V58c0-1.4,0.4-2.4,1.1-3.2
			c0.7-0.8,1.8-1.4,2.8-1.4c1.2,0,2.2,0.4,2.8,1.1c0.6,0.7,0.9,1.8,0.9,3v1H143l0,0c0,0.8,0.3,1.7,0.6,2.2c0.4,0.6,1,0.8,1.8,0.8
			c0.6,0,1-0.1,1.6-0.3c0.4-0.2,0.7-0.4,1.1-0.6l0.6,1c-0.3,0.3-0.7,0.6-1.4,0.7C146.8,62.8,146.3,62.9,145.5,62.9z M145.2,54.7
			c-0.6,0-1,0.2-1.5,0.6c-0.4,0.5-0.6,1-0.7,1.8l0,0h4.2V57c0-0.6-0.2-1.2-0.5-1.7C146.5,54.9,145.9,54.7,145.2,54.7z"/>
		<path class="st1" d="M156.2,60.2c0-0.4-0.1-0.6-0.4-0.8s-0.7-0.5-1.7-0.6c-1.1-0.3-1.9-0.6-2.5-0.9c-0.6-0.4-0.8-0.9-0.8-1.8
			c0-0.7,0.3-1.4,0.9-1.9c0.6-0.6,1.5-0.7,2.5-0.7s1.9,0.3,2.6,0.8c0.6,0.6,0.9,1.2,0.8,2v0.1H156c0-0.4-0.2-0.7-0.5-1
			c-0.3-0.3-0.7-0.5-1.4-0.5c-0.6,0-1,0.1-1.4,0.4c-0.3,0.3-0.5,0.6-0.5,0.9s0.1,0.6,0.4,0.8c0.3,0.2,0.7,0.4,1.6,0.6
			c1.1,0.3,2,0.6,2.6,1c0.6,0.4,0.8,0.9,0.8,1.8c0,0.8-0.3,1.5-0.9,2c-0.6,0.5-1.6,0.7-2.6,0.7c-1.1,0-2.1-0.3-2.8-0.8
			c-0.6-0.6-0.9-1.2-0.9-2.1v-0.1h1.7c0,0.6,0.3,1,0.6,1.4c0.4,0.3,0.8,0.4,1.5,0.4c0.6,0,1-0.1,1.5-0.4
			C156,61,156.2,60.7,156.2,60.2z"/>
		<path class="st1" d="M161.3,62.3l-1.2,2.6h-0.9l0.6-2.7v-1.4h1.7L161.3,62.3L161.3,62.3z"/>
	</g>
</g>
<g>
	<g>
		<g>
			<g>
				<path class="st1" d="M71.5,62.4c-0.6-0.5-7.6-8.2-9.5-9.2V33.3c0-2-1.7-3.6-3.6-3.6H39.5c-2,0-3.6,1.7-3.6,3.6v34.8
					c0,2,1.7,3.6,3.6,3.6h6h2.2l-0.4-2.9c-0.1-0.1-0.2-0.2-0.3-0.3h-1.2h-2.5c0.1-0.5,0.2-1,0.1-1.6c-0.3-1.6-1.5-2.7-3-3
					c-0.6-0.1-1-0.1-1.7,0.1V37c0.2,0,0.5,0.1,0.6,0.1c2,0,3.7-1.7,3.7-3.7c0-0.2,0-0.5-0.1-0.6h11.2c0,0.2-0.1,0.5-0.1,0.6
					c0,2,1.7,3.7,3.7,3.7c0.2,0,0.5,0,0.6-0.1v26.5l0,0v7.7c-1.2-0.9-2.7-3.9-2.7-3.9s-0.6-7.8-4.7-7.8c-0.1,0-0.2,0-0.3,0
					c0,0-3,0.3-0.5,8.8l1.3,9.6c0,0,1.2,5.2,4.7,8.7v1c0,0.6,0.5,1,1,1h11.2c0.6,0,0.9-0.4,1-0.9C70,83.8,71.6,70,72.5,68
					c0.2-0.4,0.3-0.6,0.3-1C72.9,65.8,73,63.6,71.5,62.4z"/>
			</g>
			<g>
				<circle class="st1" cx="49.3" cy="39.3" r="2.2"/>
			</g>
			<g>
				<g>
					<path class="st1" d="M40.9,51c0,3.8,2.7,7,6.2,7.8c0.1-0.2,0.2-0.4,0.4-0.6c1.1-1.8,2.8-2,3.3-2.1c0.2,0,0.5,0,0.6,0
						c0.7,0,1.8,0.2,2.9,0.7c1.6-1.5,2.5-3.5,2.5-5.8c0-4.4-3.6-8-8-8S40.9,46.5,40.9,51z M44.1,50.2c0.5,0,0.5,0,0.6-0.5
						c0.1-0.4,0.2-0.7,0.3-1c0.1-0.2,0.2-0.3,0.4-0.2c0.3,0.1,0.6,0.2,0.8,0.3s0.3,0.2,0.2,0.5c-0.3,0.6-0.4,1-0.4,1.8
						c0,0.2,0,0.3,0.1,0.5c0.2,0.5,0.7,0.6,1.1,0.2c0.2-0.2,0.3-0.5,0.4-0.7c0.2-0.5,0.4-0.9,0.6-1.4c0.7-1.4,2.5-1.8,3.6-0.7
						c0.4,0.4,0.6,0.7,0.8,1.4c0.1,0.2,0.2,0.4,0.4,0.3c0.2-0.1,0.5,0,0.6,0s0.3,0.1,0.3,0.3c0,0.3,0,0.5,0,0.7
						c0,0.2-0.1,0.3-0.4,0.3c-0.2,0-0.4,0-0.5,0c-0.4,0-0.4,0-0.5,0.4c-0.1,0.5-0.2,0.9-0.4,1.4c-0.2,0.4-0.3,0.4-0.6,0.3
						s-0.6-0.2-0.7-0.2c-0.3-0.1-0.4-0.2-0.2-0.5c0.3-0.5,0.4-0.9,0.5-1.6c0.1-0.4,0-0.6-0.1-0.9c-0.3-0.6-0.9-0.6-1.4-0.2
						c-0.2,0.2-0.3,0.4-0.3,0.6c-0.2,0.5-0.4,1-0.6,1.6c-0.5,0.7-1.1,1.2-2.1,1.2c-1-0.1-1.8-0.6-2.1-1.8c-0.2-0.4-0.2-0.4-0.6-0.4
						c-0.2,0-0.3,0-0.5,0c-0.3,0-0.4-0.1-0.4-0.4c0-0.1,0-0.2,0-0.3C43.4,50.2,43.4,50.2,44.1,50.2z"/>
				</g>
			</g>
		</g>
	</g>
</g>
</svg>
