<?xml version="1.0" encoding="utf-8"?>
<!-- Generator: Adobe Illustrator 21.0.0, SVG Export Plug-In . SVG Version: 6.00 Build 0)  -->
<svg version="1.1" id="Capa_1" xmlns="http://www.w3.org/2000/svg" xmlns:xlink="http://www.w3.org/1999/xlink" x="0px" y="0px"
	 viewBox="0 0 322 108" style="enable-background:new 0 0 322 108;" xml:space="preserve">
<style type="text/css">
	.st0{fill:url(#SVGID_1_);}
	.st1{fill:#2366BB;}
</style>
<g>
	
		<linearGradient id="SVGID_1_" gradientUnits="userSpaceOnUse" x1="213.4734" y1="55.9867" x2="321.5" y2="55.9867" gradientTransform="matrix(1 0 0 -1 0 110)">
		<stop  offset="0" style="stop-color:#00B2F5"/>
		<stop  offset="1" style="stop-color:#383897"/>
	</linearGradient>
	<path class="st0" d="M267.5,108c-29.9,0-54-24.3-54-54s24.3-54,54-54c29.9,0,54,24.3,54,54S297.3,108,267.5,108z M267.5,3.3
		c-27.9,0-50.7,22.8-50.7,50.7s22.8,50.7,50.7,50.7s50.7-22.8,50.7-50.7S295.4,3.3,267.5,3.3z"/>
</g>
<g>
	<path class="st1" d="M67.8,56.3c0-0.6-0.2-1.2-0.8-1.5s-1.3-0.8-2.5-1.1c-1.7-0.4-3-1.1-4-1.8c-1-0.8-1.4-1.7-1.4-2.9
		s0.5-2.3,1.5-3c1-0.8,2.4-1.2,4-1.2c1.7,0,3,0.4,4.1,1.4c1.1,1,1.5,2,1.5,3.2v0.1h-2.5c0-0.8-0.2-1.4-0.8-1.9s-1.3-0.8-2.3-0.8
		c-1,0-1.6,0.2-2.1,0.6c-0.5,0.4-0.8,1-0.8,1.6c0,0.5,0.3,1.1,0.9,1.4c0.5,0.3,1.4,0.8,2.7,1.1c1.6,0.4,2.9,1.1,3.8,1.8
		c0.9,0.8,1.3,1.7,1.3,3s-0.5,2.3-1.5,3c-1,0.8-2.4,1.1-4,1.1s-3-0.4-4.2-1.3c-1.2-0.9-1.9-1.9-1.9-3.4v-0.1h2.5c0,1,0.3,1.6,1,2
		c0.6,0.4,1.5,0.6,2.5,0.6c1,0,1.7-0.2,2.3-0.5S67.8,57,67.8,56.3z"/>
	<path class="st1" d="M75.9,46.2V49h2v1.9h-2v6.2c0,0.4,0.1,0.8,0.3,1c0.2,0.2,0.4,0.3,0.9,0.3c0.1,0,0.3,0,0.4,0
		c0.1,0,0.2-0.1,0.4-0.1l0.3,1.8c-0.2,0.1-0.4,0.2-0.8,0.3c-0.3,0.1-0.6,0.1-1,0.1c-1,0-1.7-0.3-2.3-0.9c-0.5-0.5-0.8-1.4-0.8-2.6
		v-6.2h-1.7V49h1.7v-2.8H75.9z"/>
	<path class="st1" d="M79.7,54.4c0-1.7,0.4-3.1,1.4-4.2c1-1.1,2.3-1.6,3.8-1.6c1.6,0,2.9,0.5,3.9,1.6c1,1.1,1.4,2.5,1.4,4.2v0.2
		c0,1.7-0.4,3.1-1.4,4.2c-1,1.1-2.1,1.6-3.8,1.6s-2.9-0.5-3.9-1.6c-1-1.1-1.4-2.5-1.4-4.2V54.4z M82.3,54.7c0,1.1,0.2,2,0.6,2.7
		c0.4,0.6,1.1,1.1,2,1.1c0.9,0,1.5-0.3,2-1.1c0.4-0.8,0.6-1.6,0.6-2.7v-0.2c0-1.1-0.2-1.9-0.6-2.7c-0.4-0.8-1.1-1.1-2-1.1
		c-0.9,0-1.5,0.3-2,1.1c-0.4,0.8-0.6,1.6-0.6,2.7V54.7z"/>
	<path class="st1" d="M98,51.2H97c-0.5,0-0.9,0.1-1.3,0.3c-0.4,0.2-0.5,0.5-0.8,0.9v7.8h-2.6V48.9h2.4l0.2,1.6
		c0.3-0.5,0.6-1.1,1.1-1.4c0.4-0.3,1-0.5,1.6-0.5c0.1,0,0.3,0,0.4,0c0.1,0,0.2,0.1,0.3,0.1L98,51.2z"/>
	<path class="st1" d="M102.1,48.9l0.1,1.5c0.3-0.5,0.9-1,1.4-1.3s1.2-0.4,1.9-0.4s1.4,0.2,1.9,0.5c0.5,0.3,1,0.9,1.2,1.5
		c0.3-0.6,0.9-1.1,1.4-1.5s1.3-0.5,2-0.5c1.2,0,2,0.4,2.7,1.2c0.6,0.8,1,1.9,1,3.5v6.9h-2.6v-6.9c0-1-0.2-1.6-0.5-2
		s-0.9-0.5-1.5-0.5c-0.5,0-1,0.1-1.4,0.4c-0.4,0.3-0.6,0.6-0.9,1.2c0,0.1,0,0.2,0,0.3c0,0.1,0,0.1,0,0.2v7.3h-2.6v-6.9
		c0-1-0.2-1.6-0.5-2c-0.3-0.4-0.9-0.6-1.5-0.6c-0.5,0-1,0.1-1.3,0.3c-0.3,0.2-0.6,0.4-0.9,0.9v8.4h-2.6V48.9H102.1z"/>
	<path class="st1" d="M124.1,60.2V45h4.9c1.9,0,3.5,0.6,4.7,1.8c1.2,1.2,1.8,2.8,1.8,4.6v2.4c0,1.9-0.6,3.4-1.8,4.6
		c-1.2,1.2-2.8,1.8-4.7,1.8C129.1,60.2,124.1,60.2,124.1,60.2z M126.7,47v11.2h2.4c1.3,0,2.3-0.4,3-1.3c0.8-0.9,1.1-1.9,1.1-3.2
		v-2.4c0-1.3-0.3-2.4-1.1-3.2c-0.8-0.9-1.7-1.3-3-1.3h-2.4V47z"/>
	<path class="st1" d="M144.7,60.2c-0.1-0.3-0.2-0.5-0.2-0.9c0-0.3-0.1-0.5-0.1-0.9c-0.3,0.5-0.9,1-1.4,1.3c-0.5,0.3-1.2,0.5-1.9,0.5
		c-1.2,0-2-0.3-2.7-0.9s-1-1.4-1-2.5c0-1.1,0.4-1.9,1.3-2.6c0.9-0.6,2-1,3.7-1h1.9v-0.9c0-0.6-0.2-1.1-0.5-1.4
		c-0.3-0.3-0.9-0.5-1.5-0.5c-0.5,0-1.1,0.1-1.4,0.4c-0.3,0.3-0.5,0.6-0.5,1.1h-2.5v-0.1c0-0.9,0.3-1.7,1.2-2.4
		c0.9-0.6,1.9-1.1,3.3-1.1c1.3,0,2.4,0.3,3.2,1c0.9,0.6,1.2,1.6,1.2,2.9v5c0,0.4,0,1,0.1,1.4c0.1,0.4,0.2,0.9,0.3,1.3
		C147.2,60.2,144.7,60.2,144.7,60.2z M141.6,58.4c0.6,0,1.2-0.1,1.7-0.4c0.5-0.3,0.9-0.6,1.1-1.1v-1.7h-2c-0.8,0-1.3,0.2-1.7,0.5
		S140,56.5,140,57c0,0.4,0.1,0.8,0.4,1.1C140.8,58.4,141.1,58.4,141.6,58.4z"/>
	<path class="st1" d="M151.9,48.9l0.1,1.5c0.3-0.5,0.9-1,1.4-1.3s1.2-0.4,1.9-0.4c0.8,0,1.4,0.2,1.9,0.5c0.5,0.3,1,0.9,1.2,1.5
		c0.3-0.6,0.9-1.1,1.4-1.5c0.5-0.4,1.3-0.5,2-0.5c1.2,0,2,0.4,2.7,1.2c0.6,0.8,1,1.9,1,3.5v6.9H163v-6.9c0-1-0.2-1.6-0.5-2
		c-0.3-0.4-0.9-0.5-1.5-0.5c-0.5,0-1,0.1-1.4,0.4c-0.4,0.3-0.6,0.6-0.9,1.2c0,0.1,0,0.2,0,0.3c0,0.1,0,0.1,0,0.2v7.3h-2.6v-6.9
		c0-1-0.2-1.6-0.5-2c-0.3-0.4-0.9-0.6-1.5-0.6c-0.5,0-1,0.1-1.3,0.3c-0.3,0.2-0.6,0.4-0.9,0.9v8.4h-2.6V48.9H151.9z"/>
	<path class="st1" d="M175.1,60.2c-0.1-0.3-0.2-0.5-0.2-0.9c0-0.3-0.1-0.5-0.1-0.9c-0.3,0.5-0.9,1-1.4,1.3c-0.5,0.3-1.2,0.5-1.9,0.5
		c-1.2,0-2-0.3-2.7-0.9s-1-1.4-1-2.5c0-1.1,0.4-1.9,1.3-2.6c0.9-0.6,2-1,3.7-1h1.9v-0.9c0-0.6-0.2-1.1-0.5-1.4
		c-0.3-0.3-0.9-0.5-1.5-0.5c-0.5,0-1.1,0.1-1.4,0.4c-0.3,0.3-0.5,0.6-0.5,1.1h-2.4v-0.1c0-0.9,0.3-1.7,1.2-2.4
		c0.9-0.6,1.9-1.1,3.3-1.1c1.3,0,2.4,0.3,3.2,1c0.9,0.6,1.2,1.6,1.2,2.9v5c0,0.4,0,1,0.1,1.4c0.1,0.4,0.2,0.9,0.3,1.3
		C177.7,60.2,175.1,60.2,175.1,60.2z M172,58.4c0.6,0,1.2-0.1,1.7-0.4c0.5-0.3,0.9-0.6,1.1-1.1v-1.7h-2.1c-0.8,0-1.3,0.2-1.7,0.5
		c-0.4,0.3-0.6,0.8-0.6,1.3c0,0.4,0.1,0.8,0.4,1.1C171.1,58.4,171.5,58.4,172,58.4z"/>
	<path class="st1" d="M179.5,54.8c0-1.8,0.4-3.2,1.2-4.4c0.8-1.2,1.9-1.7,3.3-1.7c0.6,0,1.3,0.1,1.8,0.4s1,0.8,1.3,1.3l0.2-1.5h2.1
		v11.4c0,1.5-0.4,2.6-1.4,3.4c-1,0.9-2.1,1.2-3.9,1.2c-0.5,0-1.2-0.1-1.8-0.2c-0.6-0.1-1.2-0.3-1.7-0.6l0.5-2
		c0.4,0.2,0.9,0.4,1.4,0.5s1.1,0.2,1.6,0.2c1,0,1.6-0.2,2-0.6c0.4-0.4,0.6-1,0.6-1.8v-1.2c-0.3,0.4-0.8,0.8-1.3,1.1
		s-1.1,0.3-1.7,0.3c-1.4,0-2.5-0.5-3.2-1.5c-0.8-1-1.2-2.4-1.2-4L179.5,54.8L179.5,54.8z M182,55c0,1.1,0.2,1.8,0.6,2.5
		c0.4,0.6,1.1,1,1.9,1c0.5,0,1-0.1,1.4-0.3c0.4-0.2,0.6-0.5,0.9-1v-4.9c-0.2-0.4-0.5-0.8-1-1c-0.4-0.2-0.9-0.3-1.4-0.3
		c-0.9,0-1.5,0.3-1.9,1.1c-0.4,0.8-0.6,1.7-0.6,2.9V55H182z"/>
	<path class="st1" d="M196.9,60.5c-1.6,0-2.9-0.5-3.9-1.6c-1-1.1-1.4-2.4-1.4-4.1v-0.4c0-1.6,0.4-3,1.4-4.1c1-1.1,2.1-1.6,3.5-1.6
		c1.5,0,2.7,0.4,3.5,1.4c0.9,1,1.2,2.1,1.2,3.8v1.5h-7.1l0,0c0,0.9,0.3,1.6,0.8,2.3c0.5,0.5,1.2,0.9,2,0.9c0.6,0,1.3-0.1,1.7-0.2
		s1-0.4,1.4-0.8l0.9,1.7c-0.4,0.4-1,0.8-1.7,1C198.8,60.3,197.9,60.5,196.9,60.5z M196.7,50.8c-0.6,0-1.2,0.2-1.5,0.8
		c-0.3,0.5-0.6,1.2-0.8,1.9l0,0h4.5v-0.2c0-0.8-0.2-1.3-0.5-1.7C198.1,51.1,197.5,50.8,196.7,50.8z"/>
</g>
<g>
	<g>
		<g>
			<g>
				<path class="st1" d="M295.3,34.8c-0.6,0-1.3,0.5-1.3,1.3c0,1.1-1.2,2.4-3.1,3.4c0.4-2.1,0.6-4.5,0.6-7.1c0,0,0-0.2,0-0.3
					c0-0.2,0-0.4-0.1-0.6c-1.9-5.4-23.9-5.5-24.9-5.5c-7.9,0-23.3,1.1-24.9,5.4c-0.1,0.3-0.1,0.6-0.1,0.9l0,0c0,2.7,2.4,4.7,5.2,7.1
					c3.4,3,7.4,6.4,7.4,11.7c0,4.7-1.2,6.7-2.4,8.8c-1.3,2.1-2.6,4.5-2.7,9.3c-3.1-1.2-5-2.8-5-4.4c0-1.3,1.4-2.7,4-3.9
					c0.6-0.3,0.9-1.1,0.6-1.6c-0.3-0.6-1.1-0.9-1.6-0.6c-3.5,1.6-5.4,3.8-5.4,6.1c0,5,8.4,8.8,19.4,8.8c11.1,0,19.4-3.8,19.4-8.8
					c0-1-0.3-1.9-1-2.9c-0.4-0.5-1.2-0.6-1.7-0.3c-0.5,0.4-0.6,1.2-0.3,1.7c0.3,0.5,0.5,1,0.5,1.4c0,2.4-4.6,5-11.6,5.9
					c3.2-5.8,7.5-9.2,11.7-12.6c3.7-2.9,7.1-5.7,9.7-9.8c0.3-0.4,0.2-1-0.1-1.4c-0.3-0.4-0.9-0.6-1.3-0.4c-4.9,1.3-11,2-17.2,2
					c-3.1,0-6.2-0.2-9.2-0.5c-0.6-0.1-1.2-0.8-1.1-1.4c0.1-0.6,0.8-1.2,1.4-1.1c2.9,0.3,5.9,0.5,8.9,0.5c7.9,0,15.5-1.2,20.6-3.2
					l0,0c5.7-2.3,7-4.9,7-6.8C296.6,35.4,296.1,34.8,295.3,34.8z M266.5,33.6c-6.8,0-11.9-0.5-15.4-1.3c3.4-0.6,8.6-1.3,15.4-1.3
					c6.8,0,11.9,0.5,15.4,1.3C278.4,33,273.3,33.6,266.5,33.6z"/>
				<path class="st1" d="M262,76.1h-1.1c-3,0-6-0.3-8.8-0.9c-0.4-0.1-1,0.1-1.3,0.4c-0.3,0.4-0.3,0.9-0.1,1.3c3,5.9,8.7,8.8,9,9
					c0.2,0.1,0.3,0.1,0.5,0.1c0.2,0,0.4,0,0.5-0.1c0.3-0.2,0.6-0.5,0.6-1c0.4-2.6,1-4.9,1.7-7.4c0.1-0.4,0-0.8-0.2-1.2
					C262.8,76.3,262.3,76.1,262,76.1z"/>
			</g>
		</g>
	</g>
</g>
</svg>
