<?xml version="1.0" encoding="utf-8"?>
<!-- Generator: Adobe Illustrator 21.0.0, SVG Export Plug-In . SVG Version: 6.00 Build 0)  -->
<svg version="1.1" id="Capa_1" xmlns="http://www.w3.org/2000/svg" xmlns:xlink="http://www.w3.org/1999/xlink" x="0px" y="0px"
	 viewBox="0 0 322 108" style="enable-background:new 0 0 322 108;" xml:space="preserve">
<style type="text/css">
	.st0{fill:url(#SVGID_1_);}
	.st1{fill:#2366BB;}
</style>
<g>
	
		<linearGradient id="SVGID_1_" gradientUnits="userSpaceOnUse" x1="214.5757" y1="-676.3029" x2="321.75" y2="-676.3029" gradientTransform="matrix(1 0 0 -1 0 -621.89)">
		<stop  offset="0" style="stop-color:#00B2F5"/>
		<stop  offset="1" style="stop-color:#383897"/>
	</linearGradient>
	<path class="st0" d="M268.2,108c-29.6,0-53.6-24.1-53.6-53.6s24.1-53.6,53.6-53.6c29.6,0,53.6,24.1,53.6,53.6S297.8,108,268.2,108z
		 M268.2,4.1c-27.7,0-50.3,22.6-50.3,50.3s22.6,50.3,50.3,50.3s50.3-22.6,50.3-50.3S295.9,4.1,268.2,4.1z"/>
</g>
<g>
	<path class="st1" d="M90.8,57.1c0-0.6-0.2-1.2-0.7-1.6c-0.5-0.4-1.4-0.7-2.6-1.2c-1.8-0.4-3.2-1.1-4.2-1.8c-1-0.7-1.4-1.8-1.4-3
		c0-1.3,0.5-2.3,1.6-3.2c1.1-0.9,2.5-1.3,4.2-1.3s3.2,0.4,4.3,1.4c1.1,1,1.6,2,1.5,3.4v0.1h-2.6c0-0.9-0.3-1.5-0.9-2
		c-0.5-0.5-1.4-0.7-2.3-0.7c-1,0-1.7,0.2-2.2,0.6c-0.6,0.3-0.9,1-0.9,1.6c0,0.6,0.3,1.1,0.9,1.5c0.5,0.4,1.5,0.7,2.8,1.2
		c1.7,0.4,3,1.1,3.9,1.9c0.9,0.9,1.4,1.8,1.4,3.1c0,1.3-0.5,2.3-1.6,3.2c-1.1,0.7-2.5,1.2-4.2,1.2c-1.7,0-3.1-0.4-4.4-1.3
		s-1.8-2.1-1.8-3.6v-0.1h2.6c0,1,0.3,1.7,1,2.1c0.6,0.4,1.5,0.7,2.7,0.7c1,0,1.7-0.2,2.3-0.6C90.6,58.2,90.8,57.7,90.8,57.1z"/>
	<path class="st1" d="M103.2,59.4c-0.3,0.6-0.9,1.1-1.4,1.5c-0.5,0.3-1.2,0.5-1.9,0.5c-1.3,0-2.2-0.4-3-1.2s-1.1-2-1.1-3.7v-7h2.7
		v7.1c0,1.1,0.2,1.8,0.5,2.1s0.9,0.6,1.5,0.6c0.6,0,1.2-0.1,1.6-0.3c0.4-0.2,0.7-0.5,1.1-1v-8.5h2.7v11.8h-2.3L103.2,59.4z"/>
	<path class="st1" d="M119,55.6c0,1.7-0.4,3.1-1.2,4.2c-0.9,1.1-1.9,1.6-3.4,1.6c-0.7,0-1.4-0.1-1.9-0.4c-0.5-0.3-1-0.7-1.4-1.3
		l-0.2,1.5h-2.2v-17h2.7v6.6c0.3-0.5,0.9-0.9,1.3-1.2c0.4-0.3,1.1-0.4,1.8-0.4c1.5,0,2.7,0.5,3.4,1.7c0.9,1.2,1.2,2.7,1.2,4.6V55.6z
		 M116.4,55.4c0-1.3-0.2-2.2-0.6-3s-1.1-1.2-2-1.2c-0.6,0-1.1,0.1-1.5,0.4c-0.4,0.2-0.7,0.6-1,1.1v5c0.2,0.4,0.5,0.9,1,1.1
		s0.9,0.4,1.5,0.4c1,0,1.6-0.3,2-1c0.4-0.6,0.6-1.5,0.6-2.7V55.4z"/>
	<path class="st1" d="M127.9,57.9c0-0.4-0.2-0.7-0.5-1.1c-0.3-0.3-1-0.5-1.9-0.7c-1.4-0.3-2.5-0.7-3.2-1.3c-0.7-0.5-1.1-1.3-1.1-2.2
		c0-1,0.4-1.8,1.3-2.6c0.9-0.7,1.9-1.1,3.3-1.1c1.5,0,2.6,0.3,3.4,1.1c0.9,0.7,1.3,1.6,1.2,2.7v0.1h-2.6c0-0.5-0.2-1-0.5-1.3
		c-0.3-0.3-0.9-0.5-1.5-0.5c-0.6,0-1.2,0.1-1.5,0.4c-0.3,0.3-0.5,0.6-0.5,1.1c0,0.4,0.1,0.7,0.4,1c0.3,0.2,1,0.4,1.9,0.6
		c1.5,0.3,2.6,0.7,3.3,1.3c0.7,0.5,1.1,1.3,1.1,2.2c0,1.1-0.4,1.9-1.3,2.6c-0.9,0.6-2,1-3.5,1c-1.5,0-2.8-0.4-3.6-1.2
		c-0.9-0.7-1.3-1.7-1.3-2.7v-0.1h2.5c0,0.6,0.3,1.2,0.7,1.5c0.4,0.3,1.1,0.4,1.7,0.4c0.6,0,1.2-0.1,1.6-0.4
		C127.6,58.4,127.9,58.4,127.9,57.9z"/>
	<path class="st1" d="M135.7,46.4h-2.7v-2.3h2.7V46.4z M135.7,61.1h-2.7V49.3h2.7V61.1z"/>
	<path class="st1" d="M138.2,55.4c0-1.9,0.4-3.4,1.2-4.6c0.9-1.2,1.9-1.7,3.4-1.7c0.6,0,1.2,0.1,1.7,0.4c0.5,0.2,1,0.6,1.3,1.1v-6.5
		h2.7v17h-2.2l-0.2-1.5c-0.4,0.5-0.9,1-1.4,1.3c-0.5,0.3-1.2,0.4-1.8,0.4c-1.5,0-2.6-0.5-3.4-1.6c-0.9-1.1-1.2-2.5-1.2-4.2V55.4z
		 M140.9,55.6c0,1.1,0.2,1.9,0.6,2.7c0.4,0.6,1.1,1,2,1c0.5,0,1.1-0.1,1.4-0.3s0.7-0.5,1-1.1v-5.1c-0.2-0.4-0.5-0.7-1-1.1
		c-0.4-0.2-0.9-0.3-1.4-0.3c-0.9,0-1.6,0.4-2,1.2C141.1,53.2,140.9,54.2,140.9,55.6L140.9,55.6z"/>
	<path class="st1" d="M156.4,61.3c-1.7,0-3-0.5-4-1.6c-1-1.1-1.5-2.5-1.5-4.3v-0.4c0-1.7,0.5-3.2,1.5-4.3c1-1.2,2.2-1.7,3.7-1.7
		c1.6,0,2.8,0.5,3.6,1.5c0.9,1,1.3,2.2,1.3,3.8V56h-7.4v0.1c0,1,0.3,1.7,0.9,2.3c0.5,0.6,1.2,0.9,2.1,0.9c0.7,0,1.3-0.1,1.8-0.2
		c0.5-0.1,1-0.4,1.5-0.7l0.9,1.7c-0.4,0.4-1.1,0.7-1.8,1S157.4,61.3,156.4,61.3z M156.1,51.2c-0.6,0-1.2,0.2-1.6,0.7s-0.6,1.2-0.7,2
		v0.1h4.7v-0.3c0-0.7-0.2-1.4-0.5-1.8C157.5,51.4,156.9,51.2,156.1,51.2z"/>
	<path class="st1" d="M165.6,49.3l0.1,1.7c0.4-0.6,0.9-1.1,1.5-1.4c0.5-0.3,1.3-0.5,2-0.5c1.3,0,2.2,0.4,2.9,1.2
		c0.6,0.7,1.1,1.9,1.1,3.5v7.5h-2.7v-7.5c0-0.9-0.2-1.5-0.5-1.9c-0.3-0.4-1-0.5-1.7-0.5c-0.5,0-1,0.1-1.4,0.3c-0.4,0.2-0.7,0.5-1,1
		v8.5h-2.7V49.3H165.6z"/>
	<path class="st1" d="M180.8,59.2c0.6,0,1.2-0.2,1.6-0.5c0.4-0.4,0.6-0.9,0.6-1.4h2.5v0.1c0,1.1-0.4,2-1.4,2.9s-2,1.2-3.4,1.2
		c-1.7,0-3.1-0.5-4-1.7c-1-1.2-1.4-2.6-1.4-4.3v-0.4c0-1.7,0.4-3.1,1.4-4.3c1-1.2,2.2-1.7,4-1.7c1.4,0,2.6,0.4,3.4,1.3
		c0.9,0.9,1.3,1.9,1.3,3.2v0.1h-2.5c0-0.6-0.2-1.2-0.6-1.6c-0.4-0.4-1-0.6-1.7-0.6c-1,0-1.7,0.3-2.1,1.1c-0.4,0.7-0.6,1.6-0.6,2.8
		v0.4c0,1.1,0.2,2,0.6,2.8C179.1,58.9,179.7,59.2,180.8,59.2z"/>
	<path class="st1" d="M192.7,61.3c-1.7,0-3-0.5-4-1.6c-1-1.1-1.5-2.5-1.5-4.3v-0.4c0-1.7,0.5-3.2,1.5-4.3c1-1.2,2.2-1.7,3.7-1.7
		c1.6,0,2.8,0.5,3.6,1.5c0.9,1,1.3,2.2,1.3,3.8V56H190v0.1c0,1,0.3,1.7,0.9,2.3c0.5,0.6,1.2,0.9,2.1,0.9c0.7,0,1.3-0.1,1.8-0.2
		c0.5-0.2,1-0.4,1.5-0.7l0.9,1.7c-0.4,0.4-1.1,0.7-1.8,1C194.5,61.2,193.7,61.3,192.7,61.3z M192.4,51.2c-0.6,0-1.2,0.2-1.6,0.7
		c-0.4,0.5-0.6,1.2-0.7,2v0.1h4.7v-0.3c0-0.7-0.2-1.4-0.5-1.8C193.7,51.4,193.2,51.2,192.4,51.2z"/>
</g>
<g>
	<path class="st1" d="M295.8,77.4c-4,0-8,0-12.1,0c0-2.1,0-3.9,0-6c4.2,0,8.1,0,12.1,0C295.8,73.4,295.8,75.4,295.8,77.4z"/>
	<path class="st1" d="M240.6,42.5c3.8,0,7.6,0,11.4,0c0,2.3,0,4.3,0,6.4c-3.8,0-7.7,0-11.4,0C240.6,46.8,240.6,44.6,240.6,42.5z"/>
	<path class="st1" d="M245.3,82.9c0-1.5,0-2.9,0-4.5c4.7,0,9.5,0,14.3,0c0.1,1.5,0.2,3,0.3,4.5C255,82.9,250.2,82.9,245.3,82.9z"/>
	<path class="st1" d="M260.8,82.9c0-1.5,0-2.9,0-4.5c4.9,0,9.7,0,14.7,0c0,1.5,0,3,0,4.5C270.6,82.9,265.7,82.9,260.8,82.9z"/>
	<path class="st1" d="M276.5,82.9c0.1-1.5,0.3-3,0.4-4.6c4.8,0,9.5,0,14.3,0c0,1.6,0,3.1,0,4.6C286.2,82.9,281.4,82.9,276.5,82.9z"
		/>
	<path class="st1" d="M295.8,63.6c-3.2,0-6.4,0-9.8,0c0-2.1,0-3.9,0-6c3.3,0,6.5,0,9.8,0C295.8,59.6,295.8,61.7,295.8,63.6z"/>
	<path class="st1" d="M240.6,71.5c3.2,0,6.5,0,9.8,0c0,2,0,3.8,0,6c-3.3,0-6.6,0-9.8,0C240.6,75.4,240.6,73.4,240.6,71.5z"/>
	<path class="st1" d="M240.6,30.5c3.7,0,7.6,0,11.4,0c0,1.6,0,2.9,0,4.6c-3.8,0-7.7,0-11.4,0C240.6,33.6,240.6,32.1,240.6,30.5z"/>
	<path class="st1" d="M295.8,35.1c-3.4,0-6.8,0-10.4,0c0-1.6,0-3,0-4.6c3.4,0,6.9,0,10.4,0C295.8,32.1,295.8,33.6,295.8,35.1z"/>
	<path class="st1" d="M240.6,58.6c3.7,0.7,7.5,1.5,11.1,2.3c0.5,0.1,0.9,1.3,1.3,2c-0.1,0.2-0.3,0.4-0.4,0.6c-3.9,0-8,0-11.9,0
		C240.6,62,240.6,60.3,240.6,58.6z"/>
	<path class="st1" d="M295.8,49c-1.8,0-3.6,0-5.3,0c-0.5-2-1.1-3.8-1.6-6.1c2.3-0.1,4.7-0.3,6.9-0.4C295.8,44.6,295.8,46.8,295.8,49
		z"/>
	<path class="st1" d="M240.6,35.7c1.5,0.1,3,0.2,4.6,0.3c0,2,0,3.8,0,6.1c-1.6,0-3.1,0-4.6,0C240.6,39.9,240.6,37.8,240.6,35.7z"/>
	<path class="st1" d="M295.8,55.8c-1.2,0-2.2,0-3.6,0c0-2,0-3.9,0-6c1.2,0,2.5,0,3.6,0C295.8,51.9,295.8,53.9,295.8,55.8z"/>
	<path class="st1" d="M240.6,64.5c1-0.1,1.9-0.1,3-0.2c0,2.1,0,3.9,0,6c-1.1,0.1-2,0.1-3,0.1C240.6,68.5,240.6,66.6,240.6,64.5z"/>
	<path class="st1" d="M295.8,70.5c-1,0-1.9-0.1-3-0.1c0-1.9,0-3.8,0-6c1.1,0,2,0.1,3,0.1C295.8,66.6,295.8,68.5,295.8,70.5z"/>
	<path class="st1" d="M240.6,78.3c1,0,1.9,0,3.2,0c0,1.6,0,3.1,0,4.6c-1.1,0-2.1,0-3.2,0C240.6,81.4,240.6,79.9,240.6,78.3z"/>
	<path class="st1" d="M292.5,82.9c0-1.5,0-3,0-4.6c1.3,0,2.2,0,3.2,0c0,1.5,0,3.1,0,4.6C294.6,82.9,293.5,82.9,292.5,82.9z"/>
	<path class="st1" d="M240.6,49.8c0.7,0,1.5,0,2.5,0c0,1.5,0,3,0,4.6c-0.9-0.1-1.6-0.3-2.5-0.4C240.6,52.6,240.6,51.2,240.6,49.8z"
		/>
	<path class="st1" d="M295.8,42.1c-0.5-0.3-1.4-0.6-1.4-1c-0.1-1.5-0.2-3,0-4.5c0-0.4,0.9-0.6,1.4-1
		C295.8,37.8,295.8,39.9,295.8,42.1z"/>
	<path class="st1" d="M261.1,36c0,1.9,0,3.8,0,5.9c-4.8,0-9.5,0-14.4,0c0-1.9,0-3.8,0-5.9C251.4,36,256.2,36,261.1,36z"/>
	<path class="st1" d="M253.6,48.8c0-2,0-3.8,0-5.9c4.8,0,9.5,0,14.4,0c0,1.9,0,3.7,0,5.9C263.2,48.8,258.5,48.8,253.6,48.8z"/>
	<path class="st1" d="M283.7,42.9c0,2,0,3.8,0,5.9c-4.8,0-9.5,0-14.4,0c0-1.9,0-3.8,0-5.9C274.1,42.9,278.8,42.9,283.7,42.9z"/>
	<path class="st1" d="M262.5,41.8c0-2,0-3.8,0-5.9c4.7,0,9.4,0,14.3,0c0,1.8,0,3.7,0,5.9C272.1,41.8,267.4,41.8,262.5,41.8z"/>
	<path class="st1" d="M278.4,41.8c0-2,0-3.8,0-5.9c4.8,0,9.6,0,14.4,0c0,1.9,0,3.8,0,6c-1.9-0.3-4.3,1.3-5.3-2.1
		c-0.2,0.9-0.4,1.3-0.5,2C284.1,41.8,281.4,41.8,278.4,41.8z"/>
	<path class="st1" d="M275.4,64.5c0,1.9,0,3.7,0,5.8c-4.8,0-9.5,0-14.4,0c0-1.8,0-3.7,0-5.8C265.7,64.5,270.5,64.5,275.4,64.5z"/>
	<path class="st1" d="M245.2,70.3c0-1.9,0-3.8,0-5.9c4.8,0,9.5,0,14.3,0c0,1.9,0,3.8,0,5.9C254.8,70.3,250.2,70.3,245.2,70.3z"/>
	<path class="st1" d="M266.2,71.5c0,1.9,0,3.8,0,5.8c-4.8,0-9.5,0-14.4,0c0-1.9,0-3.7,0-5.8C256.7,71.5,261.3,71.5,266.2,71.5z"/>
	<path class="st1" d="M282,77.3c-4.9,0-9.5,0-14.3,0c0-1.9,0-3.8,0-5.9c4.7,0,9.4,0,14.3,0C282,73.4,282,75.3,282,77.3z"/>
	<path class="st1" d="M291.2,70.4c-4.8,0-9.5,0-14.4,0c0-2,0-3.8,0-5.9c4.8,0,9.5,0,14.4,0C291.2,66.5,291.2,68.4,291.2,70.4z"/>
	<path class="st1" d="M244.3,49.8c5,0,9.7,0,14.5,0c0,1.9,0,3.7,0,5.4c-4.5,0-8.8,0-13.3-0.1c-0.4,0-1.1-1-1.2-1.5
		C244.2,52.6,244.3,51.3,244.3,49.8z"/>
	<path class="st1" d="M284.5,57.5c0,2.1,0,3.9,0,5.9c-4.8,0-9.5,0-14.2,0c-1-4.2,0.4-5.9,4.4-5.9C277.9,57.5,281.1,57.5,284.5,57.5z
		"/>
	<path class="st1" d="M274.7,49.9c0,0.9,0,1.5,0,1.9c-1.4,1.1-2.6,2-3.8,3c-0.6,0.4-1.5,0.9-2.2,0.9c-2.7,0.1-5.3,0-8.2,0
		c0-1.9,0-3.7,0-5.8C265,49.9,269.8,49.9,274.7,49.9z"/>
	<path class="st1" d="M253.6,34.9c0-1.4,0-2.7,0-4.2c4.7,0,9.4,0,14.3,0c0,1.3,0,2.7,0,4.2C263.3,34.9,258.5,34.9,253.6,34.9z"/>
	<path class="st1" d="M269.3,34.9c0-1.5,0-2.8,0-4.2c4.8,0,9.6,0,14.4,0c0,1.4,0,2.8,0,4.2C278.9,34.9,274.2,34.9,269.3,34.9z"/>
	<path class="st1" d="M276.7,55.3c0.5-0.1,1.2-0.3,1.7-0.4c3.5-0.4,6.6-1.5,9.1-4.3c0.6-0.6,1.8-0.7,3.1-1.2c0,2.2,0,4,0,6.1
		c-4.6,0-9.3,0-13.8,0C276.7,55.5,276.7,55.4,276.7,55.3z"/>
	<path class="st1" d="M267.8,57.7c-1.2,2.3-2.7,3.3-5.2,2.3c-2.3-0.9-4.8-1.4-7.1-2.3C259.5,57.7,263.7,57.7,267.8,57.7z"/>
	<path class="st1" d="M276,52.5c0-1.2,0-1.8,0-2.6c2.6,0,5,0,7.7,0C281.9,52.9,278.8,51.9,276,52.5z"/>
	<path class="st1" d="M254.4,61.4c2.5,0.5,4.8,1.2,7.2,1.7c0,0.1,0,0.2,0,0.4c-2,0-4.2,0.1-6.2-0.1c-0.5,0-1.1-0.9-1.7-1.3
		C254,62,254.2,61.8,254.4,61.4z"/>
	<path class="st1" d="M285,48.8c0.4-2.2-0.5-4.5,1.2-6.1C287.6,46.1,287.1,47.7,285,48.8z"/>
</g>
</svg>
