<?xml version="1.0" encoding="utf-8"?>
<!-- Generator: Adobe Illustrator 21.0.0, SVG Export Plug-In . SVG Version: 6.00 Build 0)  -->
<svg version="1.1" id="Capa_1" xmlns="http://www.w3.org/2000/svg" xmlns:xlink="http://www.w3.org/1999/xlink" x="0px" y="0px"
	 viewBox="0 0 300 108" style="enable-background:new 0 0 300 108;" xml:space="preserve">
<style type="text/css">
	.st0{fill:url(#SVGID_1_);}
	.st1{fill:#2366BB;}
</style>
<g>
	
		<linearGradient id="SVGID_1_" gradientUnits="userSpaceOnUse" x1="201.8546" y1="244.2999" x2="299.5363" y2="244.2999" gradientTransform="matrix(1 0 0 1 0 -190)">
		<stop  offset="0" style="stop-color:#00B2F5"/>
		<stop  offset="1" style="stop-color:#383897"/>
	</linearGradient>
	<path class="st0" d="M250.7,103.1c-27,0-48.8-21.9-48.8-48.8s21.9-48.8,48.8-48.8c27-0.1,48.8,21.9,48.8,48.8
		S277.7,103.1,250.7,103.1z M250.7,8.5c-25.3,0-45.8,20.6-45.8,45.8s20.6,45.8,45.8,45.8c25.3,0,45.8-20.6,45.8-45.8
		S275.9,8.5,250.7,8.5z"/>
</g>
<g>
	<path class="st1" d="M41.1,50.7h-3.7v10.6h-2.1V50.7h-3.7V49h9.5V50.7z"/>
	<path class="st1" d="M44.4,53.3c0.4-0.5,0.7-0.8,1.1-1c0.5-0.3,1-0.4,1.5-0.4c1,0,1.7,0.4,2.3,1c0.5,0.6,0.8,1.5,0.8,2.9v5.5H48
		v-5.6c0-0.7-0.2-1.2-0.5-1.5c-0.3-0.4-0.7-0.5-1.3-0.5c-0.5,0-0.8,0.1-1,0.3c-0.3,0.2-0.6,0.5-0.8,0.8v6.6h-2.1V48.1h2.1
		C44.4,48.1,44.4,53.3,44.4,53.3z"/>
	<path class="st1" d="M56.2,61.5c-1.3,0-2.4-0.5-3.1-1.3c-0.8-0.9-1.1-1.9-1.1-3.3v-0.4c0-1.3,0.4-2.5,1.1-3.3
		c0.8-0.9,1.7-1.3,2.9-1.3s2.2,0.4,2.9,1.1c0.7,0.7,1,1.7,1,3v1.2H54l0,0c0,0.7,0.3,1.3,0.6,1.8c0.5,0.5,1,0.7,1.6,0.7
		c0.5,0,1-0.1,1.4-0.2c0.4-0.1,0.8-0.4,1.1-0.6l0.7,1.4c-0.4,0.4-0.8,0.6-1.4,0.8C57.5,61.4,56.9,61.5,56.2,61.5z M55.9,53.7
		c-0.5,0-1,0.2-1.2,0.6c-0.3,0.5-0.5,1-0.6,1.5l0,0h3.6v-0.2c0-0.6-0.2-1-0.5-1.4C57,53.9,56.4,53.7,55.9,53.7z"/>
	<path class="st1" d="M62.1,61.3v-7.6h-1.4v-1.5h1.4v-1c0-1,0.3-1.8,0.9-2.4c0.6-0.5,1.3-0.8,2.4-0.8c0.2,0,0.5,0,0.6,0.1
		s0.5,0.1,0.7,0.2l-0.2,1.5c-0.1,0-0.3,0-0.4-0.1s-0.3,0-0.5,0c-0.5,0-0.8,0.1-1,0.4c-0.3,0.3-0.4,0.6-0.4,1.1v1.1h1.8v1.5h-1.8v7.6
		L62.1,61.3L62.1,61.3z"/>
	<path class="st1" d="M70,49.9v2.3h1.6v1.5H70v5c0,0.4,0.1,0.6,0.3,0.8c0.2,0.2,0.4,0.3,0.7,0.3c0.1,0,0.3,0,0.4,0s0.2-0.1,0.4-0.1
		l0.3,1.5c-0.2,0.1-0.4,0.2-0.6,0.3c-0.3,0.1-0.5,0.1-0.8,0.1c-0.8,0-1.4-0.3-1.8-0.7c-0.5-0.5-0.6-1.1-0.6-2.1v-5h-1.4v-1.5h1.4
		v-2.3H70z"/>
	<path class="st1" d="M83.3,61.3c-0.1-0.3-0.2-0.5-0.2-0.7s-0.1-0.5-0.1-0.7c-0.3,0.5-0.7,0.8-1.1,1c-0.5,0.3-1,0.5-1.5,0.5
		c-1,0-1.6-0.3-2.2-0.7c-0.5-0.5-0.8-1.1-0.8-2s0.4-1.5,1-2.1c0.6-0.5,1.6-0.8,2.9-0.8h1.7v-0.7c0-0.5-0.2-0.9-0.5-1.1
		c-0.3-0.3-0.7-0.5-1.2-0.5c-0.5,0-0.9,0.1-1.1,0.4c-0.3,0.3-0.5,0.5-0.5,0.9h-2v-0.1c0-0.7,0.3-1.4,1-1.9c0.7-0.5,1.5-0.9,2.7-0.9
		c1,0,1.9,0.3,2.6,0.8c0.7,0.5,1,1.3,1,2.4V59c0,0.4,0,0.8,0.1,1.1c0.1,0.4,0.2,0.7,0.3,1C85.3,61.3,83.3,61.3,83.3,61.3z
		 M80.9,59.8c0.5,0,1-0.1,1.4-0.4c0.5-0.3,0.7-0.5,0.9-0.9v-1.4h-1.6c-0.6,0-1,0.2-1.4,0.5c-0.4,0.3-0.5,0.6-0.5,1s0.1,0.6,0.4,0.9
		C80.2,59.8,80.4,59.8,80.9,59.8z"/>
	<path class="st1" d="M89.2,52.1l0.1,1.3c0.3-0.5,0.7-0.9,1.1-1.1c0.5-0.3,1-0.5,1.5-0.5c1,0,1.7,0.3,2.3,0.9
		c0.5,0.6,0.8,1.5,0.8,2.7v5.7h-2.1v-5.7c0-0.7-0.2-1.2-0.5-1.5c-0.3-0.3-0.7-0.5-1.3-0.5c-0.5,0-0.8,0.1-1,0.3
		c-0.2,0.2-0.6,0.5-0.8,0.7v6.7h-2.1v-9h1.9V52.1z"/>
	<path class="st1" d="M96.7,56.9c0-1.5,0.4-2.6,1-3.5c0.6-1,1.5-1.3,2.6-1.3c0.5,0,1,0.1,1.3,0.3c0.4,0.2,0.7,0.5,1,0.9v-5h2.1v13
		H103l-0.2-1.1c-0.3,0.5-0.6,0.8-1,1c-0.5,0.2-0.9,0.4-1.5,0.4c-1.1,0-2-0.5-2.6-1.2c-0.6-0.9-1-2-1-3.3V56.9z M98.8,57.1
		c0,0.9,0.2,1.5,0.5,2c0.4,0.5,0.9,0.8,1.5,0.8c0.5,0,0.8-0.1,1.1-0.3c0.4-0.2,0.5-0.5,0.8-0.8v-4c-0.2-0.4-0.5-0.6-0.8-0.8
		c-0.4-0.2-0.7-0.3-1.1-0.3c-0.7,0-1.2,0.3-1.5,0.9C99,55.2,98.8,56,98.8,57.1L98.8,57.1z"/>
	<path class="st1" d="M115.5,58.1l0.3,0.9h0.1l0.2-0.9L119,49h2.2l-4.5,12.3h-2l-4.5-12.4h2.2L115.5,58.1z"/>
	<path class="st1" d="M127.5,61.3c-0.1-0.3-0.2-0.5-0.2-0.7s-0.1-0.5-0.1-0.7c-0.3,0.5-0.7,0.8-1.1,1c-0.5,0.3-1,0.5-1.5,0.5
		c-1,0-1.6-0.3-2.2-0.7s-0.8-1.1-0.8-2s0.4-1.5,1-2.1c0.7-0.5,1.6-0.8,2.9-0.8h1.5v-0.7c0-0.5-0.2-0.9-0.5-1.1
		c-0.3-0.3-0.7-0.5-1.2-0.5s-0.9,0.1-1.1,0.4c-0.3,0.3-0.5,0.5-0.5,0.9h-2v-0.1c0-0.7,0.3-1.4,1-1.9c0.7-0.5,1.5-0.9,2.7-0.9
		c1,0,1.9,0.3,2.6,0.8c0.7,0.5,1,1.3,1,2.4V59c0,0.4,0,0.8,0.1,1.1c0.1,0.4,0.2,0.7,0.3,1C129.4,61.3,127.5,61.3,127.5,61.3z
		 M124.9,59.8c0.5,0,1-0.1,1.4-0.4c0.5-0.3,0.7-0.5,0.9-0.9v-1.4h-1.6c-0.6,0-1,0.2-1.4,0.5c-0.4,0.3-0.5,0.6-0.5,1s0.1,0.6,0.4,0.9
		C124.2,59.8,124.5,59.8,124.9,59.8z"/>
	<path class="st1" d="M133.2,52.1l0.1,1.3c0.3-0.5,0.7-0.9,1.1-1.1c0.5-0.3,1-0.5,1.5-0.5c1,0,1.7,0.3,2.3,0.9
		c0.5,0.6,0.8,1.5,0.8,2.7v5.7h-2.1v-5.7c0-0.7-0.2-1.2-0.5-1.5c-0.3-0.3-0.7-0.5-1.3-0.5c-0.5,0-0.8,0.1-1,0.3
		c-0.2,0.2-0.6,0.5-0.8,0.7v6.7h-2.1v-9h1.9V52.1z"/>
	<path class="st1" d="M140.8,56.9c0-1.5,0.4-2.6,1-3.5c0.6-1,1.5-1.3,2.6-1.3c0.5,0,1,0.1,1.3,0.3c0.4,0.2,0.7,0.5,1,0.9v-5h2.1v13
		h-1.7l-0.2-1.1c-0.3,0.5-0.6,0.8-1,1c-0.5,0.2-0.9,0.4-1.5,0.4c-1.1,0-2-0.5-2.6-1.2c-0.6-0.8-1-1.9-1-3.2V56.9z M142.8,57.1
		c0,0.9,0.2,1.5,0.5,2c0.4,0.5,0.9,0.8,1.5,0.8c0.5,0,0.8-0.1,1.1-0.3c0.4-0.2,0.5-0.5,0.8-0.8v-4c-0.2-0.4-0.5-0.6-0.8-0.8
		c-0.4-0.2-0.7-0.3-1.1-0.3c-0.7,0-1.2,0.3-1.5,0.9C143,55.2,142.8,56,142.8,57.1L142.8,57.1z"/>
	<path class="st1" d="M156.6,61.3c-0.1-0.3-0.2-0.5-0.2-0.7s-0.1-0.5-0.1-0.7c-0.3,0.5-0.7,0.8-1.1,1c-0.5,0.3-1,0.5-1.5,0.5
		c-1,0-1.6-0.3-2.2-0.7c-0.5-0.5-0.8-1.1-0.8-2s0.4-1.5,1-2.1c0.6-0.5,1.6-0.8,2.9-0.8h1.5v-0.7c0-0.5-0.2-0.9-0.5-1.1
		c-0.3-0.3-0.7-0.5-1.2-0.5s-0.9,0.1-1.1,0.4c-0.3,0.3-0.5,0.5-0.5,0.9h-2v-0.1c0-0.7,0.3-1.4,1-1.9c0.7-0.5,1.5-0.9,2.7-0.9
		c1,0,1.9,0.3,2.6,0.8c0.7,0.5,1,1.3,1,2.4V59c0,0.4,0,0.8,0.1,1.1c0.1,0.4,0.2,0.7,0.3,1C158.6,61.3,156.6,61.3,156.6,61.3z
		 M154,59.8c0.5,0,1-0.1,1.4-0.4c0.5-0.3,0.7-0.5,0.9-0.9v-1.4h-1.6c-0.6,0-1,0.2-1.4,0.5c-0.4,0.3-0.5,0.6-0.5,1s0.1,0.6,0.4,0.9
		C153.3,59.8,153.7,59.8,154,59.8z"/>
	<path class="st1" d="M162.7,61.3h-2.1V48.1h2.1V61.3z"/>
	<path class="st1" d="M167.2,49.9h-2.1v-1.8h2.1V49.9z M167.2,61.3h-2.1v-9.2h2.1V61.3z"/>
	<path class="st1" d="M174.7,58.8c0-0.4-0.2-0.6-0.5-0.8s-0.8-0.5-1.5-0.5c-1.1-0.3-1.9-0.5-2.5-1c-0.6-0.5-0.9-1-0.9-1.7
		c0-0.8,0.4-1.4,1-2c0.6-0.6,1.5-0.8,2.6-0.8c1.2,0,2,0.3,2.7,0.9c0.7,0.6,1,1.2,1,2.1V55h-2c0-0.4-0.2-0.7-0.5-1
		c-0.3-0.3-0.7-0.5-1.2-0.5c-0.5,0-0.9,0.1-1.1,0.4c-0.3,0.3-0.4,0.5-0.4,0.8c0,0.3,0.1,0.6,0.4,0.8c0.3,0.2,0.8,0.4,1.5,0.5
		c1.1,0.3,2,0.6,2.6,1c0.6,0.5,0.9,1,0.9,1.7c0,0.9-0.4,1.5-1,2c-0.6,0.5-1.5,0.8-2.7,0.8c-1.2,0-2.2-0.4-2.9-1s-1-1.3-1-2.1v0h1.9
		c0,0.5,0.2,1,0.6,1.1c0.5,0.2,0.8,0.4,1.3,0.4c0.5,0,1-0.1,1.2-0.4C174.5,59.4,174.7,59.1,174.7,58.8z"/>
	<path class="st1" d="M180.4,52.1l0.1,1.2c0.3-0.5,0.7-0.8,1.1-1c0.5-0.3,1-0.4,1.5-0.4s1.1,0.2,1.5,0.5s0.8,0.7,1,1.2
		c0.3-0.5,0.7-0.9,1.1-1.2c0.5-0.4,1-0.5,1.6-0.5c1,0,1.6,0.4,2.2,1c0.5,0.6,0.8,1.5,0.8,2.9v5.5h-2v-5.5c0-0.8-0.2-1.3-0.5-1.6
		s-0.7-0.5-1.2-0.5c-0.5,0-0.8,0.1-1.1,0.4c-0.4,0.3-0.5,0.5-0.7,1c0,0.1,0,0.2,0,0.3s0,0.1,0,0.2v5.8h-2.1v-5.5
		c0-0.8-0.2-1.3-0.5-1.6c-0.3-0.4-0.7-0.5-1.2-0.5s-0.8,0.1-1,0.3c-0.3,0.2-0.5,0.4-0.7,0.7v6.7h-2.1v-9.2H180.4z"/>
</g>
<g>
	<g>
		<g>
			<path class="st1" d="M266.2,45v-8.8c0-6.8-5.5-12.4-12.4-12.4v2.1l-1.8,4.3c0.5-0.2,1.2-0.3,1.8-0.3c3.4,0,6.1,2.7,6.1,6.1v8.9
				h-6.1v2.7l2.5,2.5l-6.5,6.9l3.5,7.5l-2.4,3.7l8.2,3.3l-5.8,4.5l0.5,5.9h18.6V45H266.2z"/>
			<path class="st1" d="M244.6,70.2l2.4-3.7l-3.5-7.5l6.5-6.9l-2.5-2.5v-2.7h-6.2V38c0-2.7,1.8-5.1,4.4-5.8l1.8-4.3v-2.1l0,0
				c-6.8,0-12.4,5.5-12.4,12.4V47H229v37.1h18.6l-0.5-5.9l5.8-4.5L244.6,70.2z"/>
		</g>
	</g>
</g>
</svg>
